<?xml version="1.0" encoding="UTF-8" standalone="no"?>
<!DOCTYPE svg PUBLIC "-//W3C//DTD SVG 1.1//EN"
 "http://www.w3.org/Graphics/SVG/1.1/DTD/svg11.dtd">
<!-- Generated by graphviz version 2.38.0 (20140413.2041)
 -->
<!-- Title: tech Pages: 1 -->
<svg width="1101pt" height="519pt"
 viewBox="0.00 0.00 1101.00 519.00" xmlns="http://www.w3.org/2000/svg" xmlns:xlink="http://www.w3.org/1999/xlink">
<g id="graph0" class="graph" transform="scale(1 1) rotate(0) translate(4 515)">
<title>tech</title>
<polygon fill="white" stroke="none" points="-4,4 -4,-515 1097,-515 1097,4 -4,4"/>
<g id="clust1" class="cluster"><title>cluster_opi</title>
<polygon fill="none" stroke="black" points="163,-329 163,-503 913,-503 913,-329 163,-329"/>
</g>
<g id="clust2" class="cluster"><title>cluster_Infrastructure</title>
<polygon fill="none" stroke="black" points="171,-420 171,-495 620,-495 620,-420 171,-420"/>
<text text-anchor="middle" x="395.5" y="-479.8" font-family="SansSerif" font-size="14.00">Infrastructure</text>
</g>
<g id="clust4" class="cluster"><title>cluster_Operations</title>
<polygon fill="none" stroke="black" points="359,-337 359,-412 905,-412 905,-337 359,-337"/>
<text text-anchor="middle" x="632" y="-396.8" font-family="SansSerif" font-size="14.00">Operations</text>
</g>
<g id="clust5" class="cluster"><title>cluster_Payment</title>
<polygon fill="none" stroke="black" points="171,-337 171,-412 351,-412 351,-337 171,-337"/>
<text text-anchor="middle" x="261" y="-396.8" font-family="SansSerif" font-size="14.00">Payment</text>
</g>
<g id="clust6" class="cluster"><title>cluster_Treatment</title>
<polygon fill="none" stroke="black" points="8,-8 8,-321 1085,-321 1085,-8 8,-8"/>
<text text-anchor="middle" x="546.5" y="-305.8" font-family="SansSerif" font-size="14.00">Treatment</text>
</g>
<g id="clust8" class="cluster"><title>cluster_Departments</title>
<polygon fill="none" stroke="black" points="16,-16 16,-246 1077,-246 1077,-16 16,-16"/>
<text text-anchor="middle" x="546.5" y="-230.8" font-family="SansSerif" font-size="14.00">Departments</text>
</g>
<g id="clust10" class="cluster"><title>cluster_Laboratory</title>
<polygon fill="none" stroke="black" points="871,-96 871,-171 1069,-171 1069,-96 871,-96"/>
<text text-anchor="middle" x="970" y="-155.8" font-family="SansSerif" font-size="14.00">Laboratory</text>
</g>
<g id="clust9" class="cluster"><title>cluster_ICU</title>
<polygon fill="none" stroke="black" points="707,-96 707,-171 863,-171 863,-96 707,-96"/>
<text text-anchor="middle" x="785" y="-155.8" font-family="SansSerif" font-size="14.00">ICU</text>
</g>
<g id="clust11" class="cluster"><title>cluster_LDD</title>
<polygon fill="none" stroke="black" points="525,-96 525,-171 699,-171 699,-96 525,-96"/>
<text text-anchor="middle" x="612" y="-155.8" font-family="SansSerif" font-size="14.00">Labor and Delivery</text>
</g>
<g id="clust13" class="cluster"><title>cluster_ED</title>
<polygon fill="none" stroke="black" points="350,-96 350,-171 517,-171 517,-96 350,-96"/>
<text text-anchor="middle" x="433.5" y="-155.8" font-family="SansSerif" font-size="14.00">Emergency Department</text>
</g>
<g id="clust12" class="cluster"><title>cluster_Imaging</title>
<polygon fill="none" stroke="black" points="24,-24 24,-171 342,-171 342,-24 24,-24"/>
<text text-anchor="middle" x="183" y="-155.8" font-family="SansSerif" font-size="14.00">Imaging</text>
</g>
<!-- SEC -->
<g id="node1" class="node"><title>SEC</title>
<g id="a_node1"><a xlink:href="technology_environment.html#ehr-systems" xlink:title="Security Infrastructure">
<polygon fill="#fefece" stroke="#a80036" points="612,-464 478,-464 478,-428 612,-428 612,-464"/>
<text text-anchor="middle" x="545" y="-442.9" font-family="SansSerif" font-size="12.00">Security Infrastructure</text>
</a>
</g>
</g>
<!-- CnC -->
<g id="node2" class="node"><title>CnC</title>
<g id="a_node2"><a xlink:href="technology_environment.html#command-and-control-systems" xlink:title="Command and Control">
<polygon fill="#fefece" stroke="#a80036" points="459.5,-464 322.5,-464 322.5,-428 459.5,-428 459.5,-464"/>
<text text-anchor="middle" x="391" y="-442.9" font-family="SansSerif" font-size="12.00">Command and Control</text>
</a>
</g>
</g>
<!-- MPI -->
<g id="node3" class="node"><title>MPI</title>
<g id="a_node3"><a xlink:href="technology_environment.html#master-patient-index" xlink:title="Master Patient Index">
<polygon fill="#fefece" stroke="#a80036" points="304.5,-464 179.5,-464 179.5,-428 304.5,-428 304.5,-464"/>
<text text-anchor="middle" x="242" y="-442.9" font-family="SansSerif" font-size="12.00">Master Patient Index</text>
</a>
</g>
</g>
<!-- AM -->
<g id="node4" class="node"><title>AM</title>
<g id="a_node4"><a xlink:href="technology_environment.html#asset-management-systems" xlink:title="Asset Management">
<polygon fill="#fefece" stroke="#a80036" points="897,-381 781,-381 781,-345 897,-345 897,-381"/>
<text text-anchor="middle" x="839" y="-359.9" font-family="SansSerif" font-size="12.00">Asset Management</text>
</a>
</g>
</g>
<!-- BM -->
<g id="node5" class="node"><title>BM</title>
<g id="a_node5"><a xlink:href="technology_environment.html#bed-management-aka-housekeeping-systems" xlink:title="Bed Management">
<polygon fill="#fefece" stroke="#a80036" points="762.5,-381 655.5,-381 655.5,-345 762.5,-345 762.5,-381"/>
<text text-anchor="middle" x="709" y="-359.9" font-family="SansSerif" font-size="12.00">Bed Management</text>
</a>
</g>
</g>
<!-- INV -->
<g id="node6" class="node"><title>INV</title>
<g id="a_node6"><a xlink:href="technology_environment.html#inventory-control-systems" xlink:title="Inventory Control">
<polygon fill="#fefece" stroke="#a80036" points="637,-381 527,-381 527,-345 637,-345 637,-381"/>
<text text-anchor="middle" x="582" y="-359.9" font-family="SansSerif" font-size="12.00">Inventory Control</text>
</a>
</g>
</g>
<!-- WM -->
<g id="node7" class="node"><title>WM</title>
<g id="a_node7"><a xlink:href="technology_environment.html#workforce-managementstaff-scheduling-systems" xlink:title="Workforce Management">
<polygon fill="#fefece" stroke="#a80036" points="509,-381 367,-381 367,-345 509,-345 509,-381"/>
<text text-anchor="middle" x="438" y="-359.9" font-family="SansSerif" font-size="12.00">Workforce Management</text>
</a>
</g>
</g>
<!-- WM&#45;&gt;SEC -->
<g id="edge10" class="edge"><title>WM&#45;&gt;SEC</title>
<path fill="none" stroke="none" d="M500.764,-411.513C501.932,-412.397 503.094,-413.277 504.248,-414.15"/>
<polygon fill="none" stroke="none" points="502.192,-416.984 512.277,-420.229 506.417,-411.402 502.192,-416.984"/>
</g>
<!-- RCM -->
<g id="node8" class="node"><title>RCM</title>
<g id="a_node8"><a xlink:href="technology_environment.html#revenue-cycle-managementbilling-systems" xlink:title="Revenue Cycle Management">
<polygon fill="#fefece" stroke="#a80036" points="343,-381 179,-381 179,-345 343,-345 343,-381"/>
<text text-anchor="middle" x="261" y="-359.9" font-family="SansSerif" font-size="12.00">Revenue Cycle Management</text>
</a>
</g>
</g>
<!-- RCM&#45;&gt;MPI -->
<g id="edge8" class="edge"><title>RCM&#45;&gt;MPI</title>
<path fill="none" stroke="none" d="M249.807,-411.718C249.324,-413.777 248.847,-415.811 248.381,-417.796"/>
<polygon fill="none" stroke="none" points="249.289,-409.65 247.024,-420 255.249,-413.322 249.289,-409.65"/>
</g>
<!-- CM -->
<g id="node9" class="node"><title>CM</title>
<g id="a_node9"><a xlink:href="technology_environment.html#care-management-systems" xlink:title="Care Management">
<polygon fill="#fefece" stroke="#a80036" points="317,-290 205,-290 205,-254 317,-254 317,-290"/>
<text text-anchor="middle" x="261" y="-268.9" font-family="SansSerif" font-size="12.00">Care Management</text>
</a>
</g>
</g>
<!-- CM&#45;&gt;RCM -->
<g id="edge9" class="edge"><title>CM&#45;&gt;RCM</title>
<path fill="none" stroke="none" d="M261,-290.16C261,-305.92 261,-329.149 261,-344.893"/>
</g>
<!-- EHR -->
<g id="node10" class="node"><title>EHR</title>
<g id="a_node10"><a xlink:href="technology_environment.html#ehr-systems" xlink:title="EHR Systems">
<polygon fill="#fefece" stroke="#a80036" points="655,-290 569,-290 569,-254 655,-254 655,-290"/>
<text text-anchor="middle" x="612" y="-268.9" font-family="SansSerif" font-size="12.00">EHR Systems</text>
</a>
</g>
</g>
<!-- DS -->
<g id="node11" class="node"><title>DS</title>
<g id="a_node11"><a xlink:href="technology_environment.html#departmental-systems" xlink:title="Departmental System">
<polygon fill="#fefece" stroke="#a80036" points="677,-215 547,-215 547,-179 677,-179 677,-215"/>
<text text-anchor="middle" x="612" y="-193.9" font-family="SansSerif" font-size="12.00">Departmental System</text>
</a>
</g>
</g>
<!-- DS&#45;&gt;EHR -->
<g id="edge6" class="edge"><title>DS&#45;&gt;EHR</title>
<path fill="none" stroke="#a80036" d="M612,-215.3C612,-226.937 612,-242.213 612,-253.824"/>
</g>
<!-- ICM -->
<g id="node12" class="node"><title>ICM</title>
<g id="a_node12"><a xlink:href="technology_environment.html#icucentral-monitoring-systems" xlink:title="ICU Central Monitoring">
<polygon fill="#fefece" stroke="#a80036" points="854.5,-140 715.5,-140 715.5,-104 854.5,-104 854.5,-140"/>
<text text-anchor="middle" x="785" y="-118.9" font-family="SansSerif" font-size="12.00">ICU Central Monitoring</text>
</a>
</g>
</g>
<!-- ICM&#45;&gt;DS -->
<g id="edge4" class="edge"><title>ICM&#45;&gt;DS</title>
<path fill="none" stroke="#a80036" d="M759.684,-140.154C743.919,-150.235 722.913,-162.608 703,-171 697.904,-173.147 692.571,-175.163 687.15,-177.045"/>
<polygon fill="none" stroke="#a80036" points="685.731,-173.827 677.333,-180.286 687.926,-180.474 685.731,-173.827"/>
</g>
<!-- LIS -->
<g id="node13" class="node"><title>LIS</title>
<g id="a_node13"><a xlink:href="technology_environment.html#laboratory-information-systems-lis" xlink:title="Laboratory Information System">
<polygon fill="#fefece" stroke="#a80036" points="1061,-140 879,-140 879,-104 1061,-104 1061,-140"/>
<text text-anchor="middle" x="970" y="-118.9" font-family="SansSerif" font-size="12.00">Laboratory Information System</text>
</a>
</g>
</g>
<!-- LIS&#45;&gt;DS -->
<g id="edge2" class="edge"><title>LIS&#45;&gt;DS</title>
<path fill="none" stroke="#a80036" d="M940.382,-140.088C920.332,-150.819 892.881,-163.923 867,-171 807.867,-187.169 738.502,-193.174 687.057,-195.273"/>
<polygon fill="none" stroke="#a80036" points="686.88,-191.777 677.015,-195.643 687.137,-198.773 686.88,-191.777"/>
</g>
<!-- LnD -->
<g id="node14" class="node"><title>LnD</title>
<g id="a_node14"><a xlink:href="technology_environment.html#labor-and-delivery-system" xlink:title="Labor and Delivery System">
<polygon fill="#fefece" stroke="#a80036" points="691,-140 533,-140 533,-104 691,-104 691,-140"/>
<text text-anchor="middle" x="612" y="-118.9" font-family="SansSerif" font-size="12.00">Labor and Delivery System</text>
</a>
</g>
</g>
<!-- LnD&#45;&gt;DS -->
<g id="edge3" class="edge"><title>LnD&#45;&gt;DS</title>
<path fill="none" stroke="#a80036" d="M612,-140.3C612,-148.755 612,-159.131 612,-168.627"/>
<polygon fill="none" stroke="#a80036" points="608.5,-168.824 612,-178.824 615.5,-168.824 608.5,-168.824"/>
</g>
<!-- PACS -->
<g id="node15" class="node"><title>PACS</title>
<g id="a_node15"><a xlink:href="technology_environment.html#picture-archival-and-communication-systems-pacs" xlink:title="Picture Archiving and Communication System (PACS)">
<polygon fill="#fefece" stroke="#a80036" points="333.5,-68 32.5,-68 32.5,-32 333.5,-32 333.5,-68"/>
<text text-anchor="middle" x="183" y="-46.9" font-family="SansSerif" font-size="12.00">Picture Archiving and Communication System (PACS)</text>
</a>
</g>
</g>
<!-- RIS -->
<g id="node16" class="node"><title>RIS</title>
<g id="a_node16"><a xlink:href="technology_environment.html#radiology-information-systems-ris" xlink:title="Radiology Information System (RIS)">
<polygon fill="#fefece" stroke="#a80036" points="310.5,-140 101.5,-140 101.5,-104 310.5,-104 310.5,-140"/>
<text text-anchor="middle" x="206" y="-118.9" font-family="SansSerif" font-size="12.00">Radiology Information System (RIS)</text>
</a>
</g>
</g>
<!-- PACS&#45;&gt;RIS -->
<g id="edge7" class="edge"><title>PACS&#45;&gt;RIS</title>
<path fill="none" stroke="#a80036" d="M188.685,-68.3034C192.251,-79.1537 196.827,-93.0833 200.38,-103.896"/>
</g>
<!-- RIS&#45;&gt;DS -->
<g id="edge1" class="edge"><title>RIS&#45;&gt;DS</title>
<path fill="none" stroke="#a80036" d="M247.231,-140.024C274.736,-150.656 311.964,-163.674 346,-171 409.474,-184.662 483.063,-190.858 536.728,-193.668"/>
<polygon fill="none" stroke="#a80036" points="536.686,-197.17 546.847,-194.17 537.033,-190.179 536.686,-197.17"/>
</g>
<!-- ED -->
<g id="node17" class="node"><title>ED</title>
<g id="a_node17"><a xlink:href="technology_environment.html#emergency-department-systems" xlink:title="ED System">
<polygon fill="#fefece" stroke="#a80036" points="509,-140 435,-140 435,-104 509,-104 509,-140"/>
<text text-anchor="middle" x="472" y="-118.9" font-family="SansSerif" font-size="12.00">ED System</text>
</a>
</g>
</g>
<!-- ED&#45;&gt;DS -->
<g id="edge5" class="edge"><title>ED&#45;&gt;DS</title>
<path fill="none" stroke="#a80036" d="M485.759,-140.362C494.769,-150.651 507.371,-163.168 521,-171 526.096,-173.929 531.551,-176.528 537.164,-178.831"/>
<polygon fill="none" stroke="#a80036" points="536.133,-182.183 546.724,-182.436 538.602,-175.633 536.133,-182.183"/>
</g>
</g>
</svg>
