<?xml version="1.0" encoding="UTF-8" standalone="no"?><svg xmlns="http://www.w3.org/2000/svg" xmlns:xlink="http://www.w3.org/1999/xlink" contentScriptType="application/ecmascript" contentStyleType="text/css" height="657px" preserveAspectRatio="none" style="width:1025px;height:657px;" version="1.1" viewBox="0 0 1025 657" width="1025px" zoomAndPan="magnify"><defs><filter height="300%" id="fk92l9r394qp0" width="300%" x="-1" y="-1"><feGaussianBlur result="blurOut" stdDeviation="2.0"/><feColorMatrix in="blurOut" result="blurOut2" type="matrix" values="0 0 0 0 0 0 0 0 0 0 0 0 0 0 0 0 0 0 .4 0"/><feOffset dx="4.0" dy="4.0" in="blurOut2" result="blurOut3"/><feBlend in="SourceGraphic" in2="blurOut3" mode="normal"/></filter></defs><g><rect fill="#FFFFFF" filter="url(#fk92l9r394qp0)" height="78.3984" style="stroke: #A80036; stroke-width: 1.0;" width="10" x="109.5" y="125.4297"/><rect fill="#FFFFFF" filter="url(#fk92l9r394qp0)" height="78.3984" style="stroke: #A80036; stroke-width: 1.0;" width="10" x="109.5" y="125.4297"/><rect fill="#FFFFFF" filter="url(#fk92l9r394qp0)" height="14" style="stroke: #A80036; stroke-width: 1.0;" width="10" x="387.5" y="189.8281"/><rect fill="#FFFFFF" filter="url(#fk92l9r394qp0)" height="14" style="stroke: #A80036; stroke-width: 1.0;" width="10" x="387.5" y="263.2266"/><rect fill="#FFFFFF" filter="url(#fk92l9r394qp0)" height="14" style="stroke: #A80036; stroke-width: 1.0;" width="10" x="387.5" y="336.625"/><rect fill="#FFFFFF" filter="url(#fk92l9r394qp0)" height="14" style="stroke: #A80036; stroke-width: 1.0;" width="10" x="387.5" y="394.8906"/><rect fill="#FFFFFF" filter="url(#fk92l9r394qp0)" height="28" style="stroke: #A80036; stroke-width: 1.0;" width="10" x="392.5" y="461.1563"/><rect fill="#FFFFFF" filter="url(#fk92l9r394qp0)" height="28" style="stroke: #A80036; stroke-width: 1.0;" width="10" x="392.5" y="461.1563"/><rect fill="#FFFFFF" filter="url(#fk92l9r394qp0)" height="14" style="stroke: #A80036; stroke-width: 1.0;" width="10" x="387.5" y="525.2891"/><rect fill="#FFFFFF" filter="url(#fk92l9r394qp0)" height="29.1328" style="stroke: #A80036; stroke-width: 1.0;" width="10" x="387.5" y="598.6875"/><rect fill="#FFFFFF" filter="url(#fk92l9r394qp0)" height="14" style="stroke: #A80036; stroke-width: 1.0;" width="10" x="653.5" y="263.2266"/><rect fill="#FFFFFF" filter="url(#fk92l9r394qp0)" height="14" style="stroke: #A80036; stroke-width: 1.0;" width="10" x="763.5" y="336.625"/><rect fill="#FFFFFF" filter="url(#fk92l9r394qp0)" height="14" style="stroke: #A80036; stroke-width: 1.0;" width="10" x="826" y="394.8906"/><rect fill="#FFFFFF" filter="url(#fk92l9r394qp0)" height="14" style="stroke: #A80036; stroke-width: 1.0;" width="10" x="943.5" y="525.2891"/><rect fill="#FFFFFF" filter="url(#fk92l9r394qp0)" height="29.1328" style="stroke: #A80036; stroke-width: 1.0;" width="10" x="943.5" y="598.6875"/><line style="stroke: #A80036; stroke-width: 1.0; stroke-dasharray: 5.0,5.0;" x1="109" x2="109" y1="86.2969" y2="645.8203"/><line style="stroke: #A80036; stroke-width: 1.0; stroke-dasharray: 5.0,5.0;" x1="392.5" x2="392.5" y1="86.2969" y2="645.8203"/><line style="stroke: #A80036; stroke-width: 1.0; stroke-dasharray: 5.0,5.0;" x1="658" x2="658" y1="86.2969" y2="645.8203"/><line style="stroke: #A80036; stroke-width: 1.0; stroke-dasharray: 5.0,5.0;" x1="768" x2="768" y1="86.2969" y2="645.8203"/><line style="stroke: #A80036; stroke-width: 1.0; stroke-dasharray: 5.0,5.0;" x1="831" x2="831" y1="86.2969" y2="645.8203"/><line style="stroke: #A80036; stroke-width: 1.0; stroke-dasharray: 5.0,5.0;" x1="948" x2="948" y1="86.2969" y2="645.8203"/><text fill="#000000" font-family="sans-serif" font-size="14" lengthAdjust="spacingAndGlyphs" textLength="197" x="8" y="82.9951">ICU/Central Monitoring System</text><ellipse cx="109.5" cy="13" fill="#FEFECE" filter="url(#fk92l9r394qp0)" rx="8" ry="8" style="stroke: #A80036; stroke-width: 2.0;"/><path d="M109.5,21 L109.5,48 M96.5,29 L122.5,29 M109.5,48 L96.5,63 M109.5,48 L122.5,63 " fill="none" filter="url(#fk92l9r394qp0)" style="stroke: #A80036; stroke-width: 2.0;"/><text fill="#000000" font-family="sans-serif" font-size="14" lengthAdjust="spacingAndGlyphs" textLength="116" x="331.5" y="82.9951">Measure Collector</text><ellipse cx="392.5" cy="13" fill="#FEFECE" filter="url(#fk92l9r394qp0)" rx="8" ry="8" style="stroke: #A80036; stroke-width: 2.0;"/><path d="M392.5,21 L392.5,48 M379.5,29 L405.5,29 M392.5,48 L379.5,63 M392.5,48 L405.5,63 " fill="none" filter="url(#fk92l9r394qp0)" style="stroke: #A80036; stroke-width: 2.0;"/><text fill="#000000" font-family="sans-serif" font-size="14" lengthAdjust="spacingAndGlyphs" textLength="163" x="574" y="82.9951">Bed Management System</text><ellipse cx="658.5" cy="13" fill="#FEFECE" filter="url(#fk92l9r394qp0)" rx="8" ry="8" style="stroke: #A80036; stroke-width: 2.0;"/><path d="M658.5,21 L658.5,48 M645.5,29 L671.5,29 M658.5,48 L645.5,63 M658.5,48 L671.5,63 " fill="none" filter="url(#fk92l9r394qp0)" style="stroke: #A80036; stroke-width: 2.0;"/><text fill="#000000" font-family="sans-serif" font-size="14" lengthAdjust="spacingAndGlyphs" textLength="25" x="753" y="82.9951">EHR</text><ellipse cx="768.5" cy="13" fill="#FEFECE" filter="url(#fk92l9r394qp0)" rx="8" ry="8" style="stroke: #A80036; stroke-width: 2.0;"/><path d="M768.5,21 L768.5,48 M755.5,29 L781.5,29 M768.5,48 L755.5,63 M768.5,48 L781.5,63 " fill="none" filter="url(#fk92l9r394qp0)" style="stroke: #A80036; stroke-width: 2.0;"/><text fill="#000000" font-family="sans-serif" font-size="14" lengthAdjust="spacingAndGlyphs" textLength="68" x="794" y="82.9951">ED System</text><ellipse cx="831" cy="13" fill="#FEFECE" filter="url(#fk92l9r394qp0)" rx="8" ry="8" style="stroke: #A80036; stroke-width: 2.0;"/><path d="M831,21 L831,48 M818,29 L844,29 M831,48 L818,63 M831,48 L844,63 " fill="none" filter="url(#fk92l9r394qp0)" style="stroke: #A80036; stroke-width: 2.0;"/><text fill="#000000" font-family="sans-serif" font-size="14" lengthAdjust="spacingAndGlyphs" textLength="135" x="878" y="82.9951">Public Health Agency</text><ellipse cx="948.5" cy="13" fill="#FEFECE" filter="url(#fk92l9r394qp0)" rx="8" ry="8" style="stroke: #A80036; stroke-width: 2.0;"/><path d="M948.5,21 L948.5,48 M935.5,29 L961.5,29 M948.5,48 L935.5,63 M948.5,48 L961.5,63 " fill="none" filter="url(#fk92l9r394qp0)" style="stroke: #A80036; stroke-width: 2.0;"/><rect fill="#FFFFFF" filter="url(#fk92l9r394qp0)" height="78.3984" style="stroke: #A80036; stroke-width: 1.0;" width="10" x="109.5" y="125.4297"/><rect fill="#FFFFFF" filter="url(#fk92l9r394qp0)" height="78.3984" style="stroke: #A80036; stroke-width: 1.0;" width="10" x="109.5" y="125.4297"/><rect fill="#FFFFFF" filter="url(#fk92l9r394qp0)" height="14" style="stroke: #A80036; stroke-width: 1.0;" width="10" x="387.5" y="189.8281"/><rect fill="#FFFFFF" filter="url(#fk92l9r394qp0)" height="14" style="stroke: #A80036; stroke-width: 1.0;" width="10" x="387.5" y="263.2266"/><rect fill="#FFFFFF" filter="url(#fk92l9r394qp0)" height="14" style="stroke: #A80036; stroke-width: 1.0;" width="10" x="387.5" y="336.625"/><rect fill="#FFFFFF" filter="url(#fk92l9r394qp0)" height="14" style="stroke: #A80036; stroke-width: 1.0;" width="10" x="387.5" y="394.8906"/><rect fill="#FFFFFF" filter="url(#fk92l9r394qp0)" height="28" style="stroke: #A80036; stroke-width: 1.0;" width="10" x="392.5" y="461.1563"/><rect fill="#FFFFFF" filter="url(#fk92l9r394qp0)" height="28" style="stroke: #A80036; stroke-width: 1.0;" width="10" x="392.5" y="461.1563"/><rect fill="#FFFFFF" filter="url(#fk92l9r394qp0)" height="14" style="stroke: #A80036; stroke-width: 1.0;" width="10" x="387.5" y="525.2891"/><rect fill="#FFFFFF" filter="url(#fk92l9r394qp0)" height="29.1328" style="stroke: #A80036; stroke-width: 1.0;" width="10" x="387.5" y="598.6875"/><rect fill="#FFFFFF" filter="url(#fk92l9r394qp0)" height="14" style="stroke: #A80036; stroke-width: 1.0;" width="10" x="653.5" y="263.2266"/><rect fill="#FFFFFF" filter="url(#fk92l9r394qp0)" height="14" style="stroke: #A80036; stroke-width: 1.0;" width="10" x="763.5" y="336.625"/><rect fill="#FFFFFF" filter="url(#fk92l9r394qp0)" height="14" style="stroke: #A80036; stroke-width: 1.0;" width="10" x="826" y="394.8906"/><rect fill="#FFFFFF" filter="url(#fk92l9r394qp0)" height="14" style="stroke: #A80036; stroke-width: 1.0;" width="10" x="943.5" y="525.2891"/><rect fill="#FFFFFF" filter="url(#fk92l9r394qp0)" height="29.1328" style="stroke: #A80036; stroke-width: 1.0;" width="10" x="943.5" y="598.6875"/><line style="stroke: #A80036; stroke-width: 1.0;" x1="109.5" x2="156.5" y1="112.4297" y2="112.4297"/><line style="stroke: #A80036; stroke-width: 1.0;" x1="156.5" x2="156.5" y1="112.4297" y2="125.4297"/><line style="stroke: #A80036; stroke-width: 1.0;" x1="115.5" x2="156.5" y1="125.4297" y2="125.4297"/><polygon fill="#A80036" points="125.5,121.4297,115.5,125.4297,125.5,129.4297,121.5,125.4297" style="stroke: #A80036; stroke-width: 1.0;"/><text fill="#000000" font-family="sans-serif" font-size="13" lengthAdjust="spacingAndGlyphs" textLength="269" x="121.5" y="107.3638">1. ICU/Central Monitoring System collects data</text><polygon fill="#A80036" points="375.5,185.8281,385.5,189.8281,375.5,193.8281,379.5,189.8281" style="stroke: #A80036; stroke-width: 1.0;"/><line style="stroke: #A80036; stroke-width: 1.0;" x1="119.5" x2="381.5" y1="189.8281" y2="189.8281"/><text fill="#000000" font-family="sans-serif" font-size="13" lengthAdjust="spacingAndGlyphs" textLength="243" x="126.5" y="154.4966">2. ICU/Central Monitoring System Reports</text><text fill="#000000" font-family="sans-serif" font-size="13" lengthAdjust="spacingAndGlyphs" textLength="151" x="126.5" y="169.6294">on multiple data elements</text><text fill="#000000" font-family="sans-serif" font-size="13" lengthAdjust="spacingAndGlyphs" textLength="133" x="126.5" y="184.7622">(measure populations)</text><polygon fill="#A80036" points="120.5,199.8281,110.5,203.8281,120.5,207.8281,116.5,203.8281" style="stroke: #A80036; stroke-width: 1.0;"/><line style="stroke: #A80036; stroke-width: 1.0; stroke-dasharray: 2.0,2.0;" x1="114.5" x2="391.5" y1="203.8281" y2="203.8281"/><polygon fill="#A80036" points="408.5,259.2266,398.5,263.2266,408.5,267.2266,404.5,263.2266" style="stroke: #A80036; stroke-width: 1.0;"/><line style="stroke: #A80036; stroke-width: 1.0;" x1="402.5" x2="652.5" y1="263.2266" y2="263.2266"/><text fill="#000000" font-family="sans-serif" font-size="13" lengthAdjust="spacingAndGlyphs" textLength="209" x="414.5" y="227.895">3. Bed Management System Reports</text><text fill="#000000" font-family="sans-serif" font-size="13" lengthAdjust="spacingAndGlyphs" textLength="151" x="414.5" y="243.0278">on multiple data elements</text><text fill="#000000" font-family="sans-serif" font-size="13" lengthAdjust="spacingAndGlyphs" textLength="133" x="414.5" y="258.1606">(measure populations)</text><polygon fill="#A80036" points="646.5,273.2266,656.5,277.2266,646.5,281.2266,650.5,277.2266" style="stroke: #A80036; stroke-width: 1.0;"/><line style="stroke: #A80036; stroke-width: 1.0; stroke-dasharray: 2.0,2.0;" x1="392.5" x2="652.5" y1="277.2266" y2="277.2266"/><polygon fill="#A80036" points="408.5,332.625,398.5,336.625,408.5,340.625,404.5,336.625" style="stroke: #A80036; stroke-width: 1.0;"/><line style="stroke: #A80036; stroke-width: 1.0;" x1="402.5" x2="762.5" y1="336.625" y2="336.625"/><text fill="#000000" font-family="sans-serif" font-size="13" lengthAdjust="spacingAndGlyphs" textLength="127" x="414.5" y="301.2935">4. EHR System reports</text><text fill="#000000" font-family="sans-serif" font-size="13" lengthAdjust="spacingAndGlyphs" textLength="151" x="414.5" y="316.4263">on multiple data elements</text><text fill="#000000" font-family="sans-serif" font-size="13" lengthAdjust="spacingAndGlyphs" textLength="133" x="414.5" y="331.5591">(measure populations)</text><polygon fill="#A80036" points="756.5,346.625,766.5,350.625,756.5,354.625,760.5,350.625" style="stroke: #A80036; stroke-width: 1.0;"/><line style="stroke: #A80036; stroke-width: 1.0; stroke-dasharray: 2.0,2.0;" x1="392.5" x2="762.5" y1="350.625" y2="350.625"/><polygon fill="#A80036" points="408.5,390.8906,398.5,394.8906,408.5,398.8906,404.5,394.8906" style="stroke: #A80036; stroke-width: 1.0;"/><line style="stroke: #A80036; stroke-width: 1.0;" x1="402.5" x2="825" y1="394.8906" y2="394.8906"/><text fill="#000000" font-family="sans-serif" font-size="13" lengthAdjust="spacingAndGlyphs" textLength="144" x="414.5" y="374.6919">5. The ED System reports</text><text fill="#000000" font-family="sans-serif" font-size="13" lengthAdjust="spacingAndGlyphs" textLength="251" x="414.5" y="389.8247">on patients in the ED and/or overflow area.</text><polygon fill="#A80036" points="819,404.8906,829,408.8906,819,412.8906,823,408.8906" style="stroke: #A80036; stroke-width: 1.0;"/><line style="stroke: #A80036; stroke-width: 1.0; stroke-dasharray: 2.0,2.0;" x1="392.5" x2="825" y1="408.8906" y2="408.8906"/><line style="stroke: #A80036; stroke-width: 1.0;" x1="397.5" x2="439.5" y1="453.1563" y2="453.1563"/><line style="stroke: #A80036; stroke-width: 1.0;" x1="439.5" x2="439.5" y1="453.1563" y2="466.1563"/><line style="stroke: #A80036; stroke-width: 1.0;" x1="398.5" x2="439.5" y1="466.1563" y2="466.1563"/><polygon fill="#A80036" points="408.5,462.1563,398.5,466.1563,408.5,470.1563,404.5,466.1563" style="stroke: #A80036; stroke-width: 1.0;"/><text fill="#000000" font-family="sans-serif" font-size="13" lengthAdjust="spacingAndGlyphs" textLength="252" x="404.5" y="432.9575">6. Measure Collector aggregates reports for</text><text fill="#000000" font-family="sans-serif" font-size="13" lengthAdjust="spacingAndGlyphs" textLength="224" x="404.5" y="448.0903">transmission to a Public Health Agency</text><polygon fill="#A80036" points="931.5,521.2891,941.5,525.2891,931.5,529.2891,935.5,525.2891" style="stroke: #A80036; stroke-width: 1.0;"/><line style="stroke: #A80036; stroke-width: 1.0;" x1="397.5" x2="937.5" y1="525.2891" y2="525.2891"/><text fill="#000000" font-family="sans-serif" font-size="13" lengthAdjust="spacingAndGlyphs" textLength="258" x="404.5" y="520.2231">7. Transmit Aggregated MeasureReport Data</text><polygon fill="#A80036" points="403.5,535.2891,393.5,539.2891,403.5,543.2891,399.5,539.2891" style="stroke: #A80036; stroke-width: 1.0;"/><line style="stroke: #A80036; stroke-width: 1.0; stroke-dasharray: 2.0,2.0;" x1="397.5" x2="947.5" y1="539.2891" y2="539.2891"/><polygon fill="#A80036" points="408.5,594.6875,398.5,598.6875,408.5,602.6875,404.5,598.6875" style="stroke: #A80036; stroke-width: 1.0;"/><line style="stroke: #A80036; stroke-width: 1.0;" x1="402.5" x2="942.5" y1="598.6875" y2="598.6875"/><text fill="#000000" font-family="sans-serif" font-size="13" lengthAdjust="spacingAndGlyphs" textLength="214" x="414.5" y="563.356">8. A Public Health Agency queries the</text><text fill="#000000" font-family="sans-serif" font-size="13" lengthAdjust="spacingAndGlyphs" textLength="162" x="414.5" y="578.4888">hospitals Measure Collector</text><text fill="#000000" font-family="sans-serif" font-size="13" lengthAdjust="spacingAndGlyphs" textLength="160" x="414.5" y="593.6216">for the most recent reports.</text><polygon fill="#A80036" points="936.5,623.8203,946.5,627.8203,936.5,631.8203,940.5,627.8203" style="stroke: #A80036; stroke-width: 1.0;"/><line style="stroke: #A80036; stroke-width: 1.0; stroke-dasharray: 2.0,2.0;" x1="392.5" x2="942.5" y1="627.8203" y2="627.8203"/><text fill="#000000" font-family="sans-serif" font-size="13" lengthAdjust="spacingAndGlyphs" textLength="258" x="399.5" y="622.7544">9. Transmit Aggregated MeasureReport Data</text><!--
@startuml
hide footbox
actor "ICU/Central Monitoring System"
actor "Measure Collector"
actor "Bed Management System"
actor "EHR"
actor "ED System"
actor "Public Health Agency"
"ICU/Central Monitoring System" -> "ICU/Central Monitoring System" : 1. ICU/Central Monitoring System collects data
activate "ICU/Central Monitoring System"
activate "ICU/Central Monitoring System"
"ICU/Central Monitoring System" -> "Measure Collector" : 2. ICU/Central Monitoring System Reports\non multiple data elements\n(measure populations)
activate "Measure Collector"
return
deactivate "Measure Collector"
deactivate "ICU/Central Monitoring System"
deactivate "ICU/Central Monitoring System"
"Bed Management System" -> "Measure Collector" : 3. Bed Management System Reports\non multiple data elements\n(measure populations)
activate "Bed Management System"
activate "Measure Collector"
return
deactivate "Bed Management System"
deactivate "Measure Collector"
"EHR" -> "Measure Collector" : 4. EHR System reports\non multiple data elements\n(measure populations)
activate "EHR"
activate "Measure Collector"
return
deactivate "EHR"
deactivate "Measure Collector"
"ED System" -> "Measure Collector" : 5. The ED System reports\non patients in the ED and/or overflow area.
activate "ED System"
activate "Measure Collector"
return
deactivate "ED System"
deactivate "Measure Collector"
"Measure Collector" -> "Measure Collector" : 6. Measure Collector aggregates reports for\ntransmission to a Public Health Agency
activate "Measure Collector"
activate "Measure Collector"
deactivate "Measure Collector"
deactivate "Measure Collector"
"Measure Collector" -> "Public Health Agency" : 7. Transmit Aggregated MeasureReport Data
activate "Measure Collector"
activate "Public Health Agency"
return
deactivate "Measure Collector"
deactivate "Public Health Agency"
"Public Health Agency" -> "Measure Collector" : 8. A Public Health Agency queries the\nhospitals Measure Collector\nfor the most recent reports.
activate "Public Health Agency"
activate "Measure Collector"
"Measure Collector" - -> "Public Health Agency" : 9. Transmit Aggregated MeasureReport Data
deactivate "Public Health Agency"
deactivate "Measure Collector"
@enduml

PlantUML version 1.2019.08(Sat Jul 13 19:25:14 GMT 2019)
(GPL source distribution)
Java Runtime: OpenJDK Runtime Environment
JVM: OpenJDK 64-Bit Server VM
Java Version: 14-ea+33
Operating System: Linux
OS Version: 5.4.0-1041-azure
Default Encoding: UTF-8
Language: en
Country: US
--></g></svg>