<?xml version="1.0" encoding="UTF-8" standalone="no"?><svg xmlns="http://www.w3.org/2000/svg" xmlns:xlink="http://www.w3.org/1999/xlink" contentScriptType="application/ecmascript" contentStyleType="text/css" height="344px" preserveAspectRatio="none" style="width:1664px;height:344px;" version="1.1" viewBox="0 0 1664 344" width="1664px" zoomAndPan="magnify"><defs/><g><!--cluster Actors--><polygon fill="#FFFFFF" points="22,40,73,40,80,63.6094,692,63.6094,692,335,22,335,22,40" style="stroke: #FFFFFF; stroke-width: 2.0;"/><line style="stroke: #FFFFFF; stroke-width: 2.0;" x1="22" x2="80" y1="63.6094" y2="63.6094"/><text fill="#FFFFFF" font-family="sans-serif" font-size="14" font-weight="bold" lengthAdjust="spacingAndGlyphs" textLength="45" x="26" y="56.5332">Actors</text><!--cluster MeasureIntermediary--><rect fill="#FFFFFF" height="106" style="stroke: #000000; stroke-width: 2.0;" width="370" x="724" y="32"/><text fill="#000000" font-family="sans-serif" font-size="14" font-weight="bold" lengthAdjust="spacingAndGlyphs" textLength="154" x="832" y="48.5332">Measure Intermediary</text><!--cluster MeasureComputer--><rect fill="#FFFFFF" height="106" style="stroke: #000000; stroke-width: 2.0;" width="678" x="724" y="237"/><text fill="#000000" font-family="sans-serif" font-size="14" font-weight="bold" lengthAdjust="spacingAndGlyphs" textLength="135" x="995.5" y="253.5332">Measure Computer</text><!--entity MeasureSource--><rect fill="#FEFECE" height="37.6094" style="stroke: #A80036; stroke-width: 1.5;" width="124" x="339" y="76"/><text fill="#000000" font-family="sans-serif" font-size="14" lengthAdjust="spacingAndGlyphs" textLength="104" x="349" y="100.5332">Measure Source</text><!--entity MeasureConsumer--><rect fill="#FEFECE" height="37.6094" style="stroke: #A80036; stroke-width: 1.5;" width="144" x="281" y="281"/><text fill="#000000" font-family="sans-serif" font-size="14" lengthAdjust="spacingAndGlyphs" textLength="124" x="291" y="305.5332">Measure Consumer</text><!--entity MeasureDefinitionSource--><rect fill="#FEFECE" height="37.6094" style="stroke: #A80036; stroke-width: 1.5;" width="187" x="43.5" y="76"/><text fill="#000000" font-family="sans-serif" font-size="14" lengthAdjust="spacingAndGlyphs" textLength="167" x="53.5" y="100.5332">Measure Definition Source</text><!--entity MeasureDefinitionConsumer--><rect fill="#FEFECE" height="37.6094" style="stroke: #A80036; stroke-width: 1.5;" width="207" x="38.5" y="281"/><text fill="#000000" font-family="sans-serif" font-size="14" lengthAdjust="spacingAndGlyphs" textLength="187" x="48.5" y="305.5332">Measure Definition Consumer</text><!--entity MeasureSourced3e437--><rect fill="#FEFECE" height="37.6094" style="stroke: #A80036; stroke-width: 1.5;" width="124" x="946" y="76"/><text fill="#000000" font-family="sans-serif" font-size="14" lengthAdjust="spacingAndGlyphs" textLength="104" x="956" y="100.5332">Measure Source</text><!--entity MeasureConsumerd3e437--><rect fill="#FEFECE" height="37.6094" style="stroke: #A80036; stroke-width: 1.5;" width="144" x="767" y="76"/><text fill="#000000" font-family="sans-serif" font-size="14" lengthAdjust="spacingAndGlyphs" textLength="124" x="777" y="100.5332">Measure Consumer</text><!--entity MeasureSourced3e522--><rect fill="#FEFECE" height="37.6094" style="stroke: #A80036; stroke-width: 1.5;" width="124" x="1254" y="281"/><text fill="#000000" font-family="sans-serif" font-size="14" lengthAdjust="spacingAndGlyphs" textLength="104" x="1264" y="305.5332">Measure Source</text><!--entity MeasureDefinitionConsumerd3e522--><rect fill="#FEFECE" height="37.6094" style="stroke: #A80036; stroke-width: 1.5;" width="207" x="1011.5" y="281"/><text fill="#000000" font-family="sans-serif" font-size="14" lengthAdjust="spacingAndGlyphs" textLength="187" x="1021.5" y="305.5332">Measure Definition Consumer</text><path d="M396.74,114.015 C387.654,152.441 366.458,242.086 357.319,280.7337 " fill="none" style="stroke: #A80036; stroke-width: 1.0;"/><text fill="#000000" font-family="sans-serif" font-size="13" lengthAdjust="spacingAndGlyphs" textLength="161" x="412.5" y="176.4951">Query Measure [PULL-TX] ↑</text><text fill="#000000" font-family="sans-serif" font-size="13" lengthAdjust="spacingAndGlyphs" textLength="178" x="404" y="192.8467">Produce Measure [PUSH-TX] ↓</text><text fill="#000000" font-family="sans-serif" font-size="13" lengthAdjust="spacingAndGlyphs" textLength="214" x="386" y="209.1982">Compute Measure [COMPUTE-MX] ↕</text><path d="M398.357,280.9998 C429.462,275.3463 460,281.6797 460,300 C460,318.3203 429.462,324.6537 398.357,319.0002 " fill="none" style="stroke: #A80036; stroke-width: 1.0;"/><text fill="#000000" font-family="sans-serif" font-size="13" lengthAdjust="spacingAndGlyphs" textLength="221" x="466" y="305.4951">Communicate Results [REPORT-TX] ↕</text><path d="M135.95,114.201 C135.24,127.452 134.367,145.831 134,162 C133.485,184.661 132.949,190.358 134,213 C135.091,236.517 137.853,263.535 139.826,280.9142 " fill="none" style="stroke: #A80036; stroke-width: 1.0;"/><text fill="#000000" font-family="sans-serif" font-size="13" lengthAdjust="spacingAndGlyphs" textLength="222" x="135" y="192.9951">Query Measure Definition [PULL-MX] ↑</text><path d="M1408,299.3489 C1419.876,272.0017 1443.082,272.2187 1443.082,300 C1443.082,327.7812 1419.876,327.9983 1408,300.6511 " fill="none" style="stroke: #A80036; stroke-width: 1.0;"/><text fill="#000000" font-family="sans-serif" font-size="13" lengthAdjust="spacingAndGlyphs" textLength="214" x="1449.082" y="305.4951">Compute Measure [COMPUTE-MX] ↕</text></g></svg>