<?xml version="1.0" encoding="UTF-8" standalone="no"?><svg xmlns="http://www.w3.org/2000/svg" xmlns:xlink="http://www.w3.org/1999/xlink" contentScriptType="application/ecmascript" contentStyleType="text/css" height="591px" preserveAspectRatio="none" style="width:1020px;height:591px;" version="1.1" viewBox="0 0 1020 591" width="1020px" zoomAndPan="magnify"><defs/><g><!--cluster Actors--><polygon fill="#FFFFFF" points="22,351,73,351,80,374.6094,692,374.6094,692,590,22,590,22,351" style="stroke: #FFFFFF; stroke-width: 2.0;"/><line style="stroke: #FFFFFF; stroke-width: 2.0;" x1="22" x2="80" y1="374.6094" y2="374.6094"/><text fill="#FFFFFF" font-family="sans-serif" font-size="14" font-weight="bold" lengthAdjust="spacingAndGlyphs" textLength="45" x="26" y="367.5332">Actors</text><!--cluster MeasureIntermediary--><rect fill="#FFFFFF" height="106" style="stroke: #000000; stroke-width: 2.0;" width="370" x="80" y="32"/><text fill="#000000" font-family="sans-serif" font-size="14" font-weight="bold" lengthAdjust="spacingAndGlyphs" textLength="154" x="188" y="48.5332">Measure Intermediary</text><!--cluster MeasureComputer--><rect fill="#FFFFFF" height="106" style="stroke: #000000; stroke-width: 2.0;" width="678" x="80" y="187"/><text fill="#000000" font-family="sans-serif" font-size="14" font-weight="bold" lengthAdjust="spacingAndGlyphs" textLength="135" x="351.5" y="203.5332">Measure Computer</text><!--entity MeasureSource--><rect fill="#FEFECE" height="37.6094" style="stroke: #A80036; stroke-width: 1.5;" width="124" x="395" y="387"/><text fill="#000000" font-family="sans-serif" font-size="14" lengthAdjust="spacingAndGlyphs" textLength="104" x="405" y="411.5332">Measure Source</text><!--entity MeasureConsumer--><rect fill="#FEFECE" height="37.6094" style="stroke: #A80036; stroke-width: 1.5;" width="144" x="281" y="536"/><text fill="#000000" font-family="sans-serif" font-size="14" lengthAdjust="spacingAndGlyphs" textLength="124" x="291" y="560.5332">Measure Consumer</text><!--entity MeasureDefinitionSource--><rect fill="#FEFECE" height="37.6094" style="stroke: #A80036; stroke-width: 1.5;" width="187" x="172.5" y="387"/><text fill="#000000" font-family="sans-serif" font-size="14" lengthAdjust="spacingAndGlyphs" textLength="167" x="182.5" y="411.5332">Measure Definition Source</text><!--entity MeasureDefinitionConsumer--><rect fill="#FEFECE" height="37.6094" style="stroke: #A80036; stroke-width: 1.5;" width="207" x="38.5" y="536"/><text fill="#000000" font-family="sans-serif" font-size="14" lengthAdjust="spacingAndGlyphs" textLength="187" x="48.5" y="560.5332">Measure Definition Consumer</text><!--entity DataSource--><rect fill="#FEFECE" height="37.6094" style="stroke: #A80036; stroke-width: 1.5;" width="99" x="38.5" y="387"/><text fill="#000000" font-family="sans-serif" font-size="14" lengthAdjust="spacingAndGlyphs" textLength="79" x="48.5" y="411.5332">Data Source</text><!--entity MeasureSourced3e542--><rect fill="#FEFECE" height="37.6094" style="stroke: #A80036; stroke-width: 1.5;" width="124" x="302" y="76"/><text fill="#000000" font-family="sans-serif" font-size="14" lengthAdjust="spacingAndGlyphs" textLength="104" x="312" y="100.5332">Measure Source</text><!--entity MeasureConsumerd3e542--><rect fill="#FEFECE" height="37.6094" style="stroke: #A80036; stroke-width: 1.5;" width="144" x="123" y="76"/><text fill="#000000" font-family="sans-serif" font-size="14" lengthAdjust="spacingAndGlyphs" textLength="124" x="133" y="100.5332">Measure Consumer</text><!--entity MeasureSourced3e628--><rect fill="#FEFECE" height="37.6094" style="stroke: #A80036; stroke-width: 1.5;" width="124" x="610" y="231"/><text fill="#000000" font-family="sans-serif" font-size="14" lengthAdjust="spacingAndGlyphs" textLength="104" x="620" y="255.5332">Measure Source</text><!--entity MeasureDefinitionConsumerd3e628--><rect fill="#FEFECE" height="37.6094" style="stroke: #A80036; stroke-width: 1.5;" width="207" x="367.5" y="231"/><text fill="#000000" font-family="sans-serif" font-size="14" lengthAdjust="spacingAndGlyphs" textLength="187" x="377.5" y="255.5332">Measure Definition Consumer</text><path d="M444.103,425.25 C430.062,445.117 406.942,477.821 387,506 C380.039,515.8363 372.271,526.803 365.92,535.7681 " fill="none" style="stroke: #A80036; stroke-width: 1.0;"/><text fill="#000000" font-family="sans-serif" font-size="13" lengthAdjust="spacingAndGlyphs" textLength="161" x="448.5" y="469.4951">Query Measure [PULL-TX] ↑</text><text fill="#000000" font-family="sans-serif" font-size="13" lengthAdjust="spacingAndGlyphs" textLength="178" x="440" y="485.8467">Produce Measure [PUSH-TX] ↓</text><text fill="#000000" font-family="sans-serif" font-size="13" lengthAdjust="spacingAndGlyphs" textLength="214" x="422" y="502.1982">Compute Measure [COMPUTE-MX] ↕</text><path d="M425.012,541.2097 C444.844,541.8759 460,546.4727 460,555 C460,563.5273 444.844,568.1241 425.012,568.7903 " fill="none" style="stroke: #A80036; stroke-width: 1.0;"/><text fill="#000000" font-family="sans-serif" font-size="13" lengthAdjust="spacingAndGlyphs" textLength="221" x="466" y="560.4951">Communicate Results [REPORT-TX] ↕</text><path d="M194.519,425.123 C179.389,432.123 164.993,441.762 155,455 C137.245,478.521 137.338,514.4599 139.404,535.9521 " fill="none" style="stroke: #A80036; stroke-width: 1.0;"/><text fill="#000000" font-family="sans-serif" font-size="13" lengthAdjust="spacingAndGlyphs" textLength="222" x="156" y="485.9951">Query Measure Definition [PULL-MX] ↑</text><path d="M764,249.558 C775.8752,231.001 799.0816,231.148 799.0816,250 C799.0816,268.852 775.8752,268.999 764,250.442 " fill="none" style="stroke: #A80036; stroke-width: 1.0;"/><text fill="#000000" font-family="sans-serif" font-size="13" lengthAdjust="spacingAndGlyphs" textLength="214" x="805.0816" y="255.4951">Compute Measure [COMPUTE-MX] ↕</text><path d="M88,293.1098 C88,293.3191 88,293.5288 88,293.739 C88,294.1593 88,294.5813 88,295.0049 C88,298.3941 88,301.8885 88,305.4536 C88,333.9745 88,367.0215 88,386.952 " fill="none" style="stroke: #A80036; stroke-width: 1.0;"/><text fill="#000000" font-family="sans-serif" font-size="13" lengthAdjust="spacingAndGlyphs" textLength="214" x="89" y="331.4951">Compute Measure [COMPUTE-MX] ↓</text></g></svg>