<?xml version="1.0" encoding="UTF-8" standalone="no"?><svg xmlns="http://www.w3.org/2000/svg" xmlns:xlink="http://www.w3.org/1999/xlink" contentScriptType="application/ecmascript" contentStyleType="text/css" height="534px" preserveAspectRatio="none" style="width:1130px;height:534px;" version="1.1" viewBox="0 0 1130 534" width="1130px" zoomAndPan="magnify"><defs><filter height="300%" id="frzt9qn" width="300%" x="-1" y="-1"><feGaussianBlur result="blurOut" stdDeviation="2.0"/><feColorMatrix in="blurOut" result="blurOut2" type="matrix" values="0 0 0 0 0 0 0 0 0 0 0 0 0 0 0 0 0 0 .4 0"/><feOffset dx="4.0" dy="4.0" in="blurOut2" result="blurOut3"/><feBlend in="SourceGraphic" in2="blurOut3" mode="normal"/></filter></defs><g><text fill="#000000" font-family="sans-serif" font-size="18" lengthAdjust="spacingAndGlyphs" textLength="332" x="412.5" y="18.6855">Intermediaries enable multi-level reporting</text><!--cluster Hospital1--><rect fill="#FFFFFF" filter="url(#frzt9qn)" height="230" style="stroke: #000000; stroke-width: 2.0;" width="176" x="22" y="46.6406"/><text fill="#000000" font-family="sans-serif" font-size="14" font-weight="bold" lengthAdjust="spacingAndGlyphs" textLength="157" x="31.5" y="63.1738">Hospital EHR System A</text><!--cluster Hospital2--><rect fill="#FFFFFF" filter="url(#frzt9qn)" height="230" style="stroke: #000000; stroke-width: 2.0;" width="176" x="947" y="46.6406"/><text fill="#000000" font-family="sans-serif" font-size="14" font-weight="bold" lengthAdjust="spacingAndGlyphs" textLength="158" x="956" y="63.1738">Hospital EHR System B</text><!--cluster MiscData--><rect fill="#FFFFFF" filter="url(#frzt9qn)" height="90" style="stroke: #000000; stroke-width: 2.0;" width="366" x="288" y="46.6406"/><text fill="#000000" font-family="sans-serif" font-size="14" font-weight="bold" lengthAdjust="spacingAndGlyphs" textLength="161" x="390.5" y="63.1738">Alternate Data Sources</text><!--cluster HospitalGroup1--><rect fill="#FFFFFF" filter="url(#frzt9qn)" height="341" style="stroke: #000000; stroke-width: 2.0;" width="176" x="222" y="186.6406"/><text fill="#000000" font-family="sans-serif" font-size="14" font-weight="bold" lengthAdjust="spacingAndGlyphs" textLength="88" x="266" y="203.1738">Intermediary</text><!--cluster PublicHealth1--><rect fill="#FFFFFF" filter="url(#frzt9qn)" height="341" style="stroke: #000000; stroke-width: 2.0;" width="241" x="422" y="186.6406"/><text fill="#000000" font-family="sans-serif" font-size="14" font-weight="bold" lengthAdjust="spacingAndGlyphs" textLength="225" x="430" y="203.1738">Regional Public Health Authority</text><!--cluster NationalAgency1--><rect fill="#FFFFFF" filter="url(#frzt9qn)" height="341" style="stroke: #000000; stroke-width: 2.0;" width="236" x="687" y="186.6406"/><text fill="#000000" font-family="sans-serif" font-size="14" font-weight="bold" lengthAdjust="spacingAndGlyphs" textLength="220" x="695" y="203.1738">National Public Health Authority</text><!--entity MeasureSource1--><rect fill="#FEFECE" filter="url(#frzt9qn)" height="37.6094" style="stroke: #A80036; stroke-width: 1.5;" width="124" x="55" y="82.6406"/><text fill="#000000" font-family="sans-serif" font-size="14" lengthAdjust="spacingAndGlyphs" textLength="104" x="65" y="107.1738">Measure Source</text><!--entity MeasureConsumer1--><rect fill="#FEFECE" filter="url(#frzt9qn)" height="37.6094" style="stroke: #A80036; stroke-width: 1.5;" width="144" x="38" y="222.6406"/><text fill="#000000" font-family="sans-serif" font-size="14" lengthAdjust="spacingAndGlyphs" textLength="124" x="48" y="247.1738">Measure Consumer</text><!--entity MeasureSource2--><rect fill="#FEFECE" filter="url(#frzt9qn)" height="37.6094" style="stroke: #A80036; stroke-width: 1.5;" width="124" x="968" y="82.6406"/><text fill="#000000" font-family="sans-serif" font-size="14" lengthAdjust="spacingAndGlyphs" textLength="104" x="978" y="107.1738">Measure Source</text><!--entity MeasureConsumer2--><rect fill="#FEFECE" filter="url(#frzt9qn)" height="37.6094" style="stroke: #A80036; stroke-width: 1.5;" width="144" x="963" y="222.6406"/><text fill="#000000" font-family="sans-serif" font-size="14" lengthAdjust="spacingAndGlyphs" textLength="124" x="973" y="247.1738">Measure Consumer</text><!--entity MiscData1--><rect fill="#FEFECE" filter="url(#frzt9qn)" height="37.6094" style="stroke: #A80036; stroke-width: 1.5;" width="48" x="304" y="82.6406"/><text fill="#000000" font-family="sans-serif" font-size="14" lengthAdjust="spacingAndGlyphs" textLength="28" x="314" y="107.1738">CSV</text><!--entity MiscData2--><rect fill="#FEFECE" filter="url(#frzt9qn)" height="37.6094" style="stroke: #A80036; stroke-width: 1.5;" width="47" x="387.5" y="82.6406"/><text fill="#000000" font-family="sans-serif" font-size="14" lengthAdjust="spacingAndGlyphs" textLength="27" x="397.5" y="107.1738">XML</text><!--entity MiscData3--><rect fill="#FEFECE" filter="url(#frzt9qn)" height="37.6094" style="stroke: #A80036; stroke-width: 1.5;" width="55" x="469.5" y="82.6406"/><text fill="#000000" font-family="sans-serif" font-size="14" lengthAdjust="spacingAndGlyphs" textLength="35" x="479.5" y="107.1738">JSON</text><!--entity MiscData4--><rect fill="#FEFECE" filter="url(#frzt9qn)" height="37.6094" style="stroke: #A80036; stroke-width: 1.5;" width="78" x="560" y="82.6406"/><text fill="#000000" font-family="sans-serif" font-size="14" lengthAdjust="spacingAndGlyphs" textLength="58" x="570" y="107.1738">BulkFHIR</text><!--entity TransformProcess1--><rect fill="#FEFECE" filter="url(#frzt9qn)" height="37.6094" style="stroke: #A80036; stroke-width: 1.5;" width="140" x="242" y="222.6406"/><text fill="#000000" font-family="sans-serif" font-size="14" lengthAdjust="spacingAndGlyphs" textLength="120" x="252" y="247.1738">Transform Process</text><!--entity MeasureIntermediary1--><rect fill="#FEFECE" filter="url(#frzt9qn)" height="55.2188" style="stroke: #A80036; stroke-width: 1.5;" width="124" x="250" y="340.6406"/><text fill="#000000" font-family="sans-serif" font-size="14" lengthAdjust="spacingAndGlyphs" textLength="104" x="260" y="365.1738">Measure Source</text><text fill="#000000" font-family="sans-serif" font-size="14" lengthAdjust="spacingAndGlyphs" textLength="87" x="260" y="382.7832">(FHIR Server)</text><!--entity MeasureIntermediaryConsumer1--><rect fill="#FEFECE" filter="url(#frzt9qn)" height="37.6094" style="stroke: #A80036; stroke-width: 1.5;" width="144" x="238" y="473.6406"/><text fill="#000000" font-family="sans-serif" font-size="14" lengthAdjust="spacingAndGlyphs" textLength="124" x="248" y="498.1738">Measure Consumer</text><!--entity TransformProcess2--><rect fill="#FEFECE" filter="url(#frzt9qn)" height="37.6094" style="stroke: #A80036; stroke-width: 1.5;" width="140" x="438" y="222.6406"/><text fill="#000000" font-family="sans-serif" font-size="14" lengthAdjust="spacingAndGlyphs" textLength="120" x="448" y="247.1738">Transform Process</text><!--entity MeasureIntermediary2--><rect fill="#FEFECE" filter="url(#frzt9qn)" height="55.2188" style="stroke: #A80036; stroke-width: 1.5;" width="124" x="448" y="340.6406"/><text fill="#000000" font-family="sans-serif" font-size="14" lengthAdjust="spacingAndGlyphs" textLength="104" x="458" y="365.1738">Measure Source</text><text fill="#000000" font-family="sans-serif" font-size="14" lengthAdjust="spacingAndGlyphs" textLength="87" x="458" y="382.7832">(FHIR Server)</text><!--entity MeasureIntermediaryConsumer2--><rect fill="#FEFECE" filter="url(#frzt9qn)" height="37.6094" style="stroke: #A80036; stroke-width: 1.5;" width="144" x="438" y="473.6406"/><text fill="#000000" font-family="sans-serif" font-size="14" lengthAdjust="spacingAndGlyphs" textLength="124" x="448" y="498.1738">Measure Consumer</text><!--entity TransformProcess3--><rect fill="#FEFECE" filter="url(#frzt9qn)" height="37.6094" style="stroke: #A80036; stroke-width: 1.5;" width="140" x="703" y="222.6406"/><text fill="#000000" font-family="sans-serif" font-size="14" lengthAdjust="spacingAndGlyphs" textLength="120" x="713" y="247.1738">Transform Process</text><!--entity MeasureIntermediary3--><rect fill="#FEFECE" filter="url(#frzt9qn)" height="55.2188" style="stroke: #A80036; stroke-width: 1.5;" width="124" x="712" y="340.6406"/><text fill="#000000" font-family="sans-serif" font-size="14" lengthAdjust="spacingAndGlyphs" textLength="104" x="722" y="365.1738">Measure Source</text><text fill="#000000" font-family="sans-serif" font-size="14" lengthAdjust="spacingAndGlyphs" textLength="87" x="722" y="382.7832">(FHIR Server)</text><!--entity MeasureIntermediaryConsumer3--><rect fill="#FEFECE" filter="url(#frzt9qn)" height="37.6094" style="stroke: #A80036; stroke-width: 1.5;" width="144" x="703" y="473.6406"/><text fill="#000000" font-family="sans-serif" font-size="14" lengthAdjust="spacingAndGlyphs" textLength="124" x="713" y="498.1738">Measure Consumer</text><path d="M113.7,125.7346 C112.633,134.1816 111.577,143.8266 111,152.6406 C109.422,176.7296 109.411,204.6046 109.634,222.4166 " fill="none" style="stroke: #A80036; stroke-width: 1.0;"/><polygon fill="#A80036" points="114.362,120.6486,109.233,129.0566,113.7162,125.6067,117.166,130.0899,114.362,120.6486" style="stroke: #A80036; stroke-width: 1.0;"/><text fill="#000000" font-family="sans-serif" font-size="13" lengthAdjust="spacingAndGlyphs" textLength="22" x="112" y="167.1357">Pull</text><path d="M1030.84,125.8936 C1031.83,153.1676 1033.45,197.7986 1034.35,222.5946 " fill="none" style="stroke: #A80036; stroke-width: 1.0;"/><polygon fill="#A80036" points="1030.65,120.6816,1026.9799,129.8211,1030.8318,125.6783,1034.9746,129.5302,1030.65,120.6816" style="stroke: #A80036; stroke-width: 1.0;"/><text fill="#000000" font-family="sans-serif" font-size="13" lengthAdjust="spacingAndGlyphs" textLength="22" x="1033" y="167.1357">Pull</text><path d="M325.908,120.6816 C323.034,145.4766 317.859,190.1066 314.697,217.3826 " fill="none" style="stroke: #A80036; stroke-width: 1.0;"/><polygon fill="#A80036" points="314.092,222.5946,319.1016,214.115,314.6677,217.6279,311.1548,213.1939,314.092,222.5946" style="stroke: #A80036; stroke-width: 1.0;"/><text fill="#000000" font-family="sans-serif" font-size="13" lengthAdjust="spacingAndGlyphs" textLength="30" x="323" y="167.1357">Push</text><path d="M395.046,124.8796 C375.555,152.0496 342.957,197.4886 324.946,222.5946 " fill="none" style="stroke: #A80036; stroke-width: 1.0;"/><polygon fill="#A80036" points="398.057,120.6816,389.561,125.6634,395.1427,124.7445,396.0616,130.3262,398.057,120.6816" style="stroke: #A80036; stroke-width: 1.0;"/><text fill="#000000" font-family="sans-serif" font-size="13" lengthAdjust="spacingAndGlyphs" textLength="22" x="375" y="167.1357">Pull</text><path d="M498.854,125.8936 C501.028,153.1676 504.585,197.7986 506.562,222.5946 " fill="none" style="stroke: #A80036; stroke-width: 1.0;"/><polygon fill="#A80036" points="498.438,120.6816,495.1655,129.9709,498.8351,125.6658,503.1402,129.3355,498.438,120.6816" style="stroke: #A80036; stroke-width: 1.0;"/><text fill="#000000" font-family="sans-serif" font-size="13" lengthAdjust="spacingAndGlyphs" textLength="22" x="504" y="167.1357">Pull</text><path d="M621.747,120.6816 C653.792,146.0966 712.112,192.3496 746.212,219.3946 " fill="none" style="stroke: #A80036; stroke-width: 1.0;"/><polygon fill="#A80036" points="750.247,222.5946,745.6802,213.8686,746.3292,219.4881,740.7097,220.1371,750.247,222.5946" style="stroke: #A80036; stroke-width: 1.0;"/><text fill="#000000" font-family="sans-serif" font-size="13" lengthAdjust="spacingAndGlyphs" textLength="30" x="682" y="167.1357">Push</text><path d="M142.493,120.6816 C178.405,146.0966 243.763,192.3496 281.979,219.3946 " fill="none" style="stroke: #A80036; stroke-width: 1.0;"/><polygon fill="#A80036" points="286.501,222.5946,281.4635,214.1316,282.4191,219.7071,276.8435,220.6627,286.501,222.5946" style="stroke: #A80036; stroke-width: 1.0;"/><text fill="#000000" font-family="sans-serif" font-size="13" lengthAdjust="spacingAndGlyphs" textLength="95" x="210" y="167.1357">Push with Dump</text><path d="M962.705,121.3266 C900.534,137.6596 805.322,160.3296 721,170.6406 C688.012,174.6746 454.03,169.7756 422,178.6406 C390.097,187.4696 357.559,207.4546 336.235,222.3626 " fill="none" style="stroke: #A80036; stroke-width: 1.0;"/><polygon fill="#A80036" points="967.869,119.9646,958.1467,118.3907,963.0341,121.2391,960.1858,126.1265,967.869,119.9646" style="stroke: #A80036; stroke-width: 1.0;"/><text fill="#000000" font-family="sans-serif" font-size="13" lengthAdjust="spacingAndGlyphs" textLength="87" x="825" y="167.1357">Pull with Dump</text><path d="M312,260.7436 C312,280.1806 312,311.4476 312,335.0676 " fill="none" style="stroke: #A80036; stroke-width: 1.0;"/><polygon fill="#A80036" points="312,340.2876,316,331.2876,312,335.2876,308,331.2876,312,340.2876" style="stroke: #A80036; stroke-width: 1.0;"/><text fill="#000000" font-family="sans-serif" font-size="13" lengthAdjust="spacingAndGlyphs" textLength="30" x="313" y="307.1357">Push</text><path d="M311.483,400.8216 C311.106,423.8926 310.609,454.3275 310.297,473.4437 " fill="none" style="stroke: #A80036; stroke-width: 1.0;"/><polygon fill="#A80036" points="311.566,395.7216,307.4174,404.6541,311.4831,400.7209,315.4163,404.7867,311.566,395.7216" style="stroke: #A80036; stroke-width: 1.0;"/><text fill="#000000" font-family="sans-serif" font-size="13" lengthAdjust="spacingAndGlyphs" textLength="22" x="313" y="440.1357">Pull</text><path d="M479.5,260.7436 C447.77,280.8986 396.014,313.7746 358.421,337.6536 " fill="none" style="stroke: #A80036; stroke-width: 1.0;"/><polygon fill="#A80036" points="353.909,340.5196,363.6507,339.0705,358.1295,337.8388,359.3613,332.3176,353.909,340.5196" style="stroke: #A80036; stroke-width: 1.0;"/><text fill="#000000" font-family="sans-serif" font-size="13" lengthAdjust="spacingAndGlyphs" textLength="22" x="429" y="307.1357">Pull</text><path d="M508.291,260.7436 C508.603,280.1806 509.105,311.4476 509.485,335.0676 " fill="none" style="stroke: #A80036; stroke-width: 1.0;"/><polygon fill="#A80036" points="509.569,340.2876,513.4245,331.2248,509.489,335.2883,505.4255,331.3528,509.569,340.2876" style="stroke: #A80036; stroke-width: 1.0;"/><text fill="#000000" font-family="sans-serif" font-size="13" lengthAdjust="spacingAndGlyphs" textLength="30" x="511" y="307.1357">Push</text><path d="M510,400.8216 C510,423.8926 510,454.3275 510,473.4437 " fill="none" style="stroke: #A80036; stroke-width: 1.0;"/><polygon fill="#A80036" points="510,395.7216,506,404.7216,510,400.7216,514,404.7216,510,395.7216" style="stroke: #A80036; stroke-width: 1.0;"/><text fill="#000000" font-family="sans-serif" font-size="13" lengthAdjust="spacingAndGlyphs" textLength="22" x="511" y="440.1357">Pull</text><path d="M734.758,260.7436 C691.749,281.1036 621.319,314.4436 570.757,338.3786 " fill="none" style="stroke: #A80036; stroke-width: 1.0;"/><polygon fill="#A80036" points="566.235,340.5196,576.081,340.2837,570.7541,338.3801,572.6577,333.0531,566.235,340.5196" style="stroke: #A80036; stroke-width: 1.0;"/><text fill="#000000" font-family="sans-serif" font-size="13" lengthAdjust="spacingAndGlyphs" textLength="22" x="667" y="307.1357">Pull</text><path d="M773.145,260.7436 C773.302,280.1806 773.553,311.4476 773.742,335.0676 " fill="none" style="stroke: #A80036; stroke-width: 1.0;"/><polygon fill="#A80036" points="773.784,340.2876,777.7119,331.2559,773.744,335.2878,769.7121,331.3199,773.784,340.2876" style="stroke: #A80036; stroke-width: 1.0;"/><text fill="#000000" font-family="sans-serif" font-size="13" lengthAdjust="spacingAndGlyphs" textLength="30" x="775" y="307.1357">Push</text><path d="M774.259,400.8216 C774.447,423.8926 774.695,454.3275 774.851,473.4437 " fill="none" style="stroke: #A80036; stroke-width: 1.0;"/><polygon fill="#A80036" points="774.217,395.7216,770.2917,404.7545,774.2584,400.7215,778.2914,404.6882,774.217,395.7216" style="stroke: #A80036; stroke-width: 1.0;"/><text fill="#000000" font-family="sans-serif" font-size="13" lengthAdjust="spacingAndGlyphs" textLength="22" x="776" y="440.1357">Pull</text></g></svg>