<?xml version="1.0" encoding="UTF-8" standalone="no"?><svg xmlns="http://www.w3.org/2000/svg" xmlns:xlink="http://www.w3.org/1999/xlink" contentScriptType="application/ecmascript" contentStyleType="text/css" height="257px" preserveAspectRatio="none" style="width:640px;height:257px;" version="1.1" viewBox="0 0 640 257" width="640px" zoomAndPan="magnify"><defs><filter height="300%" id="fbx0z0c" width="300%" x="-1" y="-1"><feGaussianBlur result="blurOut" stdDeviation="2.0"/><feColorMatrix in="blurOut" result="blurOut2" type="matrix" values="0 0 0 0 0 0 0 0 0 0 0 0 0 0 0 0 0 0 .4 0"/><feOffset dx="4.0" dy="4.0" in="blurOut2" result="blurOut3"/><feBlend in="SourceGraphic" in2="blurOut3" mode="normal"/></filter></defs><g><!--entity Measure Source--><rect fill="#FEFECE" filter="url(#fbx0z0c)" height="37.6094" style="stroke: #A80036; stroke-width: 1.5;" width="124" x="6" y="8"/><text fill="#000000" font-family="sans-serif" font-size="14" lengthAdjust="spacingAndGlyphs" textLength="104" x="16" y="32.5332">Measure Source</text><!--entity Measure Consumer--><rect fill="#FEFECE" filter="url(#fbx0z0c)" height="37.6094" style="stroke: #A80036; stroke-width: 1.5;" width="144" x="165" y="8"/><text fill="#000000" font-family="sans-serif" font-size="14" lengthAdjust="spacingAndGlyphs" textLength="124" x="175" y="32.5332">Measure Consumer</text><!--entity External Storage--><rect fill="#FEFECE" filter="url(#fbx0z0c)" height="37.6094" rx="35" ry="35" style="stroke: #000000; stroke-width: 1.5;" width="125" x="344.5" y="8"/><text fill="#000000" font-family="sans-serif" font-size="14" lengthAdjust="spacingAndGlyphs" textLength="105" x="354.5" y="32.5332">External Storage</text><!--entity EHR System--><rect fill="#FEFECE" filter="url(#fbx0z0c)" height="37.6094" style="stroke: #A80036; stroke-width: 1.5;" width="98" x="505" y="8"/><text fill="#000000" font-family="sans-serif" font-size="14" lengthAdjust="spacingAndGlyphs" textLength="78" x="515" y="32.5332">EHR System</text><!--entity Interface Engine--><rect fill="#FEFECE" filter="url(#fbx0z0c)" height="37.6094" style="stroke: #A80036; stroke-width: 1.5;" width="123" x="6.5" y="110.5"/><text fill="#000000" font-family="sans-serif" font-size="14" lengthAdjust="spacingAndGlyphs" textLength="103" x="16.5" y="135.0332">Interface Engine</text><!--entity System Database--><path d="M164.5,116 C164.5,106 230,106 230,106 C230,106 295.5,106 295.5,116 L295.5,142.6094 C295.5,152.6094 230,152.6094 230,152.6094 C230,152.6094 164.5,152.6094 164.5,142.6094 L164.5,116 " fill="#FEFECE" filter="url(#fbx0z0c)" style="stroke: #000000; stroke-width: 1.5;"/><path d="M164.5,116 C164.5,126 230,126 230,126 C230,126 295.5,126 295.5,116 " fill="none" style="stroke: #000000; stroke-width: 1.5;"/><text fill="#000000" font-family="sans-serif" font-size="14" lengthAdjust="spacingAndGlyphs" textLength="111" x="174.5" y="144.5332">System Database</text><!--entity Bed Management--><rect fill="#FEFECE" filter="url(#fbx0z0c)" height="37.6094" style="stroke: #A80036; stroke-width: 1.5;" width="131" x="330.5" y="110.5"/><text fill="#000000" font-family="sans-serif" font-size="14" lengthAdjust="spacingAndGlyphs" textLength="111" x="340.5" y="135.0332">Bed Management</text><!--entity Central Monitoring--><rect fill="#FEFECE" filter="url(#fbx0z0c)" height="37.6094" style="stroke: #A80036; stroke-width: 1.5;" width="136" x="497" y="110.5"/><text fill="#000000" font-family="sans-serif" font-size="14" lengthAdjust="spacingAndGlyphs" textLength="116" x="507" y="135.0332">Central Monitoring</text><!--entity ED System--><rect fill="#FEFECE" filter="url(#fbx0z0c)" height="37.6094" style="stroke: #A80036; stroke-width: 1.5;" width="89" x="23.5" y="213"/><text fill="#000000" font-family="sans-serif" font-size="14" lengthAdjust="spacingAndGlyphs" textLength="69" x="33.5" y="237.5332">ED System</text><!--entity Equipment Tracking--><rect fill="#FEFECE" filter="url(#fbx0z0c)" height="37.6094" style="stroke: #A80036; stroke-width: 1.5;" width="146" x="148" y="213"/><text fill="#000000" font-family="sans-serif" font-size="14" lengthAdjust="spacingAndGlyphs" textLength="126" x="158" y="237.5332">Equipment Tracking</text></g></svg>