<?xml version="1.0" encoding="UTF-8" standalone="no"?><svg xmlns="http://www.w3.org/2000/svg" xmlns:xlink="http://www.w3.org/1999/xlink" contentScriptType="application/ecmascript" contentStyleType="text/css" height="168px" preserveAspectRatio="none" style="width:461px;height:168px;" version="1.1" viewBox="0 0 461 168" width="461px" zoomAndPan="magnify"><defs><filter height="300%" id="f5m8tsr" width="300%" x="-1" y="-1"><feGaussianBlur result="blurOut" stdDeviation="2.0"/><feColorMatrix in="blurOut" result="blurOut2" type="matrix" values="0 0 0 0 0 0 0 0 0 0 0 0 0 0 0 0 0 0 .4 0"/><feOffset dx="4.0" dy="4.0" in="blurOut2" result="blurOut3"/><feBlend in="SourceGraphic" in2="blurOut3" mode="normal"/></filter></defs><g><!--entity MeasureReport--><rect fill="#FEFECE" filter="url(#f5m8tsr)" height="37.6094" style="stroke: #A80036; stroke-width: 1.5;" width="122" x="6" y="8"/><text fill="#000000" font-family="sans-serif" font-size="14" lengthAdjust="spacingAndGlyphs" textLength="102" x="16" y="32.5332">Measure Report</text><!--entity Measure--><rect fill="#FEFECE" filter="url(#f5m8tsr)" height="37.6094" style="stroke: #A80036; stroke-width: 1.5;" width="75" x="241.5" y="8"/><text fill="#000000" font-family="sans-serif" font-size="14" lengthAdjust="spacingAndGlyphs" textLength="55" x="251.5" y="32.5332">Measure</text><!--entity Group--><rect fill="#FEFECE" filter="url(#f5m8tsr)" height="37.6094" style="stroke: #A80036; stroke-width: 1.5;" width="60" x="394" y="8"/><text fill="#000000" font-family="sans-serif" font-size="14" lengthAdjust="spacingAndGlyphs" textLength="40" x="404" y="32.5332">Group</text><!--entity CountableEntity--><rect fill="#FEFECE" filter="url(#f5m8tsr)" height="37.6094" style="stroke: #A80036; stroke-width: 1.5;" width="124" x="183" y="124"/><text fill="#000000" font-family="sans-serif" font-size="14" lengthAdjust="spacingAndGlyphs" textLength="104" x="193" y="148.5332">Countable Entity</text><path d="M128.035,27 C162.609,27 205.018,27 236.074,27 " fill="none" style="stroke: #A80036; stroke-width: 1.0;"/><polygon fill="#A80036" points="241.346,27,232.346,23,236.346,27,232.346,31,241.346,27" style="stroke: #A80036; stroke-width: 1.0;"/><text fill="#000000" font-family="sans-serif" font-size="13" lengthAdjust="spacingAndGlyphs" textLength="77" x="146.25" y="20.4951">Is Defined By</text><path d="M95.2046,46.064 C127.009,66.4326 178.653,99.5083 212.224,121.0087 " fill="none" style="stroke: #A80036; stroke-width: 1.0; stroke-dasharray: 7.0,7.0;"/><polygon fill="#A80036" points="216.633,123.8325,211.2102,115.611,212.4221,121.1365,206.8966,122.3484,216.633,123.8325" style="stroke: #A80036; stroke-width: 1.0;"/><text fill="#000000" font-family="sans-serif" font-size="13" lengthAdjust="spacingAndGlyphs" textLength="58" x="168" y="90.4951">Assesses</text><path d="M329.911,27 C346.409,27 364.548,27 380.46,27 " fill="none" style="stroke: #A80036; stroke-width: 1.0;"/><polygon fill="#A80036" points="393.773,27,384.773,23,388.773,27,384.773,31,393.773,27" style="stroke: #A80036; stroke-width: 1.0;"/><line style="stroke: #A80036; stroke-width: 1.0;" x1="388.773" x2="380.773" y1="27" y2="27"/><polygon fill="#FFFFFF" points="316.719,27,322.719,31,328.719,27,322.719,23,316.719,27" style="stroke: #A80036; stroke-width: 1.0;"/><text fill="#000000" font-family="sans-serif" font-size="13" lengthAdjust="spacingAndGlyphs" textLength="41" x="334.75" y="20.4951">Counts</text><path d="M395.637,46.064 C363.654,66.4326 311.719,99.5083 277.96,121.0087 " fill="none" style="stroke: #A80036; stroke-width: 1.0;"/><polygon fill="#A80036" points="273.526,123.8325,283.2656,122.3697,277.7428,121.1457,278.9667,115.6228,273.526,123.8325" style="stroke: #A80036; stroke-width: 1.0;"/><text fill="#000000" font-family="sans-serif" font-size="13" lengthAdjust="spacingAndGlyphs" textLength="74" x="347" y="90.4951">Has Member</text></g></svg>