<?xml version="1.0" encoding="UTF-8" standalone="no"?><svg xmlns="http://www.w3.org/2000/svg" xmlns:xlink="http://www.w3.org/1999/xlink" contentScriptType="application/ecmascript" contentStyleType="text/css" height="168px" preserveAspectRatio="none" style="width:465px;height:168px;" version="1.1" viewBox="0 0 465 168" width="465px" zoomAndPan="magnify"><defs><filter height="300%" id="f1kf2d3vwq43x1" width="300%" x="-1" y="-1"><feGaussianBlur result="blurOut" stdDeviation="2.0"/><feColorMatrix in="blurOut" result="blurOut2" type="matrix" values="0 0 0 0 0 0 0 0 0 0 0 0 0 0 0 0 0 0 .4 0"/><feOffset dx="4.0" dy="4.0" in="blurOut2" result="blurOut3"/><feBlend in="SourceGraphic" in2="blurOut3" mode="normal"/></filter></defs><g><!--entity MeasureReport--><rect fill="#FEFECE" filter="url(#f1kf2d3vwq43x1)" height="36.2969" style="stroke: #A80036; stroke-width: 1.5;" width="121" x="6" y="8"/><text fill="#000000" font-family="sans-serif" font-size="14" lengthAdjust="spacingAndGlyphs" textLength="101" x="16" y="30.9951">Measure Report</text><!--entity Measure--><rect fill="#FEFECE" filter="url(#f1kf2d3vwq43x1)" height="36.2969" style="stroke: #A80036; stroke-width: 1.5;" width="75" x="241" y="8"/><text fill="#000000" font-family="sans-serif" font-size="14" lengthAdjust="spacingAndGlyphs" textLength="55" x="251" y="30.9951">Measure</text><!--entity Group--><rect fill="#FEFECE" filter="url(#f1kf2d3vwq43x1)" height="36.2969" style="stroke: #A80036; stroke-width: 1.5;" width="59" x="395" y="8"/><text fill="#000000" font-family="sans-serif" font-size="14" lengthAdjust="spacingAndGlyphs" textLength="39" x="405" y="30.9951">Group</text><!--entity CountableEntity--><rect fill="#FEFECE" filter="url(#f1kf2d3vwq43x1)" height="36.2969" style="stroke: #A80036; stroke-width: 1.5;" width="124" x="183.5" y="121"/><text fill="#000000" font-family="sans-serif" font-size="14" lengthAdjust="spacingAndGlyphs" textLength="104" x="193.5" y="143.9951">Countable Entity</text><!--link MeasureReport to Measure--><path d="M127.2507,26 C161.834,26 204.3283,26 235.4596,26 " fill="none" id="MeasureReport-Measure" style="stroke: #A80036; stroke-width: 1.0;"/><polygon fill="#A80036" points="240.7447,26,231.7447,22,235.7447,26,231.7447,30,240.7447,26" style="stroke: #A80036; stroke-width: 1.0;"/><text fill="#000000" font-family="sans-serif" font-size="13" lengthAdjust="spacingAndGlyphs" textLength="77" x="145.5" y="19.0669">Is Defined By</text><!--link MeasureReport to CountableEntity--><path d="M95.2594,44.1554 C127.2275,64.3363 178.7712,96.8751 212.3948,118.1012 " fill="none" id="MeasureReport-CountableEntity" style="stroke: #A80036; stroke-width: 1.0; stroke-dasharray: 7.0,7.0;"/><polygon fill="#A80036" points="216.8119,120.8897,211.3368,112.7029,212.5839,118.2206,207.0662,119.4677,216.8119,120.8897" style="stroke: #A80036; stroke-width: 1.0;"/><text fill="#000000" font-family="sans-serif" font-size="13" lengthAdjust="spacingAndGlyphs" textLength="52" x="168.5" y="87.0669">Assesses</text><!--link Measure to Group--><path d="M328.0986,26 C328.0986,26 365.298,26 381.7288,26 " fill="none" id="Measure-Group" style="stroke: #A80036; stroke-width: 1.0;"/><polygon fill="#A80036" points="394.853,26,385.853,22,389.853,26,385.853,30,394.853,26" style="stroke: #A80036; stroke-width: 1.0;"/><line style="stroke: #A80036; stroke-width: 1.0;" x1="389.853" x2="381.8531" y1="26" y2="25.9999"/><polygon fill="#FFFFFF" points="316.0986,26,322.0986,30,328.0986,26,322.0986,22,316.0986,26" style="stroke: #A80036; stroke-width: 1.0;"/><text fill="#000000" font-family="sans-serif" font-size="13" lengthAdjust="spacingAndGlyphs" textLength="42" x="334.5" y="19.0669">Counts</text><!--link Group to CountableEntity--><path d="M395.7406,44.1554 C363.7725,64.3363 312.2288,96.8751 278.6052,118.1012 " fill="none" id="Group-CountableEntity" style="stroke: #A80036; stroke-width: 1.0;"/><polygon fill="#A80036" points="274.1881,120.8897,283.9338,119.4677,278.4161,118.2206,279.6632,112.7029,274.1881,120.8897" style="stroke: #A80036; stroke-width: 1.0;"/><text fill="#000000" font-family="sans-serif" font-size="13" lengthAdjust="spacingAndGlyphs" textLength="74" x="346.5" y="87.0669">Has Member</text><!--
@startuml

agent "Measure Report" as MeasureReport
agent Measure
agent Group
agent "Countable Entity" as CountableEntity

MeasureReport -> Measure : Is Defined By
MeasureReport ..> CountableEntity : Assesses
Measure  o-> Group : Counts

Group - -> CountableEntity : Has Member
@enduml

PlantUML version 1.2019.08(Sat Jul 13 19:25:14 GMT 2019)
(GPL source distribution)
Java Runtime: OpenJDK Runtime Environment
JVM: OpenJDK 64-Bit Server VM
Java Version: 14-ea+33
Operating System: Linux
OS Version: 5.4.0-1039-azure
Default Encoding: UTF-8
Language: en
Country: US
--></g></svg>