<?xml version="1.0" encoding="UTF-8" standalone="no"?><svg xmlns="http://www.w3.org/2000/svg" xmlns:xlink="http://www.w3.org/1999/xlink" contentScriptType="application/ecmascript" contentStyleType="text/css" height="379px" preserveAspectRatio="none" style="width:389px;height:379px;" version="1.1" viewBox="0 0 389 379" width="389px" zoomAndPan="magnify"><defs><filter height="300%" id="f48ab5g" width="300%" x="-1" y="-1"><feGaussianBlur result="blurOut" stdDeviation="2.0"/><feColorMatrix in="blurOut" result="blurOut2" type="matrix" values="0 0 0 0 0 0 0 0 0 0 0 0 0 0 0 0 0 0 .4 0"/><feOffset dx="4.0" dy="4.0" in="blurOut2" result="blurOut3"/><feBlend in="SourceGraphic" in2="blurOut3" mode="normal"/></filter></defs><g><!--cluster MeasureIntermediary--><rect fill="#FFFFFF" filter="url(#f48ab5g)" height="208" style="stroke: #000000; stroke-width: 2.0;" width="176" x="206" y="164"/><text fill="#000000" font-family="sans-serif" font-size="14" font-weight="bold" lengthAdjust="spacingAndGlyphs" textLength="85" x="251.5" y="180.5332">FHIR Server</text><!--cluster Hospital EHR System--><rect fill="#FFFFFF" filter="url(#f48ab5g)" height="90" style="stroke: #000000; stroke-width: 2.0;" width="160" x="22" y="164"/><text fill="#000000" font-family="sans-serif" font-size="14" font-weight="bold" lengthAdjust="spacingAndGlyphs" textLength="144" x="30" y="180.5332">Hospital EHR System</text><!--cluster Public Health Agency--><rect fill="#FFFFFF" filter="url(#f48ab5g)" height="90" style="stroke: #000000; stroke-width: 2.0;" width="176" x="206" y="24"/><text fill="#000000" font-family="sans-serif" font-size="14" font-weight="bold" lengthAdjust="spacingAndGlyphs" textLength="147" x="220.5" y="40.5332">Public Health Agency</text><!--entity MeasureSource1--><rect fill="#FEFECE" filter="url(#f48ab5g)" height="37.6094" style="stroke: #A80036; stroke-width: 1.5;" width="124" x="232" y="200"/><text fill="#000000" font-family="sans-serif" font-size="14" lengthAdjust="spacingAndGlyphs" textLength="104" x="242" y="224.5332">Measure Source</text><!--entity MeasureConsumer1--><rect fill="#FEFECE" filter="url(#f48ab5g)" height="37.6094" style="stroke: #A80036; stroke-width: 1.5;" width="144" x="222" y="318"/><text fill="#000000" font-family="sans-serif" font-size="14" lengthAdjust="spacingAndGlyphs" textLength="124" x="232" y="342.5332">Measure Consumer</text><!--entity MeasureSource--><rect fill="#FEFECE" filter="url(#f48ab5g)" height="37.6094" style="stroke: #A80036; stroke-width: 1.5;" width="124" x="42" y="200"/><text fill="#000000" font-family="sans-serif" font-size="14" lengthAdjust="spacingAndGlyphs" textLength="104" x="52" y="224.5332">Measure Source</text><!--entity MeasureConsumer--><rect fill="#FEFECE" filter="url(#f48ab5g)" height="37.6094" style="stroke: #A80036; stroke-width: 1.5;" width="144" x="222" y="60"/><text fill="#000000" font-family="sans-serif" font-size="14" lengthAdjust="spacingAndGlyphs" textLength="124" x="232" y="84.5332">Measure Consumer</text><path d="M294,238.125 C294,259.79 294,295.842 294,317.6195 " fill="none" style="stroke: #A80036; stroke-width: 2.0;"/><path d="M128.401,238.212 C147.889,252.441 176.126,272.358 202,288 C217.928,297.6289 235.983,307.3036 251.855,315.4188 " fill="none" style="stroke: #A80036; stroke-width: 1.0;"/><polygon fill="#A80036" points="256.706,317.8855,250.4959,310.2413,252.2489,315.6197,246.8705,317.3727,256.706,317.8855" style="stroke: #A80036; stroke-width: 1.0;"/><text fill="#000000" font-family="sans-serif" font-size="13" lengthAdjust="spacingAndGlyphs" textLength="82" x="203" y="284.4951">Push with API</text><path d="M294,98.041 C294,122.836 294,167.466 294,194.742 " fill="none" style="stroke: #A80036; stroke-width: 1.0;"/><polygon fill="#A80036" points="294,199.954,298,190.954,294,194.954,290,190.954,294,199.954" style="stroke: #A80036; stroke-width: 1.0;"/><text fill="#000000" font-family="sans-serif" font-size="13" lengthAdjust="spacingAndGlyphs" textLength="74" x="295" y="144.4951">Pull with API</text></g></svg>