<?xml version="1.0" encoding="UTF-8" standalone="no"?><svg xmlns="http://www.w3.org/2000/svg" xmlns:xlink="http://www.w3.org/1999/xlink" contentScriptType="application/ecmascript" contentStyleType="text/css" height="283px" preserveAspectRatio="none" style="width:722px;height:283px;" version="1.1" viewBox="0 0 722 283" width="722px" zoomAndPan="magnify"><defs><filter height="300%" id="fe14jb8" width="300%" x="-1" y="-1"><feGaussianBlur result="blurOut" stdDeviation="2.0"/><feColorMatrix in="blurOut" result="blurOut2" type="matrix" values="0 0 0 0 0 0 0 0 0 0 0 0 0 0 0 0 0 0 .4 0"/><feOffset dx="4.0" dy="4.0" in="blurOut2" result="blurOut3"/><feBlend in="SourceGraphic" in2="blurOut3" mode="normal"/></filter></defs><g><text fill="#000000" font-family="sans-serif" font-size="18" lengthAdjust="spacingAndGlyphs" textLength="291" x="229" y="18.6855">Public Health does Most of the Work</text><!--cluster Hospital--><rect fill="#FFFFFF" filter="url(#fe14jb8)" height="90" style="stroke: #000000; stroke-width: 2.0;" width="160" x="23" y="46.6406"/><text fill="#000000" font-family="sans-serif" font-size="14" font-weight="bold" lengthAdjust="spacingAndGlyphs" textLength="144" x="31" y="63.1738">Hospital EHR System</text><!--cluster Agency--><rect fill="#FFFFFF" filter="url(#fe14jb8)" height="90" style="stroke: #000000; stroke-width: 2.0;" width="693" x="22" y="186.6406"/><text fill="#000000" font-family="sans-serif" font-size="14" font-weight="bold" lengthAdjust="spacingAndGlyphs" textLength="147" x="295" y="203.1738">Public Health Agency</text><!--entity MeasureSource--><rect fill="#FEFECE" filter="url(#fe14jb8)" height="37.6094" style="stroke: #A80036; stroke-width: 1.5;" width="124" x="39" y="82.6406"/><text fill="#000000" font-family="sans-serif" font-size="14" lengthAdjust="spacingAndGlyphs" textLength="104" x="49" y="107.1738">Measure Source</text><!--entity ExternalStorage--><rect fill="#FEFECE" filter="url(#fe14jb8)" height="37.6094" rx="35" ry="35" style="stroke: #000000; stroke-width: 1.5;" width="125" x="38.5" y="222.6406"/><text fill="#000000" font-family="sans-serif" font-size="14" lengthAdjust="spacingAndGlyphs" textLength="105" x="48.5" y="247.1738">External Storage</text><!--entity MeasureIntermediary--><rect fill="#FEFECE" filter="url(#fe14jb8)" height="37.6094" style="stroke: #A80036; stroke-width: 1.5;" width="157" x="287.5" y="222.6406"/><text fill="#000000" font-family="sans-serif" font-size="14" lengthAdjust="spacingAndGlyphs" textLength="137" x="297.5" y="247.1738">Measure Intermediary</text><!--entity MeasureConsumer--><rect fill="#FEFECE" filter="url(#fe14jb8)" height="37.6094" style="stroke: #A80036; stroke-width: 1.5;" width="144" x="555" y="222.6406"/><text fill="#000000" font-family="sans-serif" font-size="14" lengthAdjust="spacingAndGlyphs" textLength="124" x="565" y="247.1738">Measure Consumer</text><path d="M101,120.6816 C101,145.4766 101,190.1066 101,217.3823 " fill="none" style="stroke: #A80036; stroke-width: 1.0;"/><polygon fill="#A80036" points="101,222.5951,105,213.5951,101,217.5951,97,213.5951,101,222.5951" style="stroke: #A80036; stroke-width: 1.0;"/><text fill="#000000" font-family="sans-serif" font-size="13" lengthAdjust="spacingAndGlyphs" textLength="95" x="102" y="167.1357">Push with Dump</text><path d="M169.053,241.6406 C205.073,241.6406 249.494,241.6406 287.027,241.6406 " fill="none" style="stroke: #A80036; stroke-width: 1.0;"/><polygon fill="#A80036" points="163.801,241.6406,172.801,245.6406,168.801,241.6406,172.801,237.6406,163.801,241.6406" style="stroke: #A80036; stroke-width: 1.0;"/><text fill="#000000" font-family="sans-serif" font-size="13" lengthAdjust="spacingAndGlyphs" textLength="87" x="182" y="235.1357">Pull with Dump</text><path d="M450.035,241.6406 C483.772,241.6406 522.275,241.6406 554.732,241.6406 " fill="none" style="stroke: #A80036; stroke-width: 1.0;"/><polygon fill="#A80036" points="444.663,241.6406,453.663,245.6406,449.663,241.6406,453.663,237.6406,444.663,241.6406" style="stroke: #A80036; stroke-width: 1.0;"/><text fill="#000000" font-family="sans-serif" font-size="13" lengthAdjust="spacingAndGlyphs" textLength="74" x="462.75" y="235.1357">Pull with API</text></g></svg>