<?xml version="1.0" encoding="UTF-8" standalone="no"?><svg xmlns="http://www.w3.org/2000/svg" xmlns:xlink="http://www.w3.org/1999/xlink" contentScriptType="application/ecmascript" contentStyleType="text/css" height="331px" preserveAspectRatio="none" style="width:576px;height:331px;" version="1.1" viewBox="0 0 576 331" width="576px" zoomAndPan="magnify"><defs><filter height="300%" id="f1eurxt9wv0p2l" width="300%" x="-1" y="-1"><feGaussianBlur result="blurOut" stdDeviation="2.0"/><feColorMatrix in="blurOut" result="blurOut2" type="matrix" values="0 0 0 0 0 0 0 0 0 0 0 0 0 0 0 0 0 0 .4 0"/><feOffset dx="4.0" dy="4.0" in="blurOut2" result="blurOut3"/><feBlend in="SourceGraphic" in2="blurOut3" mode="normal"/></filter></defs><g><!--class MeasureReport--><rect fill="#FEFECE" filter="url(#f1eurxt9wv0p2l)" height="48" id="MeasureReport" style="stroke: #A80036; stroke-width: 1.5;" width="117" x="6" y="8"/><ellipse cx="21" cy="24" fill="#FF0000" rx="11" ry="11" style="stroke: #A80036; stroke-width: 1.0;"/><path d="M18.5938,23.25 L19.2969,23.25 Q20.375,23.25 20.8281,22.8281 Q21.2969,22.3906 21.2969,21.5625 Q21.2969,20.7031 20.7969,20.3438 Q20.2969,19.9688 19.25,19.9688 L18.5938,19.9688 L18.5938,23.25 Z M18.5938,25.3438 L18.5938,30 L16.0313,30 L16.0313,17.8594 L19.3438,17.8594 Q21.6875,17.8594 22.7969,18.7656 Q23.9063,19.6719 23.9063,21.5 Q23.9063,22.125 23.7344,22.6406 Q23.5781,23.1406 23.2969,23.5313 Q23.0156,23.9219 22.6563,24.2188 Q22.2969,24.5156 21.8906,24.7188 Q22.8125,26.1875 23.5469,27.3594 Q23.8594,27.8438 24.1563,28.3281 Q24.4531,28.7969 24.6875,29.1719 Q24.9219,29.5469 25.0625,29.7656 L25.2031,30 L22.3594,30 L19.7188,25.3438 L18.5938,25.3438 Z "/><text fill="#000000" font-family="sans-serif" font-size="12" lengthAdjust="spacingAndGlyphs" textLength="85" x="35" y="28.1543">MeasureReport</text><line style="stroke: #A80036; stroke-width: 1.5;" x1="7" x2="122" y1="40" y2="40"/><line style="stroke: #A80036; stroke-width: 1.5;" x1="7" x2="122" y1="48" y2="48"/><!--class Measure--><rect fill="#FEFECE" filter="url(#f1eurxt9wv0p2l)" height="48" id="Measure" style="stroke: #A80036; stroke-width: 1.5;" width="81" x="237" y="8"/><ellipse cx="252" cy="24" fill="#FF0000" rx="11" ry="11" style="stroke: #A80036; stroke-width: 1.0;"/><path d="M249.5938,23.25 L250.2969,23.25 Q251.375,23.25 251.8281,22.8281 Q252.2969,22.3906 252.2969,21.5625 Q252.2969,20.7031 251.7969,20.3438 Q251.2969,19.9688 250.25,19.9688 L249.5938,19.9688 L249.5938,23.25 Z M249.5938,25.3438 L249.5938,30 L247.0313,30 L247.0313,17.8594 L250.3438,17.8594 Q252.6875,17.8594 253.7969,18.7656 Q254.9063,19.6719 254.9063,21.5 Q254.9063,22.125 254.7344,22.6406 Q254.5781,23.1406 254.2969,23.5313 Q254.0156,23.9219 253.6563,24.2188 Q253.2969,24.5156 252.8906,24.7188 Q253.8125,26.1875 254.5469,27.3594 Q254.8594,27.8438 255.1563,28.3281 Q255.4531,28.7969 255.6875,29.1719 Q255.9219,29.5469 256.0625,29.7656 L256.2031,30 L253.3594,30 L250.7188,25.3438 L249.5938,25.3438 Z "/><text fill="#000000" font-family="sans-serif" font-size="12" lengthAdjust="spacingAndGlyphs" textLength="49" x="266" y="28.1543">Measure</text><line style="stroke: #A80036; stroke-width: 1.5;" x1="238" x2="317" y1="40" y2="40"/><line style="stroke: #A80036; stroke-width: 1.5;" x1="238" x2="317" y1="48" y2="48"/><!--class Group--><rect fill="#FEFECE" filter="url(#f1eurxt9wv0p2l)" height="48" id="Group" style="stroke: #A80036; stroke-width: 1.5;" width="65" x="423" y="8"/><ellipse cx="438" cy="24" fill="#FF0000" rx="11" ry="11" style="stroke: #A80036; stroke-width: 1.0;"/><path d="M435.5938,23.25 L436.2969,23.25 Q437.375,23.25 437.8281,22.8281 Q438.2969,22.3906 438.2969,21.5625 Q438.2969,20.7031 437.7969,20.3438 Q437.2969,19.9688 436.25,19.9688 L435.5938,19.9688 L435.5938,23.25 Z M435.5938,25.3438 L435.5938,30 L433.0313,30 L433.0313,17.8594 L436.3438,17.8594 Q438.6875,17.8594 439.7969,18.7656 Q440.9063,19.6719 440.9063,21.5 Q440.9063,22.125 440.7344,22.6406 Q440.5781,23.1406 440.2969,23.5313 Q440.0156,23.9219 439.6563,24.2188 Q439.2969,24.5156 438.8906,24.7188 Q439.8125,26.1875 440.5469,27.3594 Q440.8594,27.8438 441.1563,28.3281 Q441.4531,28.7969 441.6875,29.1719 Q441.9219,29.5469 442.0625,29.7656 L442.2031,30 L439.3594,30 L436.7188,25.3438 L435.5938,25.3438 Z "/><text fill="#000000" font-family="sans-serif" font-size="12" lengthAdjust="spacingAndGlyphs" textLength="33" x="452" y="28.1543">Group</text><line style="stroke: #A80036; stroke-width: 1.5;" x1="424" x2="487" y1="40" y2="40"/><line style="stroke: #A80036; stroke-width: 1.5;" x1="424" x2="487" y1="48" y2="48"/><!--class Characteristic--><rect fill="#FEFECE" filter="url(#f1eurxt9wv0p2l)" height="48" id="Characteristic" style="stroke: #A80036; stroke-width: 1.5;" width="107" x="402" y="140"/><ellipse cx="417" cy="156" fill="#FFFF00" rx="11" ry="11" style="stroke: #A80036; stroke-width: 1.0;"/><path d="M420.0156,162 L413.0313,162 L413.0313,149.8594 L420.0156,149.8594 L420.0156,151.9688 L415.5938,151.9688 L415.5938,154.6406 L419.7031,154.6406 L419.7031,156.75 L415.5938,156.75 L415.5938,159.875 L420.0156,159.875 L420.0156,162 Z "/><text fill="#000000" font-family="sans-serif" font-size="12" lengthAdjust="spacingAndGlyphs" textLength="75" x="431" y="160.1543">Characteristic</text><line style="stroke: #A80036; stroke-width: 1.5;" x1="403" x2="508" y1="172" y2="172"/><line style="stroke: #A80036; stroke-width: 1.5;" x1="403" x2="508" y1="180" y2="180"/><!--class CountableEntity--><rect fill="#FEFECE" filter="url(#f1eurxt9wv0p2l)" height="48" id="CountableEntity" style="stroke: #A80036; stroke-width: 1.5;" width="117" x="194" y="272"/><ellipse cx="209" cy="288" fill="#00FFFF" rx="11" ry="11" style="stroke: #A80036; stroke-width: 1.0;"/><path d="M208.0938,287.5781 L208.6094,287.5781 Q209.6875,287.5781 210.2344,287.1563 Q210.7969,286.7188 210.7969,285.7344 Q210.7969,284.8281 210.2969,284.4063 Q209.8125,283.9688 208.75,283.9688 L208.0938,283.9688 L208.0938,287.5781 Z M213.4063,285.6563 Q213.4063,286.4531 213.1563,287.1875 Q212.9219,287.9063 212.3594,288.4688 Q211.8125,289.0156 210.9063,289.3594 Q210.0156,289.6875 208.6875,289.6875 L208.0938,289.6875 L208.0938,294 L205.5313,294 L205.5313,281.8594 L208.8906,281.8594 Q210.0625,281.8594 210.9063,282.125 Q211.7656,282.3906 212.3125,282.875 Q212.875,283.3594 213.1406,284.0625 Q213.4063,284.7656 213.4063,285.6563 Z "/><text fill="#000000" font-family="sans-serif" font-size="12" lengthAdjust="spacingAndGlyphs" textLength="85" x="223" y="292.1543">CountableEntity</text><line style="stroke: #A80036; stroke-width: 1.5;" x1="195" x2="310" y1="304" y2="304"/><line style="stroke: #A80036; stroke-width: 1.5;" x1="195" x2="310" y1="312" y2="312"/><!--class Field--><rect fill="#FEFECE" filter="url(#f1eurxt9wv0p2l)" height="48" id="Field" style="stroke: #A80036; stroke-width: 1.5;" width="58" x="426.5" y="272"/><ellipse cx="441.5" cy="288" fill="#FFFF00" rx="11" ry="11" style="stroke: #A80036; stroke-width: 1.0;"/><path d="M444.5156,294 L437.5313,294 L437.5313,281.8594 L444.5156,281.8594 L444.5156,283.9688 L440.0938,283.9688 L440.0938,286.6406 L444.2031,286.6406 L444.2031,288.75 L440.0938,288.75 L440.0938,291.875 L444.5156,291.875 L444.5156,294 Z "/><text fill="#000000" font-family="sans-serif" font-size="12" lengthAdjust="spacingAndGlyphs" textLength="26" x="455.5" y="292.1543">Field</text><line style="stroke: #A80036; stroke-width: 1.5;" x1="427.5" x2="483.5" y1="304" y2="304"/><line style="stroke: #A80036; stroke-width: 1.5;" x1="427.5" x2="483.5" y1="312" y2="312"/><ellipse cx="261.5" cy="164" fill="#000000" rx="2" ry="2" style="stroke: none; stroke-width: 1.0;"/><!--link MeasureReport to Measure--><path d="M135.267,32 C135.267,32 197.0546,32 223.5237,32 " fill="none" id="MeasureReport-Measure" style="stroke: #A80036; stroke-width: 1.0;"/><polygon fill="#A80036" points="236.7887,32,227.7887,28,231.7887,32,227.7887,36,236.7887,32" style="stroke: #A80036; stroke-width: 1.0;"/><line style="stroke: #A80036; stroke-width: 1.0;" x1="231.7887" x2="223.7887" y1="32" y2="31.9999"/><polygon fill="#FFFFFF" points="123.267,32,129.267,36,135.267,32,129.267,28,123.267,32" style="stroke: #A80036; stroke-width: 1.0;"/><text fill="#000000" font-family="sans-serif" font-size="13" lengthAdjust="spacingAndGlyphs" textLength="77" x="141.5" y="25.0669">Is Defined By</text><!--link Measure to Group--><path d="M330.3368,32 C330.3368,32 385.7014,32 409.5361,32 " fill="none" id="Measure-Group" style="stroke: #A80036; stroke-width: 1.0;"/><polygon fill="#A80036" points="422.8691,32,413.8691,28,417.8691,32,413.8691,36,422.8691,32" style="stroke: #A80036; stroke-width: 1.0;"/><line style="stroke: #A80036; stroke-width: 1.0;" x1="417.8691" x2="409.8691" y1="32" y2="31.9999"/><polygon fill="#FFFFFF" points="318.3368,32,324.3368,36,330.3368,32,324.3368,28,318.3368,32" style="stroke: #A80036; stroke-width: 1.0;"/><text fill="#000000" font-family="sans-serif" font-size="13" lengthAdjust="spacingAndGlyphs" textLength="68" x="336.5" y="25.0669">Has Subject</text><!--link Group to Characteristic--><path d="M455.5,69.459 C455.5,92.0888 455.5,120.2632 455.5,139.9427 " fill="none" id="Group-Characteristic" style="stroke: #A80036; stroke-width: 1.0;"/><polygon fill="#A80036" points="455.5,56.2108,451.5,62.2108,455.5,68.2108,459.5,62.2108,455.5,56.2108" style="stroke: #A80036; stroke-width: 1.0;"/><text fill="#000000" font-family="sans-serif" font-size="13" lengthAdjust="spacingAndGlyphs" textLength="69" x="456.5" y="99.0669">Stratified By</text><!--link Group to apoint143--><path d="M411.8695,59.5166 C398.806,67.898 384.5005,77.2186 371.5,86 C326.8798,116.1394 273.6456,155.0829 263.2927,162.6824 " fill="none" id="Group-apoint143" style="stroke: #A80036; stroke-width: 1.0;"/><polygon fill="#FFFFFF" points="422.9657,52.4301,415.756,52.2884,412.8522,58.889,420.0619,59.0307,422.9657,52.4301" style="stroke: #A80036; stroke-width: 1.0;"/><text fill="#000000" font-family="sans-serif" font-size="13" lengthAdjust="spacingAndGlyphs" textLength="74" x="372.5" y="99.0669">Has Member</text><!--link apoint143 to CountableEntity--><path d="M261.3438,166.2911 C260.5462,177.9898 256.8738,231.8513 254.5193,266.3838 " fill="none" id="apoint143-CountableEntity" style="stroke: #A80036; stroke-width: 1.0;"/><polygon fill="#A80036" points="254.1534,271.7507,258.7566,263.0438,254.4937,266.7623,250.7752,262.4993,254.1534,271.7507" style="stroke: #A80036; stroke-width: 1.0;"/><!--link apoint143 to Characteristic--><path d="M263.6787,164 C277.1245,164 349.9472,164 401.8787,164 " fill="none" id="apoint143-Characteristic" style="stroke: #A80036; stroke-width: 1.0; stroke-dasharray: 7.0,7.0;"/><text fill="#000000" font-family="sans-serif" font-size="13" lengthAdjust="spacingAndGlyphs" textLength="102" x="281.75" y="157.0669">Identifies Field Of</text><!--link CountableEntity to Field--><path d="M324.4035,296 C359.5797,296 399.9529,296 426.4943,296 " fill="none" id="CountableEntity-Field" style="stroke: #A80036; stroke-width: 1.0;"/><polygon fill="#A80036" points="311.216,296,317.216,300,323.216,296,317.216,292,311.216,296" style="stroke: #A80036; stroke-width: 1.0;"/><text fill="#000000" font-family="sans-serif" font-size="13" lengthAdjust="spacingAndGlyphs" textLength="79" x="329.25" y="289.0669">Composed of</text><!--link Characteristic to Field--><path d="M455.5,188.2108 C455.5,210.3532 455.5,243.156 455.5,266.7548 " fill="none" id="Characteristic-Field" style="stroke: #A80036; stroke-width: 1.0;"/><polygon fill="#A80036" points="455.5,271.9427,459.5,262.9427,455.5,266.9427,451.5,262.9427,455.5,271.9427" style="stroke: #A80036; stroke-width: 1.0;"/><text fill="#000000" font-family="sans-serif" font-size="13" lengthAdjust="spacingAndGlyphs" textLength="40" x="456.5" y="238.0669">Names</text><!--link MeasureReport to CountableEntity--><path d="M77.3475,56.0516 C95.1307,88.6161 128.9779,148.0545 163.5,195 C182.5812,220.9478 206.9105,248.2284 225.3079,267.8871 " fill="none" id="MeasureReport-CountableEntity" style="stroke: #A80036; stroke-width: 1.0; stroke-dasharray: 7.0,7.0;"/><polygon fill="#A80036" points="228.9049,271.7146,225.6563,262.4169,225.4808,268.0711,219.8267,267.8955,228.9049,271.7146" style="stroke: #A80036; stroke-width: 1.0;"/><text fill="#000000" font-family="sans-serif" font-size="13" lengthAdjust="spacingAndGlyphs" textLength="52" x="164.5" y="146.0669">Assesses</text><text fill="#000000" font-family="sans-serif" font-size="13" lengthAdjust="spacingAndGlyphs" textLength="0" x="204" y="161.1997"/><text fill="#000000" font-family="sans-serif" font-size="13" lengthAdjust="spacingAndGlyphs" textLength="0" x="204" y="176.3325"/><text fill="#000000" font-family="sans-serif" font-size="13" lengthAdjust="spacingAndGlyphs" textLength="0" x="204" y="191.4653"/><!--
@startuml

class MeasureReport <<(R,Red)>>
class Measure <<(R,Red)>>
class Group <<(R,Red)>>
class Characteristic <<(E,Yellow)>>
class CountableEntity <<(P,Cyan)>>
class Field <<(E,Yellow)>>

MeasureReport o->  Measure : Is Defined By
Measure  o->  Group : Has Subject
Group *- - Characteristic : "Stratified By             "
Group o- ->  CountableEntity : "Has Member"

(Group, CountableEntity) .. Characteristic : Identifies Field Of

CountableEntity  *-   Field : Composed of
Characteristic - -> Field : Names

MeasureReport ..> CountableEntity : "Assesses        \n\n\n"
@enduml

PlantUML version 1.2019.08(Sat Jul 13 19:25:14 GMT 2019)
(GPL source distribution)
Java Runtime: OpenJDK Runtime Environment
JVM: OpenJDK 64-Bit Server VM
Java Version: 14-ea+33
Operating System: Linux
OS Version: 5.4.0-1032-azure
Default Encoding: UTF-8
Language: en
Country: US
--></g></svg>