<?xml version="1.0" encoding="UTF-8" standalone="no"?>
<!DOCTYPE svg PUBLIC "-//W3C//DTD SVG 1.1//EN"
 "http://www.w3.org/Graphics/SVG/1.1/DTD/svg11.dtd">
<!-- Generated by graphviz version 2.38.0 (20140413.2041)
 -->
<!-- Title: tech Pages: 1 -->
<svg width="1173pt" height="519pt"
 viewBox="0.00 0.00 1173.00 519.00" xmlns="http://www.w3.org/2000/svg" xmlns:xlink="http://www.w3.org/1999/xlink">
<g id="graph0" class="graph" transform="scale(1 1) rotate(0) translate(4 515)">
<title>tech</title>
<polygon fill="white" stroke="none" points="-4,4 -4,-515 1169,-515 1169,4 -4,4"/>
<g id="clust1" class="cluster"><title>cluster_opi</title>
<polygon fill="none" stroke="black" points="158,-329 158,-503 908,-503 908,-329 158,-329"/>
</g>
<g id="clust2" class="cluster"><title>cluster_Infrastructure</title>
<polygon fill="none" stroke="black" points="166,-420 166,-495 615,-495 615,-420 166,-420"/>
<text text-anchor="middle" x="390.5" y="-479.8" font-family="SansSerif" font-size="14.00">Infrastructure</text>
</g>
<g id="clust4" class="cluster"><title>cluster_Operations</title>
<polygon fill="none" stroke="black" points="354,-337 354,-412 900,-412 900,-337 354,-337"/>
<text text-anchor="middle" x="627" y="-396.8" font-family="SansSerif" font-size="14.00">Operations</text>
</g>
<g id="clust5" class="cluster"><title>cluster_Payment</title>
<polygon fill="none" stroke="black" points="166,-337 166,-412 346,-412 346,-337 166,-337"/>
<text text-anchor="middle" x="256" y="-396.8" font-family="SansSerif" font-size="14.00">Payment</text>
</g>
<g id="clust6" class="cluster"><title>cluster_Treatment</title>
<polygon fill="none" stroke="black" points="8,-8 8,-321 1157,-321 1157,-8 8,-8"/>
<text text-anchor="middle" x="582.5" y="-305.8" font-family="SansSerif" font-size="14.00">Treatment</text>
</g>
<g id="clust8" class="cluster"><title>cluster_Departments</title>
<polygon fill="none" stroke="black" points="16,-16 16,-246 1149,-246 1149,-16 16,-16"/>
<text text-anchor="middle" x="582.5" y="-230.8" font-family="SansSerif" font-size="14.00">Departments</text>
</g>
<g id="clust9" class="cluster"><title>cluster_ICU</title>
<polygon fill="none" stroke="black" points="985,-96 985,-171 1141,-171 1141,-96 985,-96"/>
<text text-anchor="middle" x="1063" y="-155.8" font-family="SansSerif" font-size="14.00">ICU</text>
</g>
<g id="clust10" class="cluster"><title>cluster_Laboratory</title>
<polygon fill="none" stroke="black" points="707,-24 707,-171 977,-171 977,-24 707,-24"/>
<text text-anchor="middle" x="842" y="-155.8" font-family="SansSerif" font-size="14.00">Laboratory</text>
</g>
<g id="clust12" class="cluster"><title>cluster_Imaging</title>
<polygon fill="none" stroke="black" points="381,-24 381,-171 699,-171 699,-24 381,-24"/>
<text text-anchor="middle" x="540" y="-155.8" font-family="SansSerif" font-size="14.00">Imaging</text>
</g>
<g id="clust13" class="cluster"><title>cluster_ED</title>
<polygon fill="none" stroke="black" points="206,-96 206,-171 373,-171 373,-96 206,-96"/>
<text text-anchor="middle" x="289.5" y="-155.8" font-family="SansSerif" font-size="14.00">Emergency Department</text>
</g>
<g id="clust11" class="cluster"><title>cluster_LDD</title>
<polygon fill="none" stroke="black" points="24,-96 24,-171 198,-171 198,-96 24,-96"/>
<text text-anchor="middle" x="111" y="-155.8" font-family="SansSerif" font-size="14.00">Labor and Delivery</text>
</g>
<!-- SEC -->
<g id="node1" class="node"><title>SEC</title>
<g id="a_node1"><a xlink:href="technology_environment.html#ehr-systems" xlink:title="Security Infrastructure">
<polygon fill="#fefece" stroke="#a80036" points="607,-464 473,-464 473,-428 607,-428 607,-464"/>
<text text-anchor="middle" x="540" y="-442.9" font-family="SansSerif" font-size="12.00">Security Infrastructure</text>
</a>
</g>
</g>
<!-- CnC -->
<g id="node2" class="node"><title>CnC</title>
<polygon fill="#fefece" stroke="#a80036" points="454.5,-464 317.5,-464 317.5,-428 454.5,-428 454.5,-464"/>
<text text-anchor="middle" x="386" y="-442.9" font-family="SansSerif" font-size="12.00">Command and Control</text>
</g>
<!-- MPI -->
<g id="node3" class="node"><title>MPI</title>
<polygon fill="#fefece" stroke="#a80036" points="299.5,-464 174.5,-464 174.5,-428 299.5,-428 299.5,-464"/>
<text text-anchor="middle" x="237" y="-442.9" font-family="SansSerif" font-size="12.00">Master Patient Index</text>
</g>
<!-- AM -->
<g id="node4" class="node"><title>AM</title>
<g id="a_node4"><a xlink:href="technology_environment.html#ehr-systems" xlink:title="Asset Management">
<polygon fill="#fefece" stroke="#a80036" points="892,-381 776,-381 776,-345 892,-345 892,-381"/>
<text text-anchor="middle" x="834" y="-359.9" font-family="SansSerif" font-size="12.00">Asset Management</text>
</a>
</g>
</g>
<!-- BM -->
<g id="node5" class="node"><title>BM</title>
<polygon fill="#fefece" stroke="#a80036" points="757.5,-381 650.5,-381 650.5,-345 757.5,-345 757.5,-381"/>
<text text-anchor="middle" x="704" y="-359.9" font-family="SansSerif" font-size="12.00">Bed Management</text>
</g>
<!-- INV -->
<g id="node6" class="node"><title>INV</title>
<polygon fill="#fefece" stroke="#a80036" points="632,-381 522,-381 522,-345 632,-345 632,-381"/>
<text text-anchor="middle" x="577" y="-359.9" font-family="SansSerif" font-size="12.00">Inventory Control</text>
</g>
<!-- WM -->
<g id="node7" class="node"><title>WM</title>
<polygon fill="#fefece" stroke="#a80036" points="504,-381 362,-381 362,-345 504,-345 504,-381"/>
<text text-anchor="middle" x="433" y="-359.9" font-family="SansSerif" font-size="12.00">Workforce Management</text>
</g>
<!-- WM&#45;&gt;SEC -->
<g id="edge11" class="edge"><title>WM&#45;&gt;SEC</title>
<path fill="none" stroke="none" d="M495.764,-411.513C496.932,-412.397 498.094,-413.277 499.248,-414.15"/>
<polygon fill="none" stroke="none" points="497.192,-416.984 507.277,-420.229 501.417,-411.402 497.192,-416.984"/>
</g>
<!-- RCM -->
<g id="node8" class="node"><title>RCM</title>
<polygon fill="#fefece" stroke="#a80036" points="338,-381 174,-381 174,-345 338,-345 338,-381"/>
<text text-anchor="middle" x="256" y="-359.9" font-family="SansSerif" font-size="12.00">Revenue Cycle Management</text>
</g>
<!-- RCM&#45;&gt;MPI -->
<g id="edge9" class="edge"><title>RCM&#45;&gt;MPI</title>
<path fill="none" stroke="none" d="M244.807,-411.718C244.324,-413.777 243.847,-415.811 243.381,-417.796"/>
<polygon fill="none" stroke="none" points="244.289,-409.65 242.024,-420 250.249,-413.322 244.289,-409.65"/>
</g>
<!-- CM -->
<g id="node9" class="node"><title>CM</title>
<polygon fill="#fefece" stroke="#a80036" points="312,-290 200,-290 200,-254 312,-254 312,-290"/>
<text text-anchor="middle" x="256" y="-268.9" font-family="SansSerif" font-size="12.00">Care Management</text>
</g>
<!-- CM&#45;&gt;RCM -->
<g id="edge10" class="edge"><title>CM&#45;&gt;RCM</title>
<path fill="none" stroke="none" d="M256,-290.16C256,-305.92 256,-329.149 256,-344.893"/>
</g>
<!-- EHR -->
<g id="node10" class="node"><title>EHR</title>
<polygon fill="#fefece" stroke="#a80036" points="583,-290 497,-290 497,-254 583,-254 583,-290"/>
<text text-anchor="middle" x="540" y="-268.9" font-family="SansSerif" font-size="12.00">EHR Systems</text>
</g>
<!-- DS -->
<g id="node11" class="node"><title>DS</title>
<polygon fill="#fefece" stroke="#a80036" points="605,-215 475,-215 475,-179 605,-179 605,-215"/>
<text text-anchor="middle" x="540" y="-193.9" font-family="SansSerif" font-size="12.00">Departmental System</text>
</g>
<!-- DS&#45;&gt;EHR -->
<g id="edge6" class="edge"><title>DS&#45;&gt;EHR</title>
<path fill="none" stroke="#a80036" d="M540,-215.3C540,-226.937 540,-242.213 540,-253.824"/>
</g>
<!-- ICM -->
<g id="node12" class="node"><title>ICM</title>
<polygon fill="#fefece" stroke="#a80036" points="1132.5,-140 993.5,-140 993.5,-104 1132.5,-104 1132.5,-140"/>
<text text-anchor="middle" x="1063" y="-118.9" font-family="SansSerif" font-size="12.00">ICU Central Monitoring</text>
</g>
<!-- ICM&#45;&gt;DS -->
<g id="edge4" class="edge"><title>ICM&#45;&gt;DS</title>
<path fill="none" stroke="#a80036" d="M1040.69,-140.001C1024.92,-150.988 1002.79,-164.423 981,-171 914.769,-190.989 722.832,-195.22 615.285,-195.976"/>
<polygon fill="none" stroke="#a80036" points="615.126,-192.477 605.148,-196.039 615.169,-199.477 615.126,-192.477"/>
</g>
<!-- LIMS -->
<g id="node13" class="node"><title>LIMS</title>
<polygon fill="#fefece" stroke="#a80036" points="969,-68 715,-68 715,-32 969,-32 969,-68"/>
<text text-anchor="middle" x="842" y="-46.9" font-family="SansSerif" font-size="12.00">Laboratory Information Management System</text>
</g>
<!-- LIS -->
<g id="node14" class="node"><title>LIS</title>
<polygon fill="#fefece" stroke="#a80036" points="915,-140 733,-140 733,-104 915,-104 915,-140"/>
<text text-anchor="middle" x="824" y="-118.9" font-family="SansSerif" font-size="12.00">Laboratory Information System</text>
</g>
<!-- LIMS&#45;&gt;LIS -->
<g id="edge7" class="edge"><title>LIMS&#45;&gt;LIS</title>
<path fill="none" stroke="#a80036" d="M837.551,-68.3034C834.76,-79.1537 831.179,-93.0833 828.398,-103.896"/>
</g>
<!-- LIS&#45;&gt;DS -->
<g id="edge2" class="edge"><title>LIS&#45;&gt;DS</title>
<path fill="none" stroke="#a80036" d="M787.399,-140.028C763.772,-150.386 732.118,-163.1 703,-171 674.823,-178.644 643.23,-184.165 615.413,-188.042"/>
<polygon fill="none" stroke="#a80036" points="614.793,-184.594 605.349,-189.397 615.726,-191.531 614.793,-184.594"/>
</g>
<!-- LnD -->
<g id="node15" class="node"><title>LnD</title>
<polygon fill="#fefece" stroke="#a80036" points="190,-140 32,-140 32,-104 190,-104 190,-140"/>
<text text-anchor="middle" x="111" y="-118.9" font-family="SansSerif" font-size="12.00">Labor and Delivery System</text>
</g>
<!-- LnD&#45;&gt;DS -->
<g id="edge3" class="edge"><title>LnD&#45;&gt;DS</title>
<path fill="none" stroke="#a80036" d="M136.462,-140.095C154.072,-150.975 178.48,-164.247 202,-171 249.553,-184.654 380.481,-191.157 464.728,-194.012"/>
<polygon fill="none" stroke="#a80036" points="464.652,-197.512 474.761,-194.343 464.882,-190.516 464.652,-197.512"/>
</g>
<!-- PACS -->
<g id="node16" class="node"><title>PACS</title>
<polygon fill="#fefece" stroke="#a80036" points="690.5,-68 389.5,-68 389.5,-32 690.5,-32 690.5,-68"/>
<text text-anchor="middle" x="540" y="-46.9" font-family="SansSerif" font-size="12.00">Picture Archiving and Communication System (PACS)</text>
</g>
<!-- RIS -->
<g id="node17" class="node"><title>RIS</title>
<polygon fill="#fefece" stroke="#a80036" points="644.5,-140 435.5,-140 435.5,-104 644.5,-104 644.5,-140"/>
<text text-anchor="middle" x="540" y="-118.9" font-family="SansSerif" font-size="12.00">Radiology Information System (RIS)</text>
</g>
<!-- PACS&#45;&gt;RIS -->
<g id="edge8" class="edge"><title>PACS&#45;&gt;RIS</title>
<path fill="none" stroke="#a80036" d="M540,-68.3034C540,-79.1537 540,-93.0833 540,-103.896"/>
</g>
<!-- RIS&#45;&gt;DS -->
<g id="edge1" class="edge"><title>RIS&#45;&gt;DS</title>
<path fill="none" stroke="#a80036" d="M540,-140.3C540,-148.755 540,-159.131 540,-168.627"/>
<polygon fill="none" stroke="#a80036" points="536.5,-168.824 540,-178.824 543.5,-168.824 536.5,-168.824"/>
</g>
<!-- ED -->
<g id="node18" class="node"><title>ED</title>
<polygon fill="#fefece" stroke="#a80036" points="365,-140 291,-140 291,-104 365,-104 365,-140"/>
<text text-anchor="middle" x="328" y="-118.9" font-family="SansSerif" font-size="12.00">ED System</text>
</g>
<!-- ED&#45;&gt;DS -->
<g id="edge5" class="edge"><title>ED&#45;&gt;DS</title>
<path fill="none" stroke="#a80036" d="M341.054,-140.452C349.971,-151.047 362.727,-163.864 377,-171 403.915,-184.457 436.206,-191.078 464.921,-194.208"/>
<polygon fill="none" stroke="#a80036" points="464.624,-197.696 474.915,-195.175 465.298,-190.728 464.624,-197.696"/>
</g>
</g>
</svg>
