<?xml version="1.0" encoding="UTF-8" standalone="no"?>
<!DOCTYPE svg PUBLIC "-//W3C//DTD SVG 1.1//EN"
 "http://www.w3.org/Graphics/SVG/1.1/DTD/svg11.dtd">
<!-- Generated by graphviz version 2.40.1 (0)
 -->
<!-- Title: tech Pages: 1 -->
<svg width="1131pt" height="519pt"
 viewBox="0.00 0.00 1131.00 519.00" xmlns="http://www.w3.org/2000/svg" xmlns:xlink="http://www.w3.org/1999/xlink">
<g id="graph0" class="graph" transform="scale(1 1) rotate(0) translate(4 515)">
<title>tech</title>
<polygon fill="#ffffff" stroke="transparent" points="-4,4 -4,-515 1127,-515 1127,4 -4,4"/>
<g id="clust1" class="cluster">
<title>cluster_opi</title>
<polygon fill="none" stroke="#000000" points="349,-329 349,-503 1115,-503 1115,-329 349,-329"/>
</g>
<g id="clust2" class="cluster">
<title>cluster_Infrastructure</title>
<polygon fill="none" stroke="#000000" points="357,-420 357,-495 809,-495 809,-420 357,-420"/>
<text text-anchor="middle" x="583" y="-479.8" font-family="SansSerif" font-size="14.00" fill="#000000">Infrastructure</text>
</g>
<g id="clust4" class="cluster">
<title>cluster_Operations</title>
<polygon fill="none" stroke="#000000" points="549,-337 549,-412 1107,-412 1107,-337 549,-337"/>
<text text-anchor="middle" x="828" y="-396.8" font-family="SansSerif" font-size="14.00" fill="#000000">Operations</text>
</g>
<g id="clust5" class="cluster">
<title>cluster_Payment</title>
<polygon fill="none" stroke="#000000" points="357,-337 357,-412 541,-412 541,-337 357,-337"/>
<text text-anchor="middle" x="449" y="-396.8" font-family="SansSerif" font-size="14.00" fill="#000000">Payment</text>
</g>
<g id="clust6" class="cluster">
<title>cluster_Treatment</title>
<polygon fill="none" stroke="#000000" points="8,-8 8,-321 1077,-321 1077,-8 8,-8"/>
<text text-anchor="middle" x="542.5" y="-305.8" font-family="SansSerif" font-size="14.00" fill="#000000">Treatment</text>
</g>
<g id="clust8" class="cluster">
<title>cluster_Departments</title>
<polygon fill="none" stroke="#000000" points="16,-16 16,-246 1069,-246 1069,-16 16,-16"/>
<text text-anchor="middle" x="542.5" y="-230.8" font-family="SansSerif" font-size="14.00" fill="#000000">Departments</text>
</g>
<g id="clust9" class="cluster">
<title>cluster_ICU</title>
<polygon fill="none" stroke="#000000" points="905,-96 905,-171 1061,-171 1061,-96 905,-96"/>
<text text-anchor="middle" x="983" y="-155.8" font-family="SansSerif" font-size="14.00" fill="#000000">ICU</text>
</g>
<g id="clust10" class="cluster">
<title>cluster_Laboratory</title>
<polygon fill="none" stroke="#000000" points="699,-96 699,-171 897,-171 897,-96 699,-96"/>
<text text-anchor="middle" x="798" y="-155.8" font-family="SansSerif" font-size="14.00" fill="#000000">Laboratory</text>
</g>
<g id="clust11" class="cluster">
<title>cluster_LDD</title>
<polygon fill="none" stroke="#000000" points="517,-96 517,-171 691,-171 691,-96 517,-96"/>
<text text-anchor="middle" x="604" y="-155.8" font-family="SansSerif" font-size="14.00" fill="#000000">Labor and Delivery</text>
</g>
<g id="clust12" class="cluster">
<title>cluster_Imaging</title>
<polygon fill="none" stroke="#000000" points="199,-24 199,-171 509,-171 509,-24 199,-24"/>
<text text-anchor="middle" x="354" y="-155.8" font-family="SansSerif" font-size="14.00" fill="#000000">Imaging</text>
</g>
<g id="clust13" class="cluster">
<title>cluster_ED</title>
<polygon fill="none" stroke="#000000" points="24,-96 24,-171 191,-171 191,-96 24,-96"/>
<text text-anchor="middle" x="107.5" y="-155.8" font-family="SansSerif" font-size="14.00" fill="#000000">Emergency Department</text>
</g>
<!-- SEC -->
<g id="node1" class="node">
<title>SEC</title>
<g id="a_node1"><a xlink:href="technology_environment.html#ehr-systems" xlink:title="Security Infrastructure" target="parent">
<polygon fill="#fefece" stroke="#a80036" points="801,-464 667,-464 667,-428 801,-428 801,-464"/>
<text text-anchor="middle" x="734" y="-442.9" font-family="SansSerif" font-size="12.00" fill="#000000">Security Infrastructure</text>
</a>
</g>
</g>
<!-- CnC -->
<g id="node2" class="node">
<title>CnC</title>
<g id="a_node2"><a xlink:href="technology_environment.html#command-and-control-systems" xlink:title="Command and Control" target="parent">
<polygon fill="#fefece" stroke="#a80036" points="648.5,-464 511.5,-464 511.5,-428 648.5,-428 648.5,-464"/>
<text text-anchor="middle" x="580" y="-442.9" font-family="SansSerif" font-size="12.00" fill="#000000">Command and Control</text>
</a>
</g>
</g>
<!-- MPI -->
<g id="node3" class="node">
<title>MPI</title>
<g id="a_node3"><a xlink:href="technology_environment.html#master-patient-index" xlink:title="Master Patient Index" target="parent">
<polygon fill="#fefece" stroke="#a80036" points="493,-464 365,-464 365,-428 493,-428 493,-464"/>
<text text-anchor="middle" x="429" y="-442.9" font-family="SansSerif" font-size="12.00" fill="#000000">Master Patient Index</text>
</a>
</g>
</g>
<!-- AM -->
<g id="node4" class="node">
<title>AM</title>
<g id="a_node4"><a xlink:href="technology_environment.html#asset-management-systems" xlink:title="Asset Management" target="parent">
<polygon fill="#fefece" stroke="#a80036" points="1098.5,-381 979.5,-381 979.5,-345 1098.5,-345 1098.5,-381"/>
<text text-anchor="middle" x="1039" y="-359.9" font-family="SansSerif" font-size="12.00" fill="#000000">Asset Management</text>
</a>
</g>
</g>
<!-- BM -->
<g id="node5" class="node">
<title>BM</title>
<g id="a_node5"><a xlink:href="technology_environment.html#bed-management-aka-housekeeping-systems" xlink:title="Bed Management" target="parent">
<polygon fill="#fefece" stroke="#a80036" points="961,-381 849,-381 849,-345 961,-345 961,-381"/>
<text text-anchor="middle" x="905" y="-359.9" font-family="SansSerif" font-size="12.00" fill="#000000">Bed Management</text>
</a>
</g>
</g>
<!-- INV -->
<g id="node6" class="node">
<title>INV</title>
<g id="a_node6"><a xlink:href="technology_environment.html#inventory-control-systems" xlink:title="Inventory Control" target="parent">
<polygon fill="#fefece" stroke="#a80036" points="831,-381 721,-381 721,-345 831,-345 831,-381"/>
<text text-anchor="middle" x="776" y="-359.9" font-family="SansSerif" font-size="12.00" fill="#000000">Inventory Control</text>
</a>
</g>
</g>
<!-- WM -->
<g id="node7" class="node">
<title>WM</title>
<g id="a_node7"><a xlink:href="technology_environment.html#workforce-managementstaff-scheduling-systems" xlink:title="Workforce Management" target="parent">
<polygon fill="#fefece" stroke="#a80036" points="703,-381 557,-381 557,-345 703,-345 703,-381"/>
<text text-anchor="middle" x="630" y="-359.9" font-family="SansSerif" font-size="12.00" fill="#000000">Workforce Management</text>
</a>
</g>
</g>
<!-- WM&#45;&gt;SEC -->
<g id="edge10" class="edge">
<title>WM&#45;&gt;SEC</title>
<path fill="none" stroke="transparent" d="M691.3964,-411.9991C692.0707,-412.5372 692.7427,-413.0735 693.4121,-413.6078"/>
<polygon fill="transparent" stroke="transparent" points="691.4231,-416.4983 701.4223,-420.0005 695.7895,-411.0271 691.4231,-416.4983"/>
</g>
<!-- RCM -->
<g id="node8" class="node">
<title>RCM</title>
<g id="a_node8"><a xlink:href="technology_environment.html#revenue-cycle-managementbilling-systems" xlink:title="Revenue Cycle Management" target="parent">
<polygon fill="#fefece" stroke="#a80036" points="533.5,-381 364.5,-381 364.5,-345 533.5,-345 533.5,-381"/>
<text text-anchor="middle" x="449" y="-359.9" font-family="SansSerif" font-size="12.00" fill="#000000">Revenue Cycle Management</text>
</a>
</g>
</g>
<!-- RCM&#45;&gt;MPI -->
<g id="edge8" class="edge">
<title>RCM&#45;&gt;MPI</title>
<path fill="none" stroke="transparent" d="M437.1932,-411.9982C436.7038,-414.0292 436.2204,-416.0354 435.7478,-417.9964"/>
<polygon fill="transparent" stroke="transparent" points="437.0771,-409.7487 434.4003,-420 442.8856,-413.6555 437.0771,-409.7487"/>
</g>
<!-- CM -->
<g id="node9" class="node">
<title>CM</title>
<g id="a_node9"><a xlink:href="technology_environment.html#care-management-systems" xlink:title="Care Management" target="parent">
<polygon fill="#fefece" stroke="#a80036" points="507,-290 391,-290 391,-254 507,-254 507,-290"/>
<text text-anchor="middle" x="449" y="-268.9" font-family="SansSerif" font-size="12.00" fill="#000000">Care Management</text>
</a>
</g>
</g>
<!-- CM&#45;&gt;RCM -->
<g id="edge9" class="edge">
<title>CM&#45;&gt;RCM</title>
<path fill="none" stroke="transparent" d="M449,-290.4152C449,-306.3072 449,-329.13 449,-344.9227"/>
</g>
<!-- EHR -->
<g id="node10" class="node">
<title>EHR</title>
<g id="a_node10"><a xlink:href="technology_environment.html#ehr-systems" xlink:title="EHR Systems" target="parent">
<polygon fill="#fefece" stroke="#a80036" points="646,-290 562,-290 562,-254 646,-254 646,-290"/>
<text text-anchor="middle" x="604" y="-268.9" font-family="SansSerif" font-size="12.00" fill="#000000">EHR Systems</text>
</a>
</g>
</g>
<!-- DS -->
<g id="node11" class="node">
<title>DS</title>
<g id="a_node11"><a xlink:href="technology_environment.html#departmental-systems" xlink:title="Departmental System" target="parent">
<polygon fill="#fefece" stroke="#a80036" points="670,-215 538,-215 538,-179 670,-179 670,-215"/>
<text text-anchor="middle" x="604" y="-193.9" font-family="SansSerif" font-size="12.00" fill="#000000">Departmental System</text>
</a>
</g>
</g>
<!-- DS&#45;&gt;EHR -->
<g id="edge6" class="edge">
<title>DS&#45;&gt;EHR</title>
<path fill="none" stroke="#a80036" d="M604,-215.1554C604,-226.8606 604,-242.0284 604,-253.7518"/>
</g>
<!-- ICM -->
<g id="node12" class="node">
<title>ICM</title>
<g id="a_node12"><a xlink:href="technology_environment.html#icucentral-monitoring-systems" xlink:title="ICU Central Monitoring" target="parent">
<polygon fill="#fefece" stroke="#a80036" points="1052.5,-140 913.5,-140 913.5,-104 1052.5,-104 1052.5,-140"/>
<text text-anchor="middle" x="983" y="-118.9" font-family="SansSerif" font-size="12.00" fill="#000000">ICU Central Monitoring</text>
</a>
</g>
</g>
<!-- ICM&#45;&gt;DS -->
<g id="edge4" class="edge">
<title>ICM&#45;&gt;DS</title>
<path fill="none" stroke="#a80036" d="M959.2864,-140.1168C943.6191,-151.0532 922.1433,-164.1579 901,-171 861.4334,-183.8041 754.5177,-190.7781 680.3931,-194.1962"/>
<polygon fill="none" stroke="#a80036" points="679.9949,-190.7105 670.1618,-194.6552 680.3086,-197.7035 679.9949,-190.7105"/>
</g>
<!-- LIS -->
<g id="node13" class="node">
<title>LIS</title>
<g id="a_node13"><a xlink:href="technology_environment.html#laboratory-information-systems-lis" xlink:title="Laboratory Information System" target="parent">
<polygon fill="#fefece" stroke="#a80036" points="889,-140 707,-140 707,-104 889,-104 889,-140"/>
<text text-anchor="middle" x="798" y="-118.9" font-family="SansSerif" font-size="12.00" fill="#000000">Laboratory Information System</text>
</a>
</g>
</g>
<!-- LIS&#45;&gt;DS -->
<g id="edge2" class="edge">
<title>LIS&#45;&gt;DS</title>
<path fill="none" stroke="#a80036" d="M763.8181,-140.0174C744.0595,-149.9843 718.5264,-162.1131 695,-171 690.1294,-172.8398 685.0703,-174.6225 679.944,-176.3341"/>
<polygon fill="none" stroke="#a80036" points="678.4754,-173.1303 670.0349,-179.5341 680.6266,-179.7916 678.4754,-173.1303"/>
</g>
<!-- LnD -->
<g id="node14" class="node">
<title>LnD</title>
<g id="a_node14"><a xlink:href="technology_environment.html#labor-and-delivery-systems" xlink:title="Labor and Delivery System" target="parent">
<polygon fill="#fefece" stroke="#a80036" points="683.5,-140 524.5,-140 524.5,-104 683.5,-104 683.5,-140"/>
<text text-anchor="middle" x="604" y="-118.9" font-family="SansSerif" font-size="12.00" fill="#000000">Labor and Delivery System</text>
</a>
</g>
</g>
<!-- LnD&#45;&gt;DS -->
<g id="edge3" class="edge">
<title>LnD&#45;&gt;DS</title>
<path fill="none" stroke="#a80036" d="M604,-140.1554C604,-148.6599 604,-158.9924 604,-168.5036"/>
<polygon fill="none" stroke="#a80036" points="600.5001,-168.7518 604,-178.7518 607.5001,-168.7519 600.5001,-168.7518"/>
</g>
<!-- PACS -->
<g id="node15" class="node">
<title>PACS</title>
<g id="a_node15"><a xlink:href="technology_environment.html#picture-archival-and-communication-systems-pacs" xlink:title="Picture Archiving and Communication System (PACS)" target="parent">
<polygon fill="#fefece" stroke="#a80036" points="501,-68 207,-68 207,-32 501,-32 501,-68"/>
<text text-anchor="middle" x="354" y="-46.9" font-family="SansSerif" font-size="12.00" fill="#000000">Picture Archiving and Communication System (PACS)</text>
</a>
</g>
</g>
<!-- RIS -->
<g id="node16" class="node">
<title>RIS</title>
<g id="a_node16"><a xlink:href="technology_environment.html#radiology-information-systems-ris" xlink:title="Radiology Information System (RIS)" target="parent">
<polygon fill="#fefece" stroke="#a80036" points="478.5,-140 275.5,-140 275.5,-104 478.5,-104 478.5,-140"/>
<text text-anchor="middle" x="377" y="-118.9" font-family="SansSerif" font-size="12.00" fill="#000000">Radiology Information System (RIS)</text>
</a>
</g>
</g>
<!-- PACS&#45;&gt;RIS -->
<g id="edge7" class="edge">
<title>PACS&#45;&gt;RIS</title>
<path fill="none" stroke="#a80036" d="M359.8039,-68.1686C363.2639,-79 367.6442,-92.7124 371.118,-103.5867"/>
</g>
<!-- RIS&#45;&gt;DS -->
<g id="edge1" class="edge">
<title>RIS&#45;&gt;DS</title>
<path fill="none" stroke="#a80036" d="M424.5636,-140.0274C450.5491,-149.6507 483.3829,-161.4456 513,-171 518.1798,-172.671 523.5428,-174.3449 528.9548,-175.9929"/>
<polygon fill="none" stroke="#a80036" points="528.1361,-179.4014 538.7203,-178.9253 530.1493,-172.6972 528.1361,-179.4014"/>
</g>
<!-- ED -->
<g id="node17" class="node">
<title>ED</title>
<g id="a_node17"><a xlink:href="technology_environment.html#emergency-department-systems" xlink:title="ED System" target="parent">
<polygon fill="#fefece" stroke="#a80036" points="183,-140 111,-140 111,-104 183,-104 183,-140"/>
<text text-anchor="middle" x="147" y="-118.9" font-family="SansSerif" font-size="12.00" fill="#000000">ED System</text>
</a>
</g>
</g>
<!-- ED&#45;&gt;DS -->
<g id="edge5" class="edge">
<title>ED&#45;&gt;DS</title>
<path fill="none" stroke="#a80036" d="M159.4293,-140.2502C168.0212,-151.2399 180.4926,-164.3537 195,-171 224.364,-184.4526 417.8438,-191.9021 527.8508,-195.0964"/>
<polygon fill="none" stroke="#a80036" points="527.8062,-198.5965 537.902,-195.3832 528.0059,-191.5993 527.8062,-198.5965"/>
</g>
</g>
</svg>
