<?xml version="1.0" encoding="UTF-8" standalone="no"?><svg xmlns="http://www.w3.org/2000/svg" xmlns:xlink="http://www.w3.org/1999/xlink" contentScriptType="application/ecmascript" contentStyleType="text/css" height="104px" preserveAspectRatio="none" style="width:287px;height:104px;" version="1.1" viewBox="0 0 287 104" width="287px" zoomAndPan="magnify"><defs><filter height="300%" id="ffszb6h" width="300%" x="-1" y="-1"><feGaussianBlur result="blurOut" stdDeviation="2.0"/><feColorMatrix in="blurOut" result="blurOut2" type="matrix" values="0 0 0 0 0 0 0 0 0 0 0 0 0 0 0 0 0 0 .4 0"/><feOffset dx="4.0" dy="4.0" in="blurOut2" result="blurOut3"/><feBlend in="SourceGraphic" in2="blurOut3" mode="normal"/></filter></defs><g><rect fill="#FFFFFF" filter="url(#ffszb6h)" height="14.3516" style="stroke: #A80036; stroke-width: 1.0;" width="10" x="64" y="71.6094"/><rect fill="#FFFFFF" filter="url(#ffszb6h)" height="14.3516" style="stroke: #A80036; stroke-width: 1.0;" width="10" x="206" y="71.6094"/><line style="stroke: #A80036; stroke-width: 1.0; stroke-dasharray: 5.0,5.0;" x1="69" x2="69" y1="39.6094" y2="103.9609"/><line style="stroke: #A80036; stroke-width: 1.0; stroke-dasharray: 5.0,5.0;" x1="211" x2="211" y1="39.6094" y2="103.9609"/><rect fill="#FEFECE" filter="url(#ffszb6h)" height="31.6094" style="stroke: #A80036; stroke-width: 1.5;" width="118" x="8" y="3"/><text fill="#000000" font-family="sans-serif" font-size="14" lengthAdjust="spacingAndGlyphs" textLength="104" x="15" y="24.5332">Measure Source</text><rect fill="#FEFECE" filter="url(#ffszb6h)" height="31.6094" style="stroke: #A80036; stroke-width: 1.5;" width="138" x="140" y="3"/><text fill="#000000" font-family="sans-serif" font-size="14" lengthAdjust="spacingAndGlyphs" textLength="124" x="147" y="24.5332">Measure Consumer</text><rect fill="#FFFFFF" filter="url(#ffszb6h)" height="14.3516" style="stroke: #A80036; stroke-width: 1.0;" width="10" x="64" y="71.6094"/><rect fill="#FFFFFF" filter="url(#ffszb6h)" height="14.3516" style="stroke: #A80036; stroke-width: 1.0;" width="10" x="206" y="71.6094"/><polygon fill="#A80036" points="194,67.6094,204,71.6094,194,75.6094,198,71.6094" style="stroke: #A80036; stroke-width: 1.0;"/><line style="stroke: #A80036; stroke-width: 1.0;" x1="74" x2="200" y1="71.6094" y2="71.6094"/><text fill="#000000" font-family="sans-serif" font-size="13" lengthAdjust="spacingAndGlyphs" textLength="99" x="81" y="67.1045">1. Push Measure</text><polygon fill="#A80036" points="80,81.9609,70,85.9609,80,89.9609,76,85.9609" style="stroke: #A80036; stroke-width: 1.0;"/><line style="stroke: #A80036; stroke-width: 1.0; stroke-dasharray: 2.0,2.0;" x1="74" x2="210" y1="85.9609" y2="85.9609"/></g></svg>