<?xml version="1.0" encoding="UTF-8" standalone="no"?><svg xmlns="http://www.w3.org/2000/svg" xmlns:xlink="http://www.w3.org/1999/xlink" contentScriptType="application/ecmascript" contentStyleType="text/css" height="222px" preserveAspectRatio="none" style="width:436px;height:222px;" version="1.1" viewBox="0 0 436 222" width="436px" zoomAndPan="magnify"><defs><filter height="300%" id="fde4lbs" width="300%" x="-1" y="-1"><feGaussianBlur result="blurOut" stdDeviation="2.0"/><feColorMatrix in="blurOut" result="blurOut2" type="matrix" values="0 0 0 0 0 0 0 0 0 0 0 0 0 0 0 0 0 0 .4 0"/><feOffset dx="4.0" dy="4.0" in="blurOut2" result="blurOut3"/><feBlend in="SourceGraphic" in2="blurOut3" mode="normal"/></filter></defs><g><rect fill="#FFFFFF" filter="url(#fde4lbs)" height="28" style="stroke: #A80036; stroke-width: 1.0;" width="10" x="72.5" y="79.6094"/><rect fill="#FFFFFF" filter="url(#fde4lbs)" height="14.3516" style="stroke: #A80036; stroke-width: 1.0;" width="10" x="213" y="144.9609"/><rect fill="#FFFFFF" filter="url(#fde4lbs)" height="14.3516" style="stroke: #A80036; stroke-width: 1.0;" width="10" x="213" y="189.3125"/><rect fill="#FFFFFF" filter="url(#fde4lbs)" height="14.3516" style="stroke: #A80036; stroke-width: 1.0;" width="10" x="355" y="144.9609"/><rect fill="#FFFFFF" filter="url(#fde4lbs)" height="14.3516" style="stroke: #A80036; stroke-width: 1.0;" width="10" x="355" y="189.3125"/><line style="stroke: #A80036; stroke-width: 1.0; stroke-dasharray: 5.0,5.0;" x1="77" x2="77" y1="39.6094" y2="221.6641"/><line style="stroke: #A80036; stroke-width: 1.0; stroke-dasharray: 5.0,5.0;" x1="218" x2="218" y1="39.6094" y2="221.6641"/><line style="stroke: #A80036; stroke-width: 1.0; stroke-dasharray: 5.0,5.0;" x1="360" x2="360" y1="39.6094" y2="221.6641"/><rect fill="#FEFECE" filter="url(#fde4lbs)" height="31.6094" style="stroke: #A80036; stroke-width: 1.5;" width="135" x="8" y="3"/><text fill="#000000" font-family="sans-serif" font-size="14" lengthAdjust="spacingAndGlyphs" textLength="121" x="15" y="24.5332">Measure Computer</text><rect fill="#FEFECE" filter="url(#fde4lbs)" height="31.6094" style="stroke: #A80036; stroke-width: 1.5;" width="118" x="157" y="3"/><text fill="#000000" font-family="sans-serif" font-size="14" lengthAdjust="spacingAndGlyphs" textLength="104" x="164" y="24.5332">Measure Source</text><rect fill="#FEFECE" filter="url(#fde4lbs)" height="31.6094" style="stroke: #A80036; stroke-width: 1.5;" width="138" x="289" y="3"/><text fill="#000000" font-family="sans-serif" font-size="14" lengthAdjust="spacingAndGlyphs" textLength="124" x="296" y="24.5332">Measure Consumer</text><rect fill="#FFFFFF" filter="url(#fde4lbs)" height="28" style="stroke: #A80036; stroke-width: 1.0;" width="10" x="72.5" y="79.6094"/><rect fill="#FFFFFF" filter="url(#fde4lbs)" height="14.3516" style="stroke: #A80036; stroke-width: 1.0;" width="10" x="213" y="144.9609"/><rect fill="#FFFFFF" filter="url(#fde4lbs)" height="14.3516" style="stroke: #A80036; stroke-width: 1.0;" width="10" x="213" y="189.3125"/><rect fill="#FFFFFF" filter="url(#fde4lbs)" height="14.3516" style="stroke: #A80036; stroke-width: 1.0;" width="10" x="355" y="144.9609"/><rect fill="#FFFFFF" filter="url(#fde4lbs)" height="14.3516" style="stroke: #A80036; stroke-width: 1.0;" width="10" x="355" y="189.3125"/><line style="stroke: #A80036; stroke-width: 1.0;" x1="82.5" x2="124.5" y1="71.9609" y2="71.9609"/><line style="stroke: #A80036; stroke-width: 1.0;" x1="124.5" x2="124.5" y1="71.9609" y2="84.9609"/><line style="stroke: #A80036; stroke-width: 1.0;" x1="83.5" x2="124.5" y1="84.9609" y2="84.9609"/><polygon fill="#A80036" points="93.5,80.9609,83.5,84.9609,93.5,88.9609,89.5,84.9609" style="stroke: #A80036; stroke-width: 1.0;"/><text fill="#000000" font-family="sans-serif" font-size="13" lengthAdjust="spacingAndGlyphs" textLength="121" x="89.5" y="67.1045">1. Compute Measure</text><polygon fill="#A80036" points="343,140.9609,353,144.9609,343,148.9609,347,144.9609" style="stroke: #A80036; stroke-width: 1.0;"/><line style="stroke: #A80036; stroke-width: 1.0;" x1="223" x2="349" y1="144.9609" y2="144.9609"/><text fill="#000000" font-family="sans-serif" font-size="13" lengthAdjust="spacingAndGlyphs" textLength="107" x="230" y="140.4561">2. Report Measure</text><polygon fill="#A80036" points="229,155.3125,219,159.3125,229,163.3125,225,159.3125" style="stroke: #A80036; stroke-width: 1.0;"/><line style="stroke: #A80036; stroke-width: 1.0; stroke-dasharray: 2.0,2.0;" x1="223" x2="359" y1="159.3125" y2="159.3125"/><polygon fill="#A80036" points="234,185.3125,224,189.3125,234,193.3125,230,189.3125" style="stroke: #A80036; stroke-width: 1.0;"/><line style="stroke: #A80036; stroke-width: 1.0;" x1="228" x2="354" y1="189.3125" y2="189.3125"/><text fill="#000000" font-family="sans-serif" font-size="13" lengthAdjust="spacingAndGlyphs" textLength="104" x="240" y="184.8076">3. Query Measure</text><polygon fill="#A80036" points="348,199.6641,358,203.6641,348,207.6641,352,203.6641" style="stroke: #A80036; stroke-width: 1.0;"/><line style="stroke: #A80036; stroke-width: 1.0; stroke-dasharray: 2.0,2.0;" x1="218" x2="354" y1="203.6641" y2="203.6641"/></g></svg>