<?xml version="1.0" encoding="UTF-8" standalone="no"?><svg xmlns="http://www.w3.org/2000/svg" xmlns:xlink="http://www.w3.org/1999/xlink" contentScriptType="application/ecmascript" contentStyleType="text/css" height="283px" preserveAspectRatio="none" style="width:594px;height:283px;" version="1.1" viewBox="0 0 594 283" width="594px" zoomAndPan="magnify"><defs><filter height="300%" id="fvp8ty2" width="300%" x="-1" y="-1"><feGaussianBlur result="blurOut" stdDeviation="2.0"/><feColorMatrix in="blurOut" result="blurOut2" type="matrix" values="0 0 0 0 0 0 0 0 0 0 0 0 0 0 0 0 0 0 .4 0"/><feOffset dx="4.0" dy="4.0" in="blurOut2" result="blurOut3"/><feBlend in="SourceGraphic" in2="blurOut3" mode="normal"/></filter></defs><g><rect fill="#FFFFFF" filter="url(#fvp8ty2)" height="28" style="stroke: #A80036; stroke-width: 1.0;" width="10" x="72.5" y="79.6094"/><rect fill="#FFFFFF" filter="url(#fvp8ty2)" height="30.3516" style="stroke: #A80036; stroke-width: 1.0;" width="10" x="72.5" y="144.9609"/><rect fill="#FFFFFF" filter="url(#fvp8ty2)" height="30.3516" style="stroke: #A80036; stroke-width: 1.0;" width="10" x="251.5" y="144.9609"/><rect fill="#FFFFFF" filter="url(#fvp8ty2)" height="14.3516" style="stroke: #A80036; stroke-width: 1.0;" width="10" x="371" y="205.6641"/><rect fill="#FFFFFF" filter="url(#fvp8ty2)" height="14.3516" style="stroke: #A80036; stroke-width: 1.0;" width="10" x="371" y="250.0156"/><rect fill="#FFFFFF" filter="url(#fvp8ty2)" height="14.3516" style="stroke: #A80036; stroke-width: 1.0;" width="10" x="513" y="205.6641"/><rect fill="#FFFFFF" filter="url(#fvp8ty2)" height="14.3516" style="stroke: #A80036; stroke-width: 1.0;" width="10" x="513" y="250.0156"/><line style="stroke: #A80036; stroke-width: 1.0; stroke-dasharray: 5.0,5.0;" x1="77" x2="77" y1="39.6094" y2="282.3672"/><line style="stroke: #A80036; stroke-width: 1.0; stroke-dasharray: 5.0,5.0;" x1="256" x2="256" y1="39.6094" y2="282.3672"/><line style="stroke: #A80036; stroke-width: 1.0; stroke-dasharray: 5.0,5.0;" x1="376" x2="376" y1="39.6094" y2="282.3672"/><line style="stroke: #A80036; stroke-width: 1.0; stroke-dasharray: 5.0,5.0;" x1="518" x2="518" y1="39.6094" y2="282.3672"/><rect fill="#FEFECE" filter="url(#fvp8ty2)" height="31.6094" style="stroke: #A80036; stroke-width: 1.5;" width="135" x="8" y="3"/><text fill="#000000" font-family="sans-serif" font-size="14" lengthAdjust="spacingAndGlyphs" textLength="121" x="15" y="24.5332">Measure Computer</text><rect fill="#FEFECE" filter="url(#fvp8ty2)" height="31.6094" style="stroke: #A80036; stroke-width: 1.5;" width="93" x="208" y="3"/><text fill="#000000" font-family="sans-serif" font-size="14" lengthAdjust="spacingAndGlyphs" textLength="79" x="215" y="24.5332">Data Source</text><rect fill="#FEFECE" filter="url(#fvp8ty2)" height="31.6094" style="stroke: #A80036; stroke-width: 1.5;" width="118" x="315" y="3"/><text fill="#000000" font-family="sans-serif" font-size="14" lengthAdjust="spacingAndGlyphs" textLength="104" x="322" y="24.5332">Measure Source</text><rect fill="#FEFECE" filter="url(#fvp8ty2)" height="31.6094" style="stroke: #A80036; stroke-width: 1.5;" width="138" x="447" y="3"/><text fill="#000000" font-family="sans-serif" font-size="14" lengthAdjust="spacingAndGlyphs" textLength="124" x="454" y="24.5332">Measure Consumer</text><rect fill="#FFFFFF" filter="url(#fvp8ty2)" height="28" style="stroke: #A80036; stroke-width: 1.0;" width="10" x="72.5" y="79.6094"/><rect fill="#FFFFFF" filter="url(#fvp8ty2)" height="30.3516" style="stroke: #A80036; stroke-width: 1.0;" width="10" x="72.5" y="144.9609"/><rect fill="#FFFFFF" filter="url(#fvp8ty2)" height="30.3516" style="stroke: #A80036; stroke-width: 1.0;" width="10" x="251.5" y="144.9609"/><rect fill="#FFFFFF" filter="url(#fvp8ty2)" height="14.3516" style="stroke: #A80036; stroke-width: 1.0;" width="10" x="371" y="205.6641"/><rect fill="#FFFFFF" filter="url(#fvp8ty2)" height="14.3516" style="stroke: #A80036; stroke-width: 1.0;" width="10" x="371" y="250.0156"/><rect fill="#FFFFFF" filter="url(#fvp8ty2)" height="14.3516" style="stroke: #A80036; stroke-width: 1.0;" width="10" x="513" y="205.6641"/><rect fill="#FFFFFF" filter="url(#fvp8ty2)" height="14.3516" style="stroke: #A80036; stroke-width: 1.0;" width="10" x="513" y="250.0156"/><line style="stroke: #A80036; stroke-width: 1.0;" x1="82.5" x2="124.5" y1="71.9609" y2="71.9609"/><line style="stroke: #A80036; stroke-width: 1.0;" x1="124.5" x2="124.5" y1="71.9609" y2="84.9609"/><line style="stroke: #A80036; stroke-width: 1.0;" x1="83.5" x2="124.5" y1="84.9609" y2="84.9609"/><polygon fill="#A80036" points="93.5,80.9609,83.5,84.9609,93.5,88.9609,89.5,84.9609" style="stroke: #A80036; stroke-width: 1.0;"/><text fill="#000000" font-family="sans-serif" font-size="13" lengthAdjust="spacingAndGlyphs" textLength="121" x="89.5" y="67.1045">1. Compute Measure</text><polygon fill="#A80036" points="239.5,140.9609,249.5,144.9609,239.5,148.9609,243.5,144.9609" style="stroke: #A80036; stroke-width: 1.0;"/><line style="stroke: #A80036; stroke-width: 1.0;" x1="82.5" x2="245.5" y1="144.9609" y2="144.9609"/><text fill="#000000" font-family="sans-serif" font-size="13" lengthAdjust="spacingAndGlyphs" textLength="155" x="89.5" y="140.4561">2. Search FHIR Resources</text><polygon fill="#A80036" points="88.5,171.3125,78.5,175.3125,88.5,179.3125,84.5,175.3125" style="stroke: #A80036; stroke-width: 1.0;"/><line style="stroke: #A80036; stroke-width: 1.0; stroke-dasharray: 2.0,2.0;" x1="82.5" x2="255.5" y1="175.3125" y2="175.3125"/><text fill="#000000" font-family="sans-serif" font-size="13" lengthAdjust="spacingAndGlyphs" textLength="118" x="94.5" y="170.8076">3. Search Response</text><polygon fill="#A80036" points="501,201.6641,511,205.6641,501,209.6641,505,205.6641" style="stroke: #A80036; stroke-width: 1.0;"/><line style="stroke: #A80036; stroke-width: 1.0;" x1="381" x2="507" y1="205.6641" y2="205.6641"/><text fill="#000000" font-family="sans-serif" font-size="13" lengthAdjust="spacingAndGlyphs" textLength="107" x="388" y="201.1592">4. Report Measure</text><polygon fill="#A80036" points="387,216.0156,377,220.0156,387,224.0156,383,220.0156" style="stroke: #A80036; stroke-width: 1.0;"/><line style="stroke: #A80036; stroke-width: 1.0; stroke-dasharray: 2.0,2.0;" x1="381" x2="517" y1="220.0156" y2="220.0156"/><polygon fill="#A80036" points="392,246.0156,382,250.0156,392,254.0156,388,250.0156" style="stroke: #A80036; stroke-width: 1.0;"/><line style="stroke: #A80036; stroke-width: 1.0;" x1="386" x2="512" y1="250.0156" y2="250.0156"/><text fill="#000000" font-family="sans-serif" font-size="13" lengthAdjust="spacingAndGlyphs" textLength="104" x="398" y="245.5107">5. Query Measure</text><polygon fill="#A80036" points="506,260.3672,516,264.3672,506,268.3672,510,264.3672" style="stroke: #A80036; stroke-width: 1.0;"/><line style="stroke: #A80036; stroke-width: 1.0; stroke-dasharray: 2.0,2.0;" x1="376" x2="512" y1="264.3672" y2="264.3672"/></g></svg>