<?xml version="1.0" encoding="UTF-8" standalone="no"?><svg xmlns="http://www.w3.org/2000/svg" xmlns:xlink="http://www.w3.org/1999/xlink" contentScriptType="application/ecmascript" contentStyleType="text/css" height="274px" preserveAspectRatio="none" style="width:793px;height:274px;" version="1.1" viewBox="0 0 793 274" width="793px" zoomAndPan="magnify"><defs><filter height="300%" id="fkayy3j" width="300%" x="-1" y="-1"><feGaussianBlur result="blurOut" stdDeviation="2.0"/><feColorMatrix in="blurOut" result="blurOut2" type="matrix" values="0 0 0 0 0 0 0 0 0 0 0 0 0 0 0 0 0 0 .4 0"/><feOffset dx="4.0" dy="4.0" in="blurOut2" result="blurOut3"/><feBlend in="SourceGraphic" in2="blurOut3" mode="normal"/></filter></defs><g><rect fill="#FFFFFF" filter="url(#fkayy3j)" height="74.7031" style="stroke: #A80036; stroke-width: 1.0;" width="10" x="63.5" y="119.6094"/><rect fill="#FFFFFF" filter="url(#fkayy3j)" height="30.3516" style="stroke: #A80036; stroke-width: 1.0;" width="10" x="63.5" y="224.6641"/><rect fill="#FFFFFF" filter="url(#fkayy3j)" height="74.7031" style="stroke: #A80036; stroke-width: 1.0;" width="10" x="321.5" y="119.6094"/><rect fill="#FFFFFF" filter="url(#fkayy3j)" height="30.3516" style="stroke: #A80036; stroke-width: 1.0;" width="10" x="321.5" y="224.6641"/><rect fill="#FFFFFF" filter="url(#fkayy3j)" height="14.3516" style="stroke: #A80036; stroke-width: 1.0;" width="10" x="711.5" y="149.9609"/><line style="stroke: #A80036; stroke-width: 1.0; stroke-dasharray: 5.0,5.0;" x1="68" x2="68" y1="87.6094" y2="273.3672"/><line style="stroke: #A80036; stroke-width: 1.0; stroke-dasharray: 5.0,5.0;" x1="326.5" x2="326.5" y1="87.6094" y2="273.3672"/><line style="stroke: #A80036; stroke-width: 1.0; stroke-dasharray: 5.0,5.0;" x1="716.5" x2="716.5" y1="87.6094" y2="273.3672"/><text fill="#000000" font-family="sans-serif" font-size="14" lengthAdjust="spacingAndGlyphs" textLength="115" x="8" y="84.5332">Public Health User</text><ellipse cx="68.5" cy="13" fill="#FEFECE" filter="url(#fkayy3j)" rx="8" ry="8" style="stroke: #A80036; stroke-width: 2.0;"/><path d="M68.5,21 L68.5,48 M55.5,29 L81.5,29 M68.5,48 L55.5,63 M68.5,48 L81.5,63 " fill="#FEFECE" filter="url(#fkayy3j)" style="stroke: #A80036; stroke-width: 2.0;"/><rect fill="#FEFECE" filter="url(#fkayy3j)" height="31.6094" style="stroke: #A80036; stroke-width: 1.5;" width="140" x="254.5" y="51"/><text fill="#000000" font-family="sans-serif" font-size="14" lengthAdjust="spacingAndGlyphs" textLength="126" x="261.5" y="72.5332">Availability Reporter</text><rect fill="#FEFECE" filter="url(#fkayy3j)" height="31.6094" style="stroke: #A80036; stroke-width: 1.5;" width="140" x="644.5" y="51"/><text fill="#000000" font-family="sans-serif" font-size="14" lengthAdjust="spacingAndGlyphs" textLength="126" x="651.5" y="72.5332">Availability Collector</text><rect fill="#FFFFFF" filter="url(#fkayy3j)" height="74.7031" style="stroke: #A80036; stroke-width: 1.0;" width="10" x="63.5" y="119.6094"/><rect fill="#FFFFFF" filter="url(#fkayy3j)" height="30.3516" style="stroke: #A80036; stroke-width: 1.0;" width="10" x="63.5" y="224.6641"/><rect fill="#FFFFFF" filter="url(#fkayy3j)" height="74.7031" style="stroke: #A80036; stroke-width: 1.0;" width="10" x="321.5" y="119.6094"/><rect fill="#FFFFFF" filter="url(#fkayy3j)" height="30.3516" style="stroke: #A80036; stroke-width: 1.0;" width="10" x="321.5" y="224.6641"/><rect fill="#FFFFFF" filter="url(#fkayy3j)" height="14.3516" style="stroke: #A80036; stroke-width: 1.0;" width="10" x="711.5" y="149.9609"/><polygon fill="#A80036" points="309.5,115.6094,319.5,119.6094,309.5,123.6094,313.5,119.6094" style="stroke: #A80036; stroke-width: 1.0;"/><line style="stroke: #A80036; stroke-width: 1.0;" x1="73.5" x2="315.5" y1="119.6094" y2="119.6094"/><text fill="#000000" font-family="sans-serif" font-size="13" lengthAdjust="spacingAndGlyphs" textLength="136" x="80.5" y="115.1045">1. User Initiates Search</text><polygon fill="#A80036" points="699.5,145.9609,709.5,149.9609,699.5,153.9609,703.5,149.9609" style="stroke: #A80036; stroke-width: 1.0;"/><line style="stroke: #A80036; stroke-width: 1.0;" x1="331.5" x2="705.5" y1="149.9609" y2="149.9609"/><text fill="#000000" font-family="sans-serif" font-size="13" lengthAdjust="spacingAndGlyphs" textLength="361" x="338.5" y="145.4561">2. Availability Reporter gathers data from Availability Collectors</text><polygon fill="#A80036" points="342.5,160.3125,332.5,164.3125,342.5,168.3125,338.5,164.3125" style="stroke: #A80036; stroke-width: 1.0;"/><line style="stroke: #A80036; stroke-width: 1.0; stroke-dasharray: 2.0,2.0;" x1="336.5" x2="715.5" y1="164.3125" y2="164.3125"/><polygon fill="#A80036" points="79.5,190.3125,69.5,194.3125,79.5,198.3125,75.5,194.3125" style="stroke: #A80036; stroke-width: 1.0;"/><line style="stroke: #A80036; stroke-width: 1.0; stroke-dasharray: 2.0,2.0;" x1="73.5" x2="325.5" y1="194.3125" y2="194.3125"/><text fill="#000000" font-family="sans-serif" font-size="13" lengthAdjust="spacingAndGlyphs" textLength="106" x="85.5" y="189.8076">3. Display Results</text><polygon fill="#A80036" points="309.5,220.6641,319.5,224.6641,309.5,228.6641,313.5,224.6641" style="stroke: #A80036; stroke-width: 1.0;"/><line style="stroke: #A80036; stroke-width: 1.0;" x1="73.5" x2="315.5" y1="224.6641" y2="224.6641"/><text fill="#000000" font-family="sans-serif" font-size="13" lengthAdjust="spacingAndGlyphs" textLength="234" x="80.5" y="220.1592">4. User refines Focus or Form of Display</text><polygon fill="#A80036" points="79.5,251.0156,69.5,255.0156,79.5,259.0156,75.5,255.0156" style="stroke: #A80036; stroke-width: 1.0;"/><line style="stroke: #A80036; stroke-width: 1.0; stroke-dasharray: 2.0,2.0;" x1="73.5" x2="325.5" y1="255.0156" y2="255.0156"/><text fill="#000000" font-family="sans-serif" font-size="13" lengthAdjust="spacingAndGlyphs" textLength="153" x="85.5" y="250.5107">5. Display Refined Results</text></g></svg>