<?xml version="1.0" encoding="UTF-8" standalone="no"?><svg xmlns="http://www.w3.org/2000/svg" xmlns:xlink="http://www.w3.org/1999/xlink" contentScriptType="application/ecmascript" contentStyleType="text/css" height="261px" preserveAspectRatio="none" style="width:992px;height:261px;" version="1.1" viewBox="0 0 992 261" width="992px" zoomAndPan="magnify"><defs><filter height="300%" id="fa0ysopcassle" width="300%" x="-1" y="-1"><feGaussianBlur result="blurOut" stdDeviation="2.0"/><feColorMatrix in="blurOut" result="blurOut2" type="matrix" values="0 0 0 0 0 0 0 0 0 0 0 0 0 0 0 0 0 0 .4 0"/><feOffset dx="4.0" dy="4.0" in="blurOut2" result="blurOut3"/><feBlend in="SourceGraphic" in2="blurOut3" mode="normal"/></filter></defs><g><rect fill="#FFFFFF" filter="url(#fa0ysopcassle)" height="14" style="stroke: #A80036; stroke-width: 1.0;" width="10" x="107.5" y="117.4297"/><rect fill="#FFFFFF" filter="url(#fa0ysopcassle)" height="14" style="stroke: #A80036; stroke-width: 1.0;" width="10" x="359.5" y="117.4297"/><rect fill="#FFFFFF" filter="url(#fa0ysopcassle)" height="63.2656" style="stroke: #A80036; stroke-width: 1.0;" width="10" x="538" y="168.5625"/><rect fill="#FFFFFF" filter="url(#fa0ysopcassle)" height="63.2656" style="stroke: #A80036; stroke-width: 1.0;" width="10" x="538" y="168.5625"/><rect fill="#FFFFFF" filter="url(#fa0ysopcassle)" height="29.1328" style="stroke: #A80036; stroke-width: 1.0;" width="10" x="918.5" y="202.6953"/><line style="stroke: #A80036; stroke-width: 1.0; stroke-dasharray: 5.0,5.0;" x1="112" x2="112" y1="86.2969" y2="249.8281"/><line style="stroke: #A80036; stroke-width: 1.0; stroke-dasharray: 5.0,5.0;" x1="364" x2="364" y1="86.2969" y2="249.8281"/><line style="stroke: #A80036; stroke-width: 1.0; stroke-dasharray: 5.0,5.0;" x1="538" x2="538" y1="86.2969" y2="249.8281"/><line style="stroke: #A80036; stroke-width: 1.0; stroke-dasharray: 5.0,5.0;" x1="683" x2="683" y1="86.2969" y2="249.8281"/><line style="stroke: #A80036; stroke-width: 1.0; stroke-dasharray: 5.0,5.0;" x1="923.5" x2="923.5" y1="86.2969" y2="249.8281"/><rect fill="#FEFECE" filter="url(#fa0ysopcassle)" height="30.2969" style="stroke: #A80036; stroke-width: 1.5;" width="205" x="8" y="51"/><text fill="#000000" font-family="sans-serif" font-size="14" lengthAdjust="spacingAndGlyphs" textLength="191" x="15" y="70.9951">Measure Definition Consumer</text><rect fill="#FEFECE" filter="url(#fa0ysopcassle)" height="30.2969" style="stroke: #A80036; stroke-width: 1.5;" width="183" x="271" y="51"/><text fill="#000000" font-family="sans-serif" font-size="14" lengthAdjust="spacingAndGlyphs" textLength="169" x="278" y="70.9951">Measure Definition Source</text><rect fill="#FEFECE" filter="url(#fa0ysopcassle)" height="30.2969" style="stroke: #A80036; stroke-width: 1.5;" width="136" x="468" y="51"/><text fill="#000000" font-family="sans-serif" font-size="14" lengthAdjust="spacingAndGlyphs" textLength="122" x="475" y="70.9951">Measure Computer</text><text fill="#000000" font-family="sans-serif" font-size="14" lengthAdjust="spacingAndGlyphs" textLength="125" x="618" y="82.9951">MeaasureComputer</text><ellipse cx="683.5" cy="13" fill="#FEFECE" filter="url(#fa0ysopcassle)" rx="8" ry="8" style="stroke: #A80036; stroke-width: 2.0;"/><path d="M683.5,21 L683.5,48 M670.5,29 L696.5,29 M683.5,48 L670.5,63 M683.5,48 L696.5,63 " fill="none" filter="url(#fa0ysopcassle)" style="stroke: #A80036; stroke-width: 2.0;"/><text fill="#000000" font-family="sans-serif" font-size="14" lengthAdjust="spacingAndGlyphs" textLength="120" x="860.5" y="82.9951">EHR or FHIR Server</text><ellipse cx="923.5" cy="13" fill="#FEFECE" filter="url(#fa0ysopcassle)" rx="8" ry="8" style="stroke: #A80036; stroke-width: 2.0;"/><path d="M923.5,21 L923.5,48 M910.5,29 L936.5,29 M923.5,48 L910.5,63 M923.5,48 L936.5,63 " fill="none" filter="url(#fa0ysopcassle)" style="stroke: #A80036; stroke-width: 2.0;"/><rect fill="#FFFFFF" filter="url(#fa0ysopcassle)" height="14" style="stroke: #A80036; stroke-width: 1.0;" width="10" x="107.5" y="117.4297"/><rect fill="#FFFFFF" filter="url(#fa0ysopcassle)" height="14" style="stroke: #A80036; stroke-width: 1.0;" width="10" x="359.5" y="117.4297"/><rect fill="#FFFFFF" filter="url(#fa0ysopcassle)" height="63.2656" style="stroke: #A80036; stroke-width: 1.0;" width="10" x="538" y="168.5625"/><rect fill="#FFFFFF" filter="url(#fa0ysopcassle)" height="63.2656" style="stroke: #A80036; stroke-width: 1.0;" width="10" x="538" y="168.5625"/><rect fill="#FFFFFF" filter="url(#fa0ysopcassle)" height="29.1328" style="stroke: #A80036; stroke-width: 1.0;" width="10" x="918.5" y="202.6953"/><polygon fill="#A80036" points="347.5,113.4297,357.5,117.4297,347.5,121.4297,351.5,117.4297" style="stroke: #A80036; stroke-width: 1.0;"/><line style="stroke: #A80036; stroke-width: 1.0;" x1="117.5" x2="353.5" y1="117.4297" y2="117.4297"/><text fill="#000000" font-family="sans-serif" font-size="13" lengthAdjust="spacingAndGlyphs" textLength="228" x="124.5" y="112.3638">1. Query for New or Updated Measures</text><polygon fill="#A80036" points="123.5,127.4297,113.5,131.4297,123.5,135.4297,119.5,131.4297" style="stroke: #A80036; stroke-width: 1.0;"/><line style="stroke: #A80036; stroke-width: 1.0; stroke-dasharray: 2.0,2.0;" x1="117.5" x2="363.5" y1="131.4297" y2="131.4297"/><line style="stroke: #A80036; stroke-width: 1.0;" x1="538" x2="585" y1="155.5625" y2="155.5625"/><line style="stroke: #A80036; stroke-width: 1.0;" x1="585" x2="585" y1="155.5625" y2="168.5625"/><line style="stroke: #A80036; stroke-width: 1.0;" x1="544" x2="585" y1="168.5625" y2="168.5625"/><polygon fill="#A80036" points="554,164.5625,544,168.5625,554,172.5625,550,168.5625" style="stroke: #A80036; stroke-width: 1.0;"/><text fill="#000000" font-family="sans-serif" font-size="13" lengthAdjust="spacingAndGlyphs" textLength="121" x="550" y="150.4966">2. Compute Measure</text><polygon fill="#A80036" points="906.5,198.6953,916.5,202.6953,906.5,206.6953,910.5,202.6953" style="stroke: #A80036; stroke-width: 1.0;"/><line style="stroke: #A80036; stroke-width: 1.0;" x1="683.5" x2="912.5" y1="202.6953" y2="202.6953"/><text fill="#000000" font-family="sans-serif" font-size="13" lengthAdjust="spacingAndGlyphs" textLength="83" x="690.5" y="197.6294">3. Gather Data</text><polygon fill="#A80036" points="694.5,227.8281,684.5,231.8281,694.5,235.8281,690.5,231.8281" style="stroke: #A80036; stroke-width: 1.0;"/><line style="stroke: #A80036; stroke-width: 1.0; stroke-dasharray: 2.0,2.0;" x1="688.5" x2="922.5" y1="231.8281" y2="231.8281"/><text fill="#000000" font-family="sans-serif" font-size="13" lengthAdjust="spacingAndGlyphs" textLength="211" x="700.5" y="226.7622">4. Returns Matching FHIR Resources</text><!--
@startuml
hide footbox
participant "Measure Definition Consumer" as MeasureDefinitionConsumer
participant "Measure Definition Source" as MeasureDefinitionSource
participant "Measure Computer" as MeasureComputer
actor "MeaasureComputer"
actor "EHR or FHIR Server"
"MeasureDefinitionConsumer" -> "MeasureDefinitionSource" : 1. Query for New or Updated Measures
activate "MeasureDefinitionConsumer"
activate "MeasureDefinitionSource"
return
deactivate "MeasureDefinitionConsumer"
deactivate "MeasureDefinitionSource"
"MeasureComputer" -> "MeasureComputer" : 2. Compute Measure
activate "MeasureComputer"
activate "MeasureComputer"
"MeaasureComputer" -> "EHR or FHIR Server" : 3. Gather Data
activate "EHR or FHIR Server"
"EHR or FHIR Server" - -> "MeaasureComputer" : 4. Returns Matching FHIR Resources
deactivate "EHR or FHIR Server"
deactivate "MeasureComputer"
deactivate "MeasureComputer"
@enduml

PlantUML version 1.2019.08(Sat Jul 13 19:25:14 GMT 2019)
(GPL source distribution)
Java Runtime: OpenJDK Runtime Environment
JVM: OpenJDK 64-Bit Server VM
Java Version: 14-ea+33
Operating System: Linux
OS Version: 5.4.0-1032-azure
Default Encoding: UTF-8
Language: en
Country: US
--></g></svg>