<?xml version="1.0" encoding="UTF-8" standalone="no"?><svg xmlns="http://www.w3.org/2000/svg" xmlns:xlink="http://www.w3.org/1999/xlink" contentScriptType="application/ecmascript" contentStyleType="text/css" height="225px" preserveAspectRatio="none" style="width:412px;height:225px;" version="1.1" viewBox="0 0 412 225" width="412px" zoomAndPan="magnify"><defs><filter height="300%" id="fkrpgmf" width="300%" x="-1" y="-1"><feGaussianBlur result="blurOut" stdDeviation="2.0"/><feColorMatrix in="blurOut" result="blurOut2" type="matrix" values="0 0 0 0 0 0 0 0 0 0 0 0 0 0 0 0 0 0 .4 0"/><feOffset dx="4.0" dy="4.0" in="blurOut2" result="blurOut3"/><feBlend in="SourceGraphic" in2="blurOut3" mode="normal"/></filter></defs><g><rect fill="#FFFFFF" filter="url(#fkrpgmf)" height="126.4063" style="stroke: #A80036; stroke-width: 1.0;" width="10" x="77.5" y="79.6094"/><rect fill="#FFFFFF" filter="url(#fkrpgmf)" height="126.4063" style="stroke: #A80036; stroke-width: 1.0;" width="10" x="77.5" y="79.6094"/><rect fill="#FFFFFF" filter="url(#fkrpgmf)" height="30.3516" style="stroke: #A80036; stroke-width: 1.0;" width="10" x="353.5" y="114.9609"/><rect fill="#FFFFFF" filter="url(#fkrpgmf)" height="30.3516" style="stroke: #A80036; stroke-width: 1.0;" width="10" x="353.5" y="175.6641"/><line style="stroke: #A80036; stroke-width: 1.0; stroke-dasharray: 5.0,5.0;" x1="77" x2="77" y1="39.6094" y2="224.3672"/><line style="stroke: #A80036; stroke-width: 1.0; stroke-dasharray: 5.0,5.0;" x1="358" x2="358" y1="39.6094" y2="224.3672"/><rect fill="#FEFECE" filter="url(#fkrpgmf)" height="31.6094" style="stroke: #A80036; stroke-width: 1.5;" width="135" x="8" y="3"/><text fill="#000000" font-family="sans-serif" font-size="14" lengthAdjust="spacingAndGlyphs" textLength="121" x="15" y="24.5332">Measure Computer</text><rect fill="#FEFECE" filter="url(#fkrpgmf)" height="31.6094" style="stroke: #A80036; stroke-width: 1.5;" width="93" x="310" y="3"/><text fill="#000000" font-family="sans-serif" font-size="14" lengthAdjust="spacingAndGlyphs" textLength="79" x="317" y="24.5332">Data Source</text><rect fill="#FFFFFF" filter="url(#fkrpgmf)" height="126.4063" style="stroke: #A80036; stroke-width: 1.0;" width="10" x="77.5" y="79.6094"/><rect fill="#FFFFFF" filter="url(#fkrpgmf)" height="126.4063" style="stroke: #A80036; stroke-width: 1.0;" width="10" x="77.5" y="79.6094"/><rect fill="#FFFFFF" filter="url(#fkrpgmf)" height="30.3516" style="stroke: #A80036; stroke-width: 1.0;" width="10" x="353.5" y="114.9609"/><rect fill="#FFFFFF" filter="url(#fkrpgmf)" height="30.3516" style="stroke: #A80036; stroke-width: 1.0;" width="10" x="353.5" y="175.6641"/><line style="stroke: #A80036; stroke-width: 1.0;" x1="77.5" x2="124.5" y1="66.9609" y2="66.9609"/><line style="stroke: #A80036; stroke-width: 1.0;" x1="124.5" x2="124.5" y1="66.9609" y2="79.9609"/><line style="stroke: #A80036; stroke-width: 1.0;" x1="83.5" x2="124.5" y1="79.9609" y2="79.9609"/><polygon fill="#A80036" points="93.5,75.9609,83.5,79.9609,93.5,83.9609,89.5,79.9609" style="stroke: #A80036; stroke-width: 1.0;"/><text fill="#000000" font-family="sans-serif" font-size="13" lengthAdjust="spacingAndGlyphs" textLength="121" x="89.5" y="62.1045">1. Compute Measure</text><polygon fill="#A80036" points="341.5,110.9609,351.5,114.9609,341.5,118.9609,345.5,114.9609" style="stroke: #A80036; stroke-width: 1.0;"/><line style="stroke: #A80036; stroke-width: 1.0;" x1="87.5" x2="347.5" y1="114.9609" y2="114.9609"/><text fill="#000000" font-family="sans-serif" font-size="13" lengthAdjust="spacingAndGlyphs" textLength="139" x="94.5" y="110.4561">2. Gather Measure Data</text><polygon fill="#A80036" points="98.5,141.3125,88.5,145.3125,98.5,149.3125,94.5,145.3125" style="stroke: #A80036; stroke-width: 1.0;"/><line style="stroke: #A80036; stroke-width: 1.0; stroke-dasharray: 2.0,2.0;" x1="92.5" x2="357.5" y1="145.3125" y2="145.3125"/><text fill="#000000" font-family="sans-serif" font-size="13" lengthAdjust="spacingAndGlyphs" textLength="216" x="104.5" y="140.8076">3. Returns Matching FHIR Resources</text><polygon fill="#A80036" points="341.5,171.6641,351.5,175.6641,341.5,179.6641,345.5,175.6641" style="stroke: #A80036; stroke-width: 1.0;"/><line style="stroke: #A80036; stroke-width: 1.0;" x1="87.5" x2="347.5" y1="175.6641" y2="175.6641"/><text fill="#000000" font-family="sans-serif" font-size="13" lengthAdjust="spacingAndGlyphs" textLength="168" x="94.5" y="171.1592">4. Gather Supplemental Data</text><polygon fill="#A80036" points="88.5,202.0156,78.5,206.0156,88.5,210.0156,84.5,206.0156" style="stroke: #A80036; stroke-width: 1.0;"/><line style="stroke: #A80036; stroke-width: 1.0; stroke-dasharray: 2.0,2.0;" x1="82.5" x2="357.5" y1="206.0156" y2="206.0156"/><text fill="#000000" font-family="sans-serif" font-size="13" lengthAdjust="spacingAndGlyphs" textLength="242" x="94.5" y="201.5107">5. Returns Supplemental FHIR Resources</text></g></svg>