<?xml version="1.0" encoding="UTF-8" standalone="no"?><svg xmlns="http://www.w3.org/2000/svg" xmlns:xlink="http://www.w3.org/1999/xlink" contentScriptType="application/ecmascript" contentStyleType="text/css" height="671px" preserveAspectRatio="none" style="width:1013px;height:671px;" version="1.1" viewBox="0 0 1013 671" width="1013px" zoomAndPan="magnify"><defs><filter height="300%" id="fcxqfi4" width="300%" x="-1" y="-1"><feGaussianBlur result="blurOut" stdDeviation="2.0"/><feColorMatrix in="blurOut" result="blurOut2" type="matrix" values="0 0 0 0 0 0 0 0 0 0 0 0 0 0 0 0 0 0 .4 0"/><feOffset dx="4.0" dy="4.0" in="blurOut2" result="blurOut3"/><feBlend in="SourceGraphic" in2="blurOut3" mode="normal"/></filter></defs><g><rect fill="#FFFFFF" filter="url(#fcxqfi4)" height="82.4063" style="stroke: #A80036; stroke-width: 1.0;" width="10" x="107" y="127.6094"/><rect fill="#FFFFFF" filter="url(#fcxqfi4)" height="82.4063" style="stroke: #A80036; stroke-width: 1.0;" width="10" x="107" y="127.6094"/><rect fill="#FFFFFF" filter="url(#fcxqfi4)" height="14.0547" style="stroke: #A80036; stroke-width: 1.0;" width="10" x="388" y="195.9609"/><rect fill="#FFFFFF" filter="url(#fcxqfi4)" height="14.0547" style="stroke: #A80036; stroke-width: 1.0;" width="10" x="388" y="273.0156"/><rect fill="#FFFFFF" filter="url(#fcxqfi4)" height="14.0547" style="stroke: #A80036; stroke-width: 1.0;" width="10" x="388" y="350.0703"/><rect fill="#FFFFFF" filter="url(#fcxqfi4)" height="14.7031" style="stroke: #A80036; stroke-width: 1.0;" width="10" x="388" y="410.125"/><rect fill="#FFFFFF" filter="url(#fcxqfi4)" height="28" style="stroke: #A80036; stroke-width: 1.0;" width="10" x="393" y="478.8281"/><rect fill="#FFFFFF" filter="url(#fcxqfi4)" height="28" style="stroke: #A80036; stroke-width: 1.0;" width="10" x="393" y="478.8281"/><rect fill="#FFFFFF" filter="url(#fcxqfi4)" height="14.3516" style="stroke: #A80036; stroke-width: 1.0;" width="10" x="388" y="544.5313"/><rect fill="#FFFFFF" filter="url(#fcxqfi4)" height="30.0547" style="stroke: #A80036; stroke-width: 1.0;" width="10" x="388" y="621.8828"/><rect fill="#FFFFFF" filter="url(#fcxqfi4)" height="14.0547" style="stroke: #A80036; stroke-width: 1.0;" width="10" x="652" y="273.0156"/><rect fill="#FFFFFF" filter="url(#fcxqfi4)" height="14.0547" style="stroke: #A80036; stroke-width: 1.0;" width="10" x="762.5" y="350.0703"/><rect fill="#FFFFFF" filter="url(#fcxqfi4)" height="14.7031" style="stroke: #A80036; stroke-width: 1.0;" width="10" x="827" y="410.125"/><rect fill="#FFFFFF" filter="url(#fcxqfi4)" height="14.3516" style="stroke: #A80036; stroke-width: 1.0;" width="10" x="944" y="544.5313"/><rect fill="#FFFFFF" filter="url(#fcxqfi4)" height="30.0547" style="stroke: #A80036; stroke-width: 1.0;" width="10" x="944" y="621.8828"/><line style="stroke: #A80036; stroke-width: 1.0; stroke-dasharray: 5.0,5.0;" x1="107" x2="107" y1="87.6094" y2="670.2891"/><line style="stroke: #A80036; stroke-width: 1.0; stroke-dasharray: 5.0,5.0;" x1="392.5" x2="392.5" y1="87.6094" y2="670.2891"/><line style="stroke: #A80036; stroke-width: 1.0; stroke-dasharray: 5.0,5.0;" x1="656.5" x2="656.5" y1="87.6094" y2="670.2891"/><line style="stroke: #A80036; stroke-width: 1.0; stroke-dasharray: 5.0,5.0;" x1="767.5" x2="767.5" y1="87.6094" y2="670.2891"/><line style="stroke: #A80036; stroke-width: 1.0; stroke-dasharray: 5.0,5.0;" x1="831.5" x2="831.5" y1="87.6094" y2="670.2891"/><line style="stroke: #A80036; stroke-width: 1.0; stroke-dasharray: 5.0,5.0;" x1="948.5" x2="948.5" y1="87.6094" y2="670.2891"/><text fill="#000000" font-family="sans-serif" font-size="14" lengthAdjust="spacingAndGlyphs" textLength="192" x="8" y="84.5332">ICU/Central Monitoring System</text><ellipse cx="107" cy="13" fill="#FEFECE" filter="url(#fcxqfi4)" rx="8" ry="8" style="stroke: #A80036; stroke-width: 2.0;"/><path d="M107,21 L107,48 M94,29 L120,29 M107,48 L94,63 M107,48 L120,63 " fill="#FEFECE" filter="url(#fcxqfi4)" style="stroke: #A80036; stroke-width: 2.0;"/><text fill="#000000" font-family="sans-serif" font-size="14" lengthAdjust="spacingAndGlyphs" textLength="115" x="332.5" y="84.5332">Measure Collector</text><ellipse cx="393" cy="13" fill="#FEFECE" filter="url(#fcxqfi4)" rx="8" ry="8" style="stroke: #A80036; stroke-width: 2.0;"/><path d="M393,21 L393,48 M380,29 L406,29 M393,48 L380,63 M393,48 L406,63 " fill="#FEFECE" filter="url(#fcxqfi4)" style="stroke: #A80036; stroke-width: 2.0;"/><text fill="#000000" font-family="sans-serif" font-size="14" lengthAdjust="spacingAndGlyphs" textLength="161" x="573.5" y="84.5332">Bed Management System</text><ellipse cx="657" cy="13" fill="#FEFECE" filter="url(#fcxqfi4)" rx="8" ry="8" style="stroke: #A80036; stroke-width: 2.0;"/><path d="M657,21 L657,48 M644,29 L670,29 M657,48 L644,63 M657,48 L670,63 " fill="#FEFECE" filter="url(#fcxqfi4)" style="stroke: #A80036; stroke-width: 2.0;"/><text fill="#000000" font-family="sans-serif" font-size="14" lengthAdjust="spacingAndGlyphs" textLength="28" x="750.5" y="84.5332">EHR</text><ellipse cx="767.5" cy="13" fill="#FEFECE" filter="url(#fcxqfi4)" rx="8" ry="8" style="stroke: #A80036; stroke-width: 2.0;"/><path d="M767.5,21 L767.5,48 M754.5,29 L780.5,29 M767.5,48 L754.5,63 M767.5,48 L780.5,63 " fill="#FEFECE" filter="url(#fcxqfi4)" style="stroke: #A80036; stroke-width: 2.0;"/><text fill="#000000" font-family="sans-serif" font-size="14" lengthAdjust="spacingAndGlyphs" textLength="69" x="794.5" y="84.5332">ED System</text><ellipse cx="832" cy="13" fill="#FEFECE" filter="url(#fcxqfi4)" rx="8" ry="8" style="stroke: #A80036; stroke-width: 2.0;"/><path d="M832,21 L832,48 M819,29 L845,29 M832,48 L819,63 M832,48 L845,63 " fill="#FEFECE" filter="url(#fcxqfi4)" style="stroke: #A80036; stroke-width: 2.0;"/><text fill="#000000" font-family="sans-serif" font-size="14" lengthAdjust="spacingAndGlyphs" textLength="133" x="879.5" y="84.5332">Public Health Agency</text><ellipse cx="949" cy="13" fill="#FEFECE" filter="url(#fcxqfi4)" rx="8" ry="8" style="stroke: #A80036; stroke-width: 2.0;"/><path d="M949,21 L949,48 M936,29 L962,29 M949,48 L936,63 M949,48 L962,63 " fill="#FEFECE" filter="url(#fcxqfi4)" style="stroke: #A80036; stroke-width: 2.0;"/><rect fill="#FFFFFF" filter="url(#fcxqfi4)" height="82.4063" style="stroke: #A80036; stroke-width: 1.0;" width="10" x="107" y="127.6094"/><rect fill="#FFFFFF" filter="url(#fcxqfi4)" height="82.4063" style="stroke: #A80036; stroke-width: 1.0;" width="10" x="107" y="127.6094"/><rect fill="#FFFFFF" filter="url(#fcxqfi4)" height="14.0547" style="stroke: #A80036; stroke-width: 1.0;" width="10" x="388" y="195.9609"/><rect fill="#FFFFFF" filter="url(#fcxqfi4)" height="14.0547" style="stroke: #A80036; stroke-width: 1.0;" width="10" x="388" y="273.0156"/><rect fill="#FFFFFF" filter="url(#fcxqfi4)" height="14.0547" style="stroke: #A80036; stroke-width: 1.0;" width="10" x="388" y="350.0703"/><rect fill="#FFFFFF" filter="url(#fcxqfi4)" height="14.7031" style="stroke: #A80036; stroke-width: 1.0;" width="10" x="388" y="410.125"/><rect fill="#FFFFFF" filter="url(#fcxqfi4)" height="28" style="stroke: #A80036; stroke-width: 1.0;" width="10" x="393" y="478.8281"/><rect fill="#FFFFFF" filter="url(#fcxqfi4)" height="28" style="stroke: #A80036; stroke-width: 1.0;" width="10" x="393" y="478.8281"/><rect fill="#FFFFFF" filter="url(#fcxqfi4)" height="14.3516" style="stroke: #A80036; stroke-width: 1.0;" width="10" x="388" y="544.5313"/><rect fill="#FFFFFF" filter="url(#fcxqfi4)" height="30.0547" style="stroke: #A80036; stroke-width: 1.0;" width="10" x="388" y="621.8828"/><rect fill="#FFFFFF" filter="url(#fcxqfi4)" height="14.0547" style="stroke: #A80036; stroke-width: 1.0;" width="10" x="652" y="273.0156"/><rect fill="#FFFFFF" filter="url(#fcxqfi4)" height="14.0547" style="stroke: #A80036; stroke-width: 1.0;" width="10" x="762.5" y="350.0703"/><rect fill="#FFFFFF" filter="url(#fcxqfi4)" height="14.7031" style="stroke: #A80036; stroke-width: 1.0;" width="10" x="827" y="410.125"/><rect fill="#FFFFFF" filter="url(#fcxqfi4)" height="14.3516" style="stroke: #A80036; stroke-width: 1.0;" width="10" x="944" y="544.5313"/><rect fill="#FFFFFF" filter="url(#fcxqfi4)" height="30.0547" style="stroke: #A80036; stroke-width: 1.0;" width="10" x="944" y="621.8828"/><line style="stroke: #A80036; stroke-width: 1.0;" x1="107" x2="154" y1="114.9609" y2="114.9609"/><line style="stroke: #A80036; stroke-width: 1.0;" x1="154" x2="154" y1="114.9609" y2="127.9609"/><line style="stroke: #A80036; stroke-width: 1.0;" x1="113" x2="154" y1="127.9609" y2="127.9609"/><polygon fill="#A80036" points="123,123.9609,113,127.9609,123,131.9609,119,127.9609" style="stroke: #A80036; stroke-width: 1.0;"/><text fill="#000000" font-family="sans-serif" font-size="13" lengthAdjust="spacingAndGlyphs" textLength="272" x="119" y="110.1045">1. ICU/Central Monitoring System collects data</text><polygon fill="#A80036" points="376,191.9609,386,195.9609,376,199.9609,380,195.9609" style="stroke: #A80036; stroke-width: 1.0;"/><line style="stroke: #A80036; stroke-width: 1.0;" x1="117" x2="382" y1="195.9609" y2="195.9609"/><text fill="#000000" font-family="sans-serif" font-size="13" lengthAdjust="spacingAndGlyphs" textLength="243" x="124" y="158.4561">2. ICU/Central Monitoring System Reports</text><text fill="#000000" font-family="sans-serif" font-size="13" lengthAdjust="spacingAndGlyphs" textLength="149" x="124" y="174.8076">on multiple data elements</text><text fill="#000000" font-family="sans-serif" font-size="13" lengthAdjust="spacingAndGlyphs" textLength="128" x="124" y="191.1592">(measure populations)</text><polygon fill="#A80036" points="118,206.0156,108,210.0156,118,214.0156,114,210.0156" style="stroke: #A80036; stroke-width: 1.0;"/><line style="stroke: #A80036; stroke-width: 1.0; stroke-dasharray: 2.0,2.0;" x1="112" x2="392" y1="210.0156" y2="210.0156"/><polygon fill="#A80036" points="409,269.0156,399,273.0156,409,277.0156,405,273.0156" style="stroke: #A80036; stroke-width: 1.0;"/><line style="stroke: #A80036; stroke-width: 1.0;" x1="403" x2="651" y1="273.0156" y2="273.0156"/><text fill="#000000" font-family="sans-serif" font-size="13" lengthAdjust="spacingAndGlyphs" textLength="215" x="415" y="235.5107">3. Bed Management System Reports</text><text fill="#000000" font-family="sans-serif" font-size="13" lengthAdjust="spacingAndGlyphs" textLength="149" x="415" y="251.8623">on multiple data elements</text><text fill="#000000" font-family="sans-serif" font-size="13" lengthAdjust="spacingAndGlyphs" textLength="128" x="415" y="268.2139">(measure populations)</text><polygon fill="#A80036" points="645,283.0703,655,287.0703,645,291.0703,649,287.0703" style="stroke: #A80036; stroke-width: 1.0;"/><line style="stroke: #A80036; stroke-width: 1.0; stroke-dasharray: 2.0,2.0;" x1="393" x2="651" y1="287.0703" y2="287.0703"/><polygon fill="#A80036" points="409,346.0703,399,350.0703,409,354.0703,405,350.0703" style="stroke: #A80036; stroke-width: 1.0;"/><line style="stroke: #A80036; stroke-width: 1.0;" x1="403" x2="761.5" y1="350.0703" y2="350.0703"/><text fill="#000000" font-family="sans-serif" font-size="13" lengthAdjust="spacingAndGlyphs" textLength="135" x="415" y="312.5654">4. EHR System reports</text><text fill="#000000" font-family="sans-serif" font-size="13" lengthAdjust="spacingAndGlyphs" textLength="149" x="415" y="328.917">on multiple data elements</text><text fill="#000000" font-family="sans-serif" font-size="13" lengthAdjust="spacingAndGlyphs" textLength="128" x="415" y="345.2686">(measure populations)</text><polygon fill="#A80036" points="755.5,360.125,765.5,364.125,755.5,368.125,759.5,364.125" style="stroke: #A80036; stroke-width: 1.0;"/><line style="stroke: #A80036; stroke-width: 1.0; stroke-dasharray: 2.0,2.0;" x1="393" x2="761.5" y1="364.125" y2="364.125"/><polygon fill="#A80036" points="409,406.125,399,410.125,409,414.125,405,410.125" style="stroke: #A80036; stroke-width: 1.0;"/><line style="stroke: #A80036; stroke-width: 1.0;" x1="403" x2="826" y1="410.125" y2="410.125"/><text fill="#000000" font-family="sans-serif" font-size="13" lengthAdjust="spacingAndGlyphs" textLength="151" x="415" y="389.6201">5. The ED System reports</text><text fill="#000000" font-family="sans-serif" font-size="13" lengthAdjust="spacingAndGlyphs" textLength="244" x="415" y="405.9717">on patients in the ED and/or overflow area.</text><polygon fill="#A80036" points="820,420.8281,830,424.8281,820,428.8281,824,424.8281" style="stroke: #A80036; stroke-width: 1.0;"/><line style="stroke: #A80036; stroke-width: 1.0; stroke-dasharray: 2.0,2.0;" x1="393" x2="826" y1="424.8281" y2="424.8281"/><line style="stroke: #A80036; stroke-width: 1.0;" x1="398" x2="440" y1="471.5313" y2="471.5313"/><line style="stroke: #A80036; stroke-width: 1.0;" x1="440" x2="440" y1="471.5313" y2="484.5313"/><line style="stroke: #A80036; stroke-width: 1.0;" x1="399" x2="440" y1="484.5313" y2="484.5313"/><polygon fill="#A80036" points="409,480.5313,399,484.5313,409,488.5313,405,484.5313" style="stroke: #A80036; stroke-width: 1.0;"/><text fill="#000000" font-family="sans-serif" font-size="13" lengthAdjust="spacingAndGlyphs" textLength="250" x="405" y="450.3232">6. Measure Collector aggregates reports for</text><text fill="#000000" font-family="sans-serif" font-size="13" lengthAdjust="spacingAndGlyphs" textLength="229" x="405" y="466.6748">transmission to a Public Health Agency</text><polygon fill="#A80036" points="932,540.5313,942,544.5313,932,548.5313,936,544.5313" style="stroke: #A80036; stroke-width: 1.0;"/><line style="stroke: #A80036; stroke-width: 1.0;" x1="398" x2="938" y1="544.5313" y2="544.5313"/><text fill="#000000" font-family="sans-serif" font-size="13" lengthAdjust="spacingAndGlyphs" textLength="258" x="405" y="540.0264">7. Transmit Aggregated MeasureReport Data</text><polygon fill="#A80036" points="404,554.8828,394,558.8828,404,562.8828,400,558.8828" style="stroke: #A80036; stroke-width: 1.0;"/><line style="stroke: #A80036; stroke-width: 1.0; stroke-dasharray: 2.0,2.0;" x1="398" x2="948" y1="558.8828" y2="558.8828"/><polygon fill="#A80036" points="409,617.8828,399,621.8828,409,625.8828,405,621.8828" style="stroke: #A80036; stroke-width: 1.0;"/><line style="stroke: #A80036; stroke-width: 1.0;" x1="403" x2="943" y1="621.8828" y2="621.8828"/><text fill="#000000" font-family="sans-serif" font-size="13" lengthAdjust="spacingAndGlyphs" textLength="221" x="415" y="584.3779">8. A Public Health Agency queries the</text><text fill="#000000" font-family="sans-serif" font-size="13" lengthAdjust="spacingAndGlyphs" textLength="161" x="415" y="600.7295">hospitals Measure Collector</text><text fill="#000000" font-family="sans-serif" font-size="13" lengthAdjust="spacingAndGlyphs" textLength="157" x="415" y="617.0811">for the most recent reports.</text><polygon fill="#A80036" points="937,647.9375,947,651.9375,937,655.9375,941,651.9375" style="stroke: #A80036; stroke-width: 1.0;"/><line style="stroke: #A80036; stroke-width: 1.0; stroke-dasharray: 2.0,2.0;" x1="393" x2="943" y1="651.9375" y2="651.9375"/><text fill="#000000" font-family="sans-serif" font-size="13" lengthAdjust="spacingAndGlyphs" textLength="258" x="400" y="647.4326">9. Transmit Aggregated MeasureReport Data</text></g></svg>