<?xml version="1.0" encoding="UTF-8" standalone="no"?><svg xmlns="http://www.w3.org/2000/svg" xmlns:xlink="http://www.w3.org/1999/xlink" contentScriptType="application/ecmascript" contentStyleType="text/css" height="282px" preserveAspectRatio="none" style="width:848px;height:282px;" version="1.1" viewBox="0 0 848 282" width="848px" zoomAndPan="magnify"><defs><filter height="300%" id="fq4h6qs" width="300%" x="-1" y="-1"><feGaussianBlur result="blurOut" stdDeviation="2.0"/><feColorMatrix in="blurOut" result="blurOut2" type="matrix" values="0 0 0 0 0 0 0 0 0 0 0 0 0 0 0 0 0 0 .4 0"/><feOffset dx="4.0" dy="4.0" in="blurOut2" result="blurOut3"/><feBlend in="SourceGraphic" in2="blurOut3" mode="normal"/></filter></defs><g><rect fill="#FFFFFF" filter="url(#fq4h6qs)" height="14.3516" style="stroke: #A80036; stroke-width: 1.0;" width="10" x="105.5" y="71.6094"/><rect fill="#FFFFFF" filter="url(#fq4h6qs)" height="14.3516" style="stroke: #A80036; stroke-width: 1.0;" width="10" x="354.5" y="71.6094"/><rect fill="#FFFFFF" filter="url(#fq4h6qs)" height="65.7031" style="stroke: #A80036; stroke-width: 1.0;" width="10" x="531.5" y="123.9609"/><rect fill="#FFFFFF" filter="url(#fq4h6qs)" height="65.7031" style="stroke: #A80036; stroke-width: 1.0;" width="10" x="531.5" y="123.9609"/><rect fill="#FFFFFF" filter="url(#fq4h6qs)" height="28" style="stroke: #A80036; stroke-width: 1.0;" width="10" x="531.5" y="228.0156"/><rect fill="#FFFFFF" filter="url(#fq4h6qs)" height="28" style="stroke: #A80036; stroke-width: 1.0;" width="10" x="531.5" y="228.0156"/><rect fill="#FFFFFF" filter="url(#fq4h6qs)" height="30.3516" style="stroke: #A80036; stroke-width: 1.0;" width="10" x="789.5" y="159.3125"/><line style="stroke: #A80036; stroke-width: 1.0; stroke-dasharray: 5.0,5.0;" x1="110" x2="110" y1="39.6094" y2="281.3672"/><line style="stroke: #A80036; stroke-width: 1.0; stroke-dasharray: 5.0,5.0;" x1="359" x2="359" y1="39.6094" y2="281.3672"/><line style="stroke: #A80036; stroke-width: 1.0; stroke-dasharray: 5.0,5.0;" x1="531" x2="531" y1="39.6094" y2="281.3672"/><line style="stroke: #A80036; stroke-width: 1.0; stroke-dasharray: 5.0,5.0;" x1="794" x2="794" y1="39.6094" y2="281.3672"/><rect fill="#FEFECE" filter="url(#fq4h6qs)" height="31.6094" style="stroke: #A80036; stroke-width: 1.5;" width="201" x="8" y="3"/><text fill="#000000" font-family="sans-serif" font-size="14" lengthAdjust="spacingAndGlyphs" textLength="187" x="15" y="24.5332">Measure Definition Consumer</text><rect fill="#FEFECE" filter="url(#fq4h6qs)" height="31.6094" style="stroke: #A80036; stroke-width: 1.5;" width="181" x="267" y="3"/><text fill="#000000" font-family="sans-serif" font-size="14" lengthAdjust="spacingAndGlyphs" textLength="167" x="274" y="24.5332">Measure Definition Source</text><rect fill="#FEFECE" filter="url(#fq4h6qs)" height="31.6094" style="stroke: #A80036; stroke-width: 1.5;" width="135" x="462" y="3"/><text fill="#000000" font-family="sans-serif" font-size="14" lengthAdjust="spacingAndGlyphs" textLength="121" x="469" y="24.5332">Measure Computer</text><rect fill="#FEFECE" filter="url(#fq4h6qs)" height="31.6094" style="stroke: #A80036; stroke-width: 1.5;" width="93" x="746" y="3"/><text fill="#000000" font-family="sans-serif" font-size="14" lengthAdjust="spacingAndGlyphs" textLength="79" x="753" y="24.5332">Data Source</text><rect fill="#FFFFFF" filter="url(#fq4h6qs)" height="14.3516" style="stroke: #A80036; stroke-width: 1.0;" width="10" x="105.5" y="71.6094"/><rect fill="#FFFFFF" filter="url(#fq4h6qs)" height="14.3516" style="stroke: #A80036; stroke-width: 1.0;" width="10" x="354.5" y="71.6094"/><rect fill="#FFFFFF" filter="url(#fq4h6qs)" height="65.7031" style="stroke: #A80036; stroke-width: 1.0;" width="10" x="531.5" y="123.9609"/><rect fill="#FFFFFF" filter="url(#fq4h6qs)" height="65.7031" style="stroke: #A80036; stroke-width: 1.0;" width="10" x="531.5" y="123.9609"/><rect fill="#FFFFFF" filter="url(#fq4h6qs)" height="28" style="stroke: #A80036; stroke-width: 1.0;" width="10" x="531.5" y="228.0156"/><rect fill="#FFFFFF" filter="url(#fq4h6qs)" height="28" style="stroke: #A80036; stroke-width: 1.0;" width="10" x="531.5" y="228.0156"/><rect fill="#FFFFFF" filter="url(#fq4h6qs)" height="30.3516" style="stroke: #A80036; stroke-width: 1.0;" width="10" x="789.5" y="159.3125"/><polygon fill="#A80036" points="342.5,67.6094,352.5,71.6094,342.5,75.6094,346.5,71.6094" style="stroke: #A80036; stroke-width: 1.0;"/><line style="stroke: #A80036; stroke-width: 1.0;" x1="115.5" x2="348.5" y1="71.6094" y2="71.6094"/><text fill="#000000" font-family="sans-serif" font-size="13" lengthAdjust="spacingAndGlyphs" textLength="225" x="122.5" y="67.1045">1. Query for New or Updated Measures</text><polygon fill="#A80036" points="121.5,81.9609,111.5,85.9609,121.5,89.9609,117.5,85.9609" style="stroke: #A80036; stroke-width: 1.0;"/><line style="stroke: #A80036; stroke-width: 1.0; stroke-dasharray: 2.0,2.0;" x1="115.5" x2="358.5" y1="85.9609" y2="85.9609"/><line style="stroke: #A80036; stroke-width: 1.0;" x1="531.5" x2="578.5" y1="111.3125" y2="111.3125"/><line style="stroke: #A80036; stroke-width: 1.0;" x1="578.5" x2="578.5" y1="111.3125" y2="124.3125"/><line style="stroke: #A80036; stroke-width: 1.0;" x1="537.5" x2="578.5" y1="124.3125" y2="124.3125"/><polygon fill="#A80036" points="547.5,120.3125,537.5,124.3125,547.5,128.3125,543.5,124.3125" style="stroke: #A80036; stroke-width: 1.0;"/><text fill="#000000" font-family="sans-serif" font-size="13" lengthAdjust="spacingAndGlyphs" textLength="121" x="543.5" y="106.4561">2. Compute Measure</text><polygon fill="#A80036" points="777.5,155.3125,787.5,159.3125,777.5,163.3125,781.5,159.3125" style="stroke: #A80036; stroke-width: 1.0;"/><line style="stroke: #A80036; stroke-width: 1.0;" x1="541.5" x2="783.5" y1="159.3125" y2="159.3125"/><text fill="#000000" font-family="sans-serif" font-size="13" lengthAdjust="spacingAndGlyphs" textLength="85" x="548.5" y="154.8076">3. Gather Data</text><polygon fill="#A80036" points="542.5,185.6641,532.5,189.6641,542.5,193.6641,538.5,189.6641" style="stroke: #A80036; stroke-width: 1.0;"/><line style="stroke: #A80036; stroke-width: 1.0; stroke-dasharray: 2.0,2.0;" x1="536.5" x2="793.5" y1="189.6641" y2="189.6641"/><text fill="#000000" font-family="sans-serif" font-size="13" lengthAdjust="spacingAndGlyphs" textLength="216" x="548.5" y="185.1592">4. Returns Matching FHIR Resources</text><line style="stroke: #A80036; stroke-width: 1.0;" x1="536.5" x2="578.5" y1="220.3672" y2="220.3672"/><line style="stroke: #A80036; stroke-width: 1.0;" x1="578.5" x2="578.5" y1="220.3672" y2="233.3672"/><line style="stroke: #A80036; stroke-width: 1.0;" x1="537.5" x2="578.5" y1="233.3672" y2="233.3672"/><polygon fill="#A80036" points="547.5,229.3672,537.5,233.3672,547.5,237.3672,543.5,233.3672" style="stroke: #A80036; stroke-width: 1.0;"/><text fill="#000000" font-family="sans-serif" font-size="13" lengthAdjust="spacingAndGlyphs" textLength="249" x="543.5" y="215.5107">5. Send Measures to a Measure Consumer</text></g></svg>