<?xml version="1.0" encoding="UTF-8" standalone="no"?><svg xmlns="http://www.w3.org/2000/svg" xmlns:xlink="http://www.w3.org/1999/xlink" contentScriptType="application/ecmascript" contentStyleType="text/css" height="249px" preserveAspectRatio="none" style="width:809px;height:249px;" version="1.1" viewBox="0 0 809 249" width="809px" zoomAndPan="magnify"><defs/><g><!--cluster Actors--><polygon fill="#FFFFFF" points="22,24,73,24,80,47.6094,449,47.6094,449,248,22,248,22,24" style="stroke: #FFFFFF; stroke-width: 2.0;"/><line style="stroke: #FFFFFF; stroke-width: 2.0;" x1="22" x2="80" y1="47.6094" y2="47.6094"/><text fill="#FFFFFF" font-family="sans-serif" font-size="14" font-weight="bold" lengthAdjust="spacingAndGlyphs" textLength="45" x="26" y="40.5332">Actors</text><!--cluster MeasureIntermediary--><rect fill="#FFFFFF" height="90" style="stroke: #000000; stroke-width: 2.0;" width="335" x="473" y="24"/><text fill="#000000" font-family="sans-serif" font-size="14" font-weight="bold" lengthAdjust="spacingAndGlyphs" textLength="154" x="563.5" y="40.5332">Measure Intermediary</text><!--entity MeasureSource--><rect fill="#FEFECE" height="37.6094" style="stroke: #A80036; stroke-width: 1.5;" width="124" x="48" y="60"/><text fill="#000000" font-family="sans-serif" font-size="14" lengthAdjust="spacingAndGlyphs" textLength="104" x="58" y="84.5332">Measure Source</text><!--entity MeasureConsumer--><rect fill="#FEFECE" height="37.6094" style="stroke: #A80036; stroke-width: 1.5;" width="144" x="38" y="194"/><text fill="#000000" font-family="sans-serif" font-size="14" lengthAdjust="spacingAndGlyphs" textLength="124" x="48" y="218.5332">Measure Consumer</text><!--entity MeasureSourced2e328--><rect fill="#FEFECE" height="37.6094" style="stroke: #A80036; stroke-width: 1.5;" width="124" x="668" y="60"/><text fill="#000000" font-family="sans-serif" font-size="14" lengthAdjust="spacingAndGlyphs" textLength="104" x="678" y="84.5332">Measure Source</text><!--entity MeasureConsumerd2e358--><rect fill="#FEFECE" height="37.6094" style="stroke: #A80036; stroke-width: 1.5;" width="144" x="489" y="60"/><text fill="#000000" font-family="sans-serif" font-size="14" lengthAdjust="spacingAndGlyphs" textLength="124" x="499" y="84.5332">Measure Consumer</text><path d="M110,98.077 C110,123.214 110,168.4719 110,193.7175 " fill="none" style="stroke: #A80036; stroke-width: 1.0;"/><text fill="#000000" font-family="sans-serif" font-size="13" lengthAdjust="spacingAndGlyphs" textLength="161" x="119.5" y="144.4951">Query Measure [PULL-TX] ↑</text><text fill="#000000" font-family="sans-serif" font-size="13" lengthAdjust="spacingAndGlyphs" textLength="178" x="111" y="160.8467">Produce Measure [PUSH-TX] ↓</text><path d="M182.012,200.7005 C201.844,201.2947 217,205.3945 217,213 C217,220.6055 201.844,224.7053 182.012,225.2995 " fill="none" style="stroke: #A80036; stroke-width: 1.0;"/><text fill="#000000" font-family="sans-serif" font-size="13" lengthAdjust="spacingAndGlyphs" textLength="221" x="223" y="218.4951">Communicate Results [REPORT-TX] ↕</text></g></svg>