<?xml version="1.0" encoding="UTF-8" standalone="no"?><svg xmlns="http://www.w3.org/2000/svg" xmlns:xlink="http://www.w3.org/1999/xlink" contentScriptType="application/ecmascript" contentStyleType="text/css" height="130px" preserveAspectRatio="none" style="width:211px;height:130px;" version="1.1" viewBox="0 0 211 130" width="211px" zoomAndPan="magnify"><defs><filter height="300%" id="fd7h6v3" width="300%" x="-1" y="-1"><feGaussianBlur result="blurOut" stdDeviation="2.0"/><feColorMatrix in="blurOut" result="blurOut2" type="matrix" values="0 0 0 0 0 0 0 0 0 0 0 0 0 0 0 0 0 0 .4 0"/><feOffset dx="4.0" dy="4.0" in="blurOut2" result="blurOut3"/><feBlend in="SourceGraphic" in2="blurOut3" mode="normal"/></filter></defs><g><rect fill="#FFFFFF" filter="url(#fd7h6v3)" height="55.3516" style="stroke: #A80036; stroke-width: 1.0;" width="10" x="75" y="49.6094"/><line style="stroke: #A80036; stroke-width: 1.0; stroke-dasharray: 5.0,5.0;" x1="80" x2="80" y1="39.6094" y2="129.9609"/><rect fill="#FEFECE" filter="url(#fd7h6v3)" height="31.6094" style="stroke: #A80036; stroke-width: 1.5;" width="140" x="8" y="3"/><text fill="#000000" font-family="sans-serif" font-size="14" lengthAdjust="spacingAndGlyphs" textLength="126" x="15" y="24.5332">Availability Reporter</text><rect fill="#FFFFFF" filter="url(#fd7h6v3)" height="55.3516" style="stroke: #A80036; stroke-width: 1.0;" width="10" x="75" y="49.6094"/><line style="stroke: #A80036; stroke-width: 1.0;" x1="85" x2="127" y1="71.9609" y2="71.9609"/><line style="stroke: #A80036; stroke-width: 1.0;" x1="127" x2="127" y1="71.9609" y2="84.9609"/><line style="stroke: #A80036; stroke-width: 1.0;" x1="86" x2="127" y1="84.9609" y2="84.9609"/><polygon fill="#A80036" points="96,80.9609,86,84.9609,96,88.9609,92,84.9609" style="stroke: #A80036; stroke-width: 1.0;"/><text fill="#000000" font-family="sans-serif" font-size="13" lengthAdjust="spacingAndGlyphs" textLength="118" x="92" y="67.1045">1. Report Availability</text><line style="stroke: #A80036; stroke-width: 1.0; stroke-dasharray: 2.0,2.0;" x1="85" x2="127" y1="103.9609" y2="103.9609"/><line style="stroke: #A80036; stroke-width: 1.0; stroke-dasharray: 2.0,2.0;" x1="127" x2="127" y1="103.9609" y2="116.9609"/><line style="stroke: #A80036; stroke-width: 1.0; stroke-dasharray: 2.0,2.0;" x1="80" x2="127" y1="116.9609" y2="116.9609"/><polygon fill="#A80036" points="90,112.9609,80,116.9609,90,120.9609,86,116.9609" style="stroke: #A80036; stroke-width: 1.0;"/></g></svg>