<?xml version="1.0" encoding="UTF-8" standalone="no"?><svg xmlns="http://www.w3.org/2000/svg" xmlns:xlink="http://www.w3.org/1999/xlink" contentScriptType="application/ecmascript" contentStyleType="text/css" height="147px" preserveAspectRatio="none" style="width:329px;height:147px;" version="1.1" viewBox="0 0 329 147" width="329px" zoomAndPan="magnify"><defs><filter height="300%" id="f748cuc" width="300%" x="-1" y="-1"><feGaussianBlur result="blurOut" stdDeviation="2.0"/><feColorMatrix in="blurOut" result="blurOut2" type="matrix" values="0 0 0 0 0 0 0 0 0 0 0 0 0 0 0 0 0 0 .4 0"/><feOffset dx="4.0" dy="4.0" in="blurOut2" result="blurOut3"/><feBlend in="SourceGraphic" in2="blurOut3" mode="normal"/></filter></defs><g><!--entity AvailabilitySource--><rect fill="#FEFECE" filter="url(#f748cuc)" height="37.6094" style="stroke: #A80036; stroke-width: 1.5;" width="135" x="6" y="8"/><text fill="#000000" font-family="sans-serif" font-size="14" lengthAdjust="spacingAndGlyphs" textLength="115" x="16" y="32.5332">Availability Source</text><!--entity AvailabilityCollector--><rect fill="#FEFECE" filter="url(#f748cuc)" height="37.6094" style="stroke: #A80036; stroke-width: 1.5;" width="146" x="176.5" y="8"/><text fill="#000000" font-family="sans-serif" font-size="14" lengthAdjust="spacingAndGlyphs" textLength="126" x="186.5" y="32.5332">Availability Collector</text><ellipse cx="161.5594" cy="123.0119" fill="#FEFECE" filter="url(#f748cuc)" rx="73.0594" ry="17.0119" style="stroke: #A80036; stroke-width: 1.5;"/><text fill="#000000" font-family="sans-serif" font-size="14" lengthAdjust="spacingAndGlyphs" textLength="109" x="107.0594" y="128.3166">Query Availability</text><path d="M90.4673,46.1241 C105.4773,62.1576 127.34,85.5108 142.839,102.0666 " fill="none" style="stroke: #A80036; stroke-width: 1.0;"/><polygon fill="#A80036" points="146.634,106.1206,143.4031,96.8168,143.2168,102.4706,137.563,102.2843,146.634,106.1206" style="stroke: #A80036; stroke-width: 1.0;"/><path d="M232.533,46.1241 C217.523,62.1576 195.66,85.5108 180.161,102.0666 " fill="none" style="stroke: #A80036; stroke-width: 1.0;"/><polygon fill="#A80036" points="176.366,106.1206,185.437,102.2843,179.7832,102.4706,179.5969,96.8168,176.366,106.1206" style="stroke: #A80036; stroke-width: 1.0;"/></g></svg>