<?xml version="1.0" encoding="UTF-8" standalone="no"?><svg xmlns="http://www.w3.org/2000/svg" xmlns:xlink="http://www.w3.org/1999/xlink" contentScriptType="application/ecmascript" contentStyleType="text/css" height="283px" preserveAspectRatio="none" style="width:723px;height:283px;" version="1.1" viewBox="0 0 723 283" width="723px" zoomAndPan="magnify"><defs><filter height="300%" id="fxgo527" width="300%" x="-1" y="-1"><feGaussianBlur result="blurOut" stdDeviation="2.0"/><feColorMatrix in="blurOut" result="blurOut2" type="matrix" values="0 0 0 0 0 0 0 0 0 0 0 0 0 0 0 0 0 0 .4 0"/><feOffset dx="4.0" dy="4.0" in="blurOut2" result="blurOut3"/><feBlend in="SourceGraphic" in2="blurOut3" mode="normal"/></filter></defs><g><text fill="#000000" font-family="sans-serif" font-size="18" lengthAdjust="spacingAndGlyphs" textLength="252" x="249" y="18.6855">Hospital Does most of the Work</text><!--cluster Hospital--><rect fill="#FFFFFF" filter="url(#fxgo527)" height="90" style="stroke: #000000; stroke-width: 2.0;" width="694" x="22" y="46.6406"/><text fill="#000000" font-family="sans-serif" font-size="14" font-weight="bold" lengthAdjust="spacingAndGlyphs" textLength="144" x="297" y="63.1738">Hospital EHR System</text><!--cluster Agency--><rect fill="#FFFFFF" filter="url(#fxgo527)" height="90" style="stroke: #000000; stroke-width: 2.0;" width="176" x="533" y="186.6406"/><text fill="#000000" font-family="sans-serif" font-size="14" font-weight="bold" lengthAdjust="spacingAndGlyphs" textLength="147" x="547.5" y="203.1738">Public Health Agency</text><!--entity MeasureSource--><rect fill="#FEFECE" filter="url(#fxgo527)" height="37.6094" style="stroke: #A80036; stroke-width: 1.5;" width="124" x="38" y="82.6406"/><text fill="#000000" font-family="sans-serif" font-size="14" lengthAdjust="spacingAndGlyphs" textLength="104" x="48" y="107.1738">Measure Source</text><!--entity ExternalStorage--><rect fill="#FEFECE" filter="url(#fxgo527)" height="37.6094" rx="35" ry="35" style="stroke: #000000; stroke-width: 1.5;" width="125" x="293.5" y="82.6406"/><text fill="#000000" font-family="sans-serif" font-size="14" lengthAdjust="spacingAndGlyphs" textLength="105" x="303.5" y="107.1738">External Storage</text><!--entity MeasureIntermediary--><rect fill="#FEFECE" filter="url(#fxgo527)" height="37.6094" style="stroke: #A80036; stroke-width: 1.5;" width="157" x="542.5" y="82.6406"/><text fill="#000000" font-family="sans-serif" font-size="14" lengthAdjust="spacingAndGlyphs" textLength="137" x="552.5" y="107.1738">Measure Intermediary</text><!--entity MeasureConsumer--><rect fill="#FEFECE" filter="url(#fxgo527)" height="37.6094" style="stroke: #A80036; stroke-width: 1.5;" width="144" x="549" y="222.6406"/><text fill="#000000" font-family="sans-serif" font-size="14" lengthAdjust="spacingAndGlyphs" textLength="124" x="559" y="247.1738">Measure Consumer</text><path d="M162.297,101.6406 C200.399,101.6406 249.157,101.6406 288.222,101.6406 " fill="none" style="stroke: #A80036; stroke-width: 1.0;"/><polygon fill="#A80036" points="293.423,101.6406,284.423,97.6406,288.423,101.6406,284.423,105.6406,293.423,101.6406" style="stroke: #A80036; stroke-width: 1.0;"/><text fill="#000000" font-family="sans-serif" font-size="13" lengthAdjust="spacingAndGlyphs" textLength="95" x="180.25" y="95.1357">Push with Dump</text><path d="M424.053,101.6406 C460.073,101.6406 504.494,101.6406 542.027,101.6406 " fill="none" style="stroke: #A80036; stroke-width: 1.0;"/><polygon fill="#A80036" points="418.801,101.6406,427.801,105.6406,423.801,101.6406,427.801,97.6406,418.801,101.6406" style="stroke: #A80036; stroke-width: 1.0;"/><text fill="#000000" font-family="sans-serif" font-size="13" lengthAdjust="spacingAndGlyphs" textLength="87" x="437" y="95.1357">Pull with Dump</text><path d="M621,125.8936 C621,153.1676 621,197.7981 621,222.5951 " fill="none" style="stroke: #A80036; stroke-width: 1.0;"/><polygon fill="#A80036" points="621,120.6816,617,129.6816,621,125.6816,625,129.6816,621,120.6816" style="stroke: #A80036; stroke-width: 1.0;"/><text fill="#000000" font-family="sans-serif" font-size="13" lengthAdjust="spacingAndGlyphs" textLength="74" x="622" y="167.1357">Pull with API</text></g></svg>