<?xml version="1.0" encoding="UTF-8" standalone="no"?><svg xmlns="http://www.w3.org/2000/svg" xmlns:xlink="http://www.w3.org/1999/xlink" contentScriptType="application/ecmascript" contentStyleType="text/css" height="283px" preserveAspectRatio="none" style="width:607px;height:283px;" version="1.1" viewBox="0 0 607 283" width="607px" zoomAndPan="magnify"><defs><filter height="300%" id="f8dmsb3" width="300%" x="-1" y="-1"><feGaussianBlur result="blurOut" stdDeviation="2.0"/><feColorMatrix in="blurOut" result="blurOut2" type="matrix" values="0 0 0 0 0 0 0 0 0 0 0 0 0 0 0 0 0 0 .4 0"/><feOffset dx="4.0" dy="4.0" in="blurOut2" result="blurOut3"/><feBlend in="SourceGraphic" in2="blurOut3" mode="normal"/></filter></defs><g><text fill="#000000" font-family="sans-serif" font-size="18" lengthAdjust="spacingAndGlyphs" textLength="252" x="191" y="18.6855">Hospital Does most of the Work</text><!--cluster Hospital--><rect fill="#FFFFFF" filter="url(#f8dmsb3)" height="90" style="stroke: #000000; stroke-width: 2.0;" width="578" x="22" y="46.6406"/><text fill="#000000" font-family="sans-serif" font-size="14" font-weight="bold" lengthAdjust="spacingAndGlyphs" textLength="144" x="239" y="63.1738">Hospital EHR System</text><!--cluster Agency--><rect fill="#FFFFFF" filter="url(#f8dmsb3)" height="90" style="stroke: #000000; stroke-width: 2.0;" width="176" x="417" y="186.6406"/><text fill="#000000" font-family="sans-serif" font-size="14" font-weight="bold" lengthAdjust="spacingAndGlyphs" textLength="147" x="431.5" y="203.1738">Public Health Agency</text><!--entity MeasureSource--><rect fill="#FEFECE" filter="url(#f8dmsb3)" height="37.6094" style="stroke: #A80036; stroke-width: 1.5;" width="124" x="38" y="82.6406"/><text fill="#000000" font-family="sans-serif" font-size="14" lengthAdjust="spacingAndGlyphs" textLength="104" x="48" y="107.1738">Measure Source</text><!--entity ExternalStorage--><rect fill="#FEFECE" filter="url(#f8dmsb3)" height="37.6094" rx="35" ry="35" style="stroke: #000000; stroke-width: 1.5;" width="125" x="231.5" y="82.6406"/><text fill="#000000" font-family="sans-serif" font-size="14" lengthAdjust="spacingAndGlyphs" textLength="105" x="241.5" y="107.1738">External Storage</text><!--entity MeasureIntermediary--><rect fill="#FEFECE" filter="url(#f8dmsb3)" height="37.6094" style="stroke: #A80036; stroke-width: 1.5;" width="157" x="426.5" y="82.6406"/><text fill="#000000" font-family="sans-serif" font-size="14" lengthAdjust="spacingAndGlyphs" textLength="137" x="436.5" y="107.1738">Measure Intermediary</text><!--entity MeasureConsumer--><rect fill="#FEFECE" filter="url(#f8dmsb3)" height="37.6094" style="stroke: #A80036; stroke-width: 1.5;" width="144" x="433" y="222.6406"/><text fill="#000000" font-family="sans-serif" font-size="14" lengthAdjust="spacingAndGlyphs" textLength="124" x="443" y="247.1738">Measure Consumer</text><path d="M162.183,101.6406 C182.515,101.6406 205.2,101.6406 225.941,101.6406 " fill="none" style="stroke: #A80036; stroke-width: 1.0;"/><polygon fill="#A80036" points="231.17,101.6406,222.17,97.6406,226.17,101.6406,222.17,105.6406,231.17,101.6406" style="stroke: #A80036; stroke-width: 1.0;"/><text fill="#000000" font-family="sans-serif" font-size="13" lengthAdjust="spacingAndGlyphs" textLength="30" x="181.75" y="95.1357">Push</text><path d="M361.912,101.6406 C382.468,101.6406 405.214,101.6406 426.408,101.6406 " fill="none" style="stroke: #A80036; stroke-width: 1.0;"/><polygon fill="#A80036" points="356.736,101.6406,365.736,105.6406,361.736,101.6406,365.736,97.6406,356.736,101.6406" style="stroke: #A80036; stroke-width: 1.0;"/><text fill="#000000" font-family="sans-serif" font-size="13" lengthAdjust="spacingAndGlyphs" textLength="22" x="380.5" y="95.1357">Pull</text><path d="M505,125.8936 C505,153.1676 505,197.7981 505,222.5951 " fill="none" style="stroke: #A80036; stroke-width: 1.0;"/><polygon fill="#A80036" points="505,120.6816,501,129.6816,505,125.6816,509,129.6816,505,120.6816" style="stroke: #A80036; stroke-width: 1.0;"/><text fill="#000000" font-family="sans-serif" font-size="13" lengthAdjust="spacingAndGlyphs" textLength="22" x="506" y="167.1357">Pull</text></g></svg>