<?xml version="1.0" encoding="UTF-8" standalone="no"?>
<svg xmlns="http://www.w3.org/2000/svg" xmlns:xlink="http://www.w3.org/1999/xlink" contentScriptType="application/ecmascript" contentStyleType="text/css" height="333px" preserveAspectRatio="none" style="width:621px;height:333px;" version="1.1" viewBox="0 0 621 333" width="621px" zoomAndPan="magnify"><defs><filter height="300%" id="f1jdtpwvuz9is0" width="300%" x="-1" y="-1"><feGaussianBlur result="blurOut" stdDeviation="2.0"/><feColorMatrix in="blurOut" result="blurOut2" type="matrix" values="0 0 0 0 0 0 0 0 0 0 0 0 0 0 0 0 0 0 .4 0"/><feOffset dx="4.0" dy="4.0" in="blurOut2" result="blurOut3"/><feBlend in="SourceGraphic" in2="blurOut3" mode="normal"/></filter></defs><g><!--MD5=[3df3f66e830477886cffba2d9a6d3644]
class MeasureReport--><rect codeLine="1" fill="#FEFECE" filter="url(#f1jdtpwvuz9is0)" height="48" id="MeasureReport" style="stroke:#A80036;stroke-width:1.5;" width="124" x="7" y="7"/><ellipse cx="22" cy="23" fill="#FF0000" rx="11" ry="11" style="stroke:#A80036;stroke-width:1.0;"/><path d="M20.2969,24.2188 L21.9375,24.2188 C22.6406,24.4844 24.2031,26.3438 25.0625,28 L26.4063,28 C26.7344,28 27,27.9531 27.1094,27.875 C27.375,27.7344 27.5156,27.4375 27.5156,27.1563 C27.5156,26.875 27.3906,26.6094 27.1875,26.4531 C27.0156,26.3281 26.8281,26.2969 26.4063,26.2969 L26.1875,26.2969 C25.4688,25.1563 24.8438,24.375 24.0313,23.6875 C25.2813,23 25.875,22.1875 25.875,21.1094 C25.875,19.3281 24.3438,18.0938 22.1406,18.0938 L18.3438,18.0938 C17.9063,18.0938 17.7813,18.1094 17.625,18.2031 C17.375,18.3594 17.2188,18.6563 17.2188,18.9375 C17.2188,19.2188 17.3594,19.4688 17.5781,19.6406 C17.7344,19.75 17.9219,19.7813 18.3438,19.7813 L18.5938,19.7813 L18.5938,26.2969 L18.3438,26.2969 C17.9375,26.2969 17.7813,26.3125 17.625,26.4219 C17.375,26.5781 17.2188,26.8594 17.2188,27.1563 C17.2188,27.4063 17.3594,27.6719 17.5781,27.8281 C17.7188,27.9531 17.9531,28 18.3438,28 L20.8906,28 C21.2344,28 21.4844,27.9531 21.6094,27.875 C21.8594,27.7344 22.0156,27.4375 22.0156,27.1563 C22.0156,26.875 21.875,26.625 21.6719,26.4531 C21.5,26.3281 21.3594,26.2969 20.8906,26.2969 L20.2969,26.2969 L20.2969,24.2188 Z M20.2969,22.5313 L20.2969,19.7813 L22.2031,19.7813 C23.2969,19.7813 24.0781,20.3281 24.0781,21.0625 C24.0781,21.9063 23.0156,22.5313 21.5938,22.5313 L20.2969,22.5313 Z " fill="#000000"/><text fill="#000000" font-family="sans-serif" font-size="12" lengthAdjust="spacing" textLength="92" x="36" y="27.1543">MeasureReport</text><line style="stroke:#A80036;stroke-width:1.5;" x1="8" x2="130" y1="39" y2="39"/><line style="stroke:#A80036;stroke-width:1.5;" x1="8" x2="130" y1="47" y2="47"/><!--MD5=[d6d0992beb53de3366de8c91c341d9bf]
class Measure--><rect codeLine="2" fill="#FEFECE" filter="url(#f1jdtpwvuz9is0)" height="48" id="Measure" style="stroke:#A80036;stroke-width:1.5;" width="84" x="252" y="7"/><ellipse cx="267" cy="23" fill="#FF0000" rx="11" ry="11" style="stroke:#A80036;stroke-width:1.0;"/><path d="M265.2969,24.2188 L266.9375,24.2188 C267.6406,24.4844 269.2031,26.3438 270.0625,28 L271.4063,28 C271.7344,28 272,27.9531 272.1094,27.875 C272.375,27.7344 272.5156,27.4375 272.5156,27.1563 C272.5156,26.875 272.3906,26.6094 272.1875,26.4531 C272.0156,26.3281 271.8281,26.2969 271.4063,26.2969 L271.1875,26.2969 C270.4688,25.1563 269.8438,24.375 269.0313,23.6875 C270.2813,23 270.875,22.1875 270.875,21.1094 C270.875,19.3281 269.3438,18.0938 267.1406,18.0938 L263.3438,18.0938 C262.9063,18.0938 262.7813,18.1094 262.625,18.2031 C262.375,18.3594 262.2188,18.6563 262.2188,18.9375 C262.2188,19.2188 262.3594,19.4688 262.5781,19.6406 C262.7344,19.75 262.9219,19.7813 263.3438,19.7813 L263.5938,19.7813 L263.5938,26.2969 L263.3438,26.2969 C262.9375,26.2969 262.7813,26.3125 262.625,26.4219 C262.375,26.5781 262.2188,26.8594 262.2188,27.1563 C262.2188,27.4063 262.3594,27.6719 262.5781,27.8281 C262.7188,27.9531 262.9531,28 263.3438,28 L265.8906,28 C266.2344,28 266.4844,27.9531 266.6094,27.875 C266.8594,27.7344 267.0156,27.4375 267.0156,27.1563 C267.0156,26.875 266.875,26.625 266.6719,26.4531 C266.5,26.3281 266.3594,26.2969 265.8906,26.2969 L265.2969,26.2969 L265.2969,24.2188 Z M265.2969,22.5313 L265.2969,19.7813 L267.2031,19.7813 C268.2969,19.7813 269.0781,20.3281 269.0781,21.0625 C269.0781,21.9063 268.0156,22.5313 266.5938,22.5313 L265.2969,22.5313 Z " fill="#000000"/><text fill="#000000" font-family="sans-serif" font-size="12" lengthAdjust="spacing" textLength="52" x="281" y="27.1543">Measure</text><line style="stroke:#A80036;stroke-width:1.5;" x1="253" x2="335" y1="39" y2="39"/><line style="stroke:#A80036;stroke-width:1.5;" x1="253" x2="335" y1="47" y2="47"/><!--MD5=[41314a0efc36828092cff9ebad2fcafd]
class Group--><rect codeLine="3" fill="#FEFECE" filter="url(#f1jdtpwvuz9is0)" height="48" id="Group" style="stroke:#A80036;stroke-width:1.5;" width="69" x="447.5" y="7"/><ellipse cx="462.5" cy="23" fill="#FF0000" rx="11" ry="11" style="stroke:#A80036;stroke-width:1.0;"/><path d="M460.7969,24.2188 L462.4375,24.2188 C463.1406,24.4844 464.7031,26.3438 465.5625,28 L466.9063,28 C467.2344,28 467.5,27.9531 467.6094,27.875 C467.875,27.7344 468.0156,27.4375 468.0156,27.1563 C468.0156,26.875 467.8906,26.6094 467.6875,26.4531 C467.5156,26.3281 467.3281,26.2969 466.9063,26.2969 L466.6875,26.2969 C465.9688,25.1563 465.3438,24.375 464.5313,23.6875 C465.7813,23 466.375,22.1875 466.375,21.1094 C466.375,19.3281 464.8438,18.0938 462.6406,18.0938 L458.8438,18.0938 C458.4063,18.0938 458.2813,18.1094 458.125,18.2031 C457.875,18.3594 457.7188,18.6563 457.7188,18.9375 C457.7188,19.2188 457.8594,19.4688 458.0781,19.6406 C458.2344,19.75 458.4219,19.7813 458.8438,19.7813 L459.0938,19.7813 L459.0938,26.2969 L458.8438,26.2969 C458.4375,26.2969 458.2813,26.3125 458.125,26.4219 C457.875,26.5781 457.7188,26.8594 457.7188,27.1563 C457.7188,27.4063 457.8594,27.6719 458.0781,27.8281 C458.2188,27.9531 458.4531,28 458.8438,28 L461.3906,28 C461.7344,28 461.9844,27.9531 462.1094,27.875 C462.3594,27.7344 462.5156,27.4375 462.5156,27.1563 C462.5156,26.875 462.375,26.625 462.1719,26.4531 C462,26.3281 461.8594,26.2969 461.3906,26.2969 L460.7969,26.2969 L460.7969,24.2188 Z M460.7969,22.5313 L460.7969,19.7813 L462.7031,19.7813 C463.7969,19.7813 464.5781,20.3281 464.5781,21.0625 C464.5781,21.9063 463.5156,22.5313 462.0938,22.5313 L460.7969,22.5313 Z " fill="#000000"/><text fill="#000000" font-family="sans-serif" font-size="12" lengthAdjust="spacing" textLength="37" x="476.5" y="27.1543">Group</text><line style="stroke:#A80036;stroke-width:1.5;" x1="448.5" x2="515.5" y1="39" y2="39"/><line style="stroke:#A80036;stroke-width:1.5;" x1="448.5" x2="515.5" y1="47" y2="47"/><!--MD5=[5bf5cad7bd91f40db285698269905878]
class Characteristic--><rect codeLine="4" fill="#FEFECE" filter="url(#f1jdtpwvuz9is0)" height="48" id="Characteristic" style="stroke:#A80036;stroke-width:1.5;" width="114" x="425" y="139"/><ellipse cx="440" cy="155" fill="#FFFF00" rx="11" ry="11" style="stroke:#A80036;stroke-width:1.0;"/><path d="M438.7969,155.875 L440.25,155.875 L440.25,155.9844 C440.25,156.3906 440.2813,156.5469 440.3594,156.7031 C440.5156,156.9531 440.7969,157.1094 441.0938,157.1094 C441.3438,157.1094 441.6094,156.9688 441.7656,156.75 C441.8906,156.5938 441.9219,156.4375 441.9219,155.9844 L441.9219,154.0625 C441.9219,153.9063 441.9219,153.8594 441.9063,153.7031 C441.8438,153.2344 441.5313,152.9219 441.0781,152.9219 C440.8281,152.9219 440.5625,153.0625 440.3906,153.2813 C440.2813,153.4531 440.25,153.6094 440.25,154.0625 L440.25,154.1875 L438.7969,154.1875 L438.7969,151.7813 L442.7813,151.7813 L442.7813,152.6406 C442.7813,153.0469 442.8125,153.2188 442.8906,153.375 C443.0625,153.625 443.3438,153.7813 443.625,153.7813 C443.8906,153.7813 444.1563,153.6406 444.3281,153.4219 C444.4375,153.25 444.4688,153.1094 444.4688,152.6406 L444.4688,150.0938 L436.8438,150.0938 C436.4063,150.0938 436.2813,150.1094 436.125,150.2031 C435.875,150.3594 435.7188,150.6563 435.7188,150.9375 C435.7188,151.2188 435.8594,151.4688 436.0781,151.6406 C436.2344,151.75 436.4219,151.7813 436.8438,151.7813 L437.0938,151.7813 L437.0938,158.2969 L436.8438,158.2969 C436.4375,158.2969 436.2813,158.3125 436.125,158.4219 C435.875,158.5938 435.7188,158.8594 435.7188,159.1563 C435.7188,159.4219 435.8594,159.6719 436.0781,159.8281 C436.2188,159.9531 436.4531,160 436.8438,160 L444.8438,160 L444.8438,157.4219 C444.8438,156.9844 444.8125,156.8438 444.7344,156.6875 C444.5625,156.4375 444.2813,156.2813 444,156.2813 C443.7344,156.2813 443.4688,156.3906 443.2969,156.6406 C443.1875,156.7969 443.1563,156.9375 443.1563,157.4219 L443.1563,158.2969 L438.7969,158.2969 L438.7969,155.875 Z " fill="#000000"/><text fill="#000000" font-family="sans-serif" font-size="12" lengthAdjust="spacing" textLength="82" x="454" y="159.1543">Characteristic</text><line style="stroke:#A80036;stroke-width:1.5;" x1="426" x2="538" y1="171" y2="171"/><line style="stroke:#A80036;stroke-width:1.5;" x1="426" x2="538" y1="179" y2="179"/><!--MD5=[e27d3385bbfe63636ecb8c9fd83616d7]
class CountableEntity--><rect codeLine="5" fill="#FEFECE" filter="url(#f1jdtpwvuz9is0)" height="48" id="CountableEntity" style="stroke:#A80036;stroke-width:1.5;" width="124" x="205" y="271"/><ellipse cx="220" cy="287" fill="#00FFFF" rx="11" ry="11" style="stroke:#A80036;stroke-width:1.0;"/><path d="M219.5469,288.5938 L221.2188,288.5938 C222.7969,288.5938 223.6406,288.3125 224.3906,287.4844 C224.9375,286.8906 225.25,286.0781 225.25,285.2969 C225.25,283.4219 223.7188,282.0938 221.5469,282.0938 L217.5938,282.0938 C217.1563,282.0938 217.0313,282.1094 216.875,282.2031 C216.625,282.3594 216.4688,282.6563 216.4688,282.9375 C216.4688,283.1875 216.6094,283.4688 216.8281,283.6406 C216.9844,283.75 217.1719,283.7813 217.5938,283.7813 L217.8438,283.7813 L217.8438,290.2969 L217.5938,290.2969 C217.1875,290.2969 217.0313,290.3125 216.875,290.4219 C216.625,290.5781 216.4688,290.8594 216.4688,291.1563 C216.4688,291.4063 216.6094,291.6719 216.8281,291.8281 C216.9688,291.9531 217.2031,292 217.5938,292 L221.2344,292 C221.5781,292 221.8281,291.9531 221.9375,291.875 C222.2031,291.7344 222.3594,291.4375 222.3594,291.1563 C222.3594,290.875 222.2188,290.625 222,290.4531 C221.8281,290.3281 221.6875,290.2969 221.2344,290.2969 L219.5469,290.2969 L219.5469,288.5938 Z M219.5469,283.7813 L221.5469,283.7813 C222.7344,283.7813 223.4375,284.3906 223.4375,285.3594 C223.4375,286.3125 222.7344,286.9063 221.5469,286.9063 L219.5469,286.9063 L219.5469,283.7813 Z " fill="#000000"/><text fill="#000000" font-family="sans-serif" font-size="12" lengthAdjust="spacing" textLength="92" x="234" y="291.1543">CountableEntity</text><line style="stroke:#A80036;stroke-width:1.5;" x1="206" x2="328" y1="303" y2="303"/><line style="stroke:#A80036;stroke-width:1.5;" x1="206" x2="328" y1="311" y2="311"/><!--MD5=[d9427b671d7d049aff2d6f2fe36a13b3]
class Field--><rect codeLine="6" fill="#FEFECE" filter="url(#f1jdtpwvuz9is0)" height="48" id="Field" style="stroke:#A80036;stroke-width:1.5;" width="61" x="451.5" y="271"/><ellipse cx="466.5" cy="287" fill="#FFFF00" rx="11" ry="11" style="stroke:#A80036;stroke-width:1.0;"/><path d="M465.2969,287.875 L466.75,287.875 L466.75,287.9844 C466.75,288.3906 466.7813,288.5469 466.8594,288.7031 C467.0156,288.9531 467.2969,289.1094 467.5938,289.1094 C467.8438,289.1094 468.1094,288.9688 468.2656,288.75 C468.3906,288.5938 468.4219,288.4375 468.4219,287.9844 L468.4219,286.0625 C468.4219,285.9063 468.4219,285.8594 468.4063,285.7031 C468.3438,285.2344 468.0313,284.9219 467.5781,284.9219 C467.3281,284.9219 467.0625,285.0625 466.8906,285.2813 C466.7813,285.4531 466.75,285.6094 466.75,286.0625 L466.75,286.1875 L465.2969,286.1875 L465.2969,283.7813 L469.2813,283.7813 L469.2813,284.6406 C469.2813,285.0469 469.3125,285.2188 469.3906,285.375 C469.5625,285.625 469.8438,285.7813 470.125,285.7813 C470.3906,285.7813 470.6563,285.6406 470.8281,285.4219 C470.9375,285.25 470.9688,285.1094 470.9688,284.6406 L470.9688,282.0938 L463.3438,282.0938 C462.9063,282.0938 462.7813,282.1094 462.625,282.2031 C462.375,282.3594 462.2188,282.6563 462.2188,282.9375 C462.2188,283.2188 462.3594,283.4688 462.5781,283.6406 C462.7344,283.75 462.9219,283.7813 463.3438,283.7813 L463.5938,283.7813 L463.5938,290.2969 L463.3438,290.2969 C462.9375,290.2969 462.7813,290.3125 462.625,290.4219 C462.375,290.5938 462.2188,290.8594 462.2188,291.1563 C462.2188,291.4219 462.3594,291.6719 462.5781,291.8281 C462.7188,291.9531 462.9531,292 463.3438,292 L471.3438,292 L471.3438,289.4219 C471.3438,288.9844 471.3125,288.8438 471.2344,288.6875 C471.0625,288.4375 470.7813,288.2813 470.5,288.2813 C470.2344,288.2813 469.9688,288.3906 469.7969,288.6406 C469.6875,288.7969 469.6563,288.9375 469.6563,289.4219 L469.6563,290.2969 L465.2969,290.2969 L465.2969,287.875 Z " fill="#000000"/><text fill="#000000" font-family="sans-serif" font-size="12" lengthAdjust="spacing" textLength="29" x="480.5" y="291.1543">Field</text><line style="stroke:#A80036;stroke-width:1.5;" x1="452.5" x2="511.5" y1="303" y2="303"/><line style="stroke:#A80036;stroke-width:1.5;" x1="452.5" x2="511.5" y1="311" y2="311"/><ellipse cx="276" cy="163" fill="#000000" rx="2" ry="2" style="stroke:none;stroke-width:1.0;"/><!--MD5=[f4ae6bb931c8a6a76c38cf43ff3fae35]
link MeasureReport to Measure--><path codeLine="8" d="M143.078,31 C143.078,31 210.024,31 238.353,31 " fill="none" id="MeasureReport-Measure" style="stroke:#A80036;stroke-width:1.0;"/><polygon fill="#A80036" points="251.689,31,242.689,27,246.689,31,242.689,35,251.689,31" style="stroke:#A80036;stroke-width:1.0;"/><line style="stroke:#A80036;stroke-width:1.0;" x1="246.689" x2="238.6885" y1="31" y2="31"/><polygon fill="#FFFFFF" points="131.078,31,137.078,35,143.078,31,137.078,27,131.078,31" style="stroke:#A80036;stroke-width:1.0;"/><text fill="#000000" font-family="sans-serif" font-size="13" lengthAdjust="spacing" textLength="84" x="149.5" y="24.0669">Is Defined By</text><!--MD5=[37e56974d92bbbf8a72986d2b6ac62d4]
link Measure to Group--><path codeLine="9" d="M348.191,31 C348.191,31 408.348,31 434.214,31 " fill="none" id="Measure-Group" style="stroke:#A80036;stroke-width:1.0;"/><polygon fill="#A80036" points="447.492,31,438.492,27,442.492,31,438.492,35,447.492,31" style="stroke:#A80036;stroke-width:1.0;"/><line style="stroke:#A80036;stroke-width:1.0;" x1="442.492" x2="434.492" y1="31" y2="31"/><polygon fill="#FFFFFF" points="336.191,31,342.191,35,348.191,31,342.191,27,336.191,31" style="stroke:#A80036;stroke-width:1.0;"/><text fill="#000000" font-family="sans-serif" font-size="13" lengthAdjust="spacing" textLength="75" x="354.25" y="24.0669">Has Subject</text><!--MD5=[a9b08c1c3e97f3cf4804a9336eb0079b]
reverse link Group to Characteristic--><path codeLine="10" d="M482,68.447 C482,91.059 482,119.425 482,138.96 " fill="none" id="Group-backto-Characteristic" style="stroke:#A80036;stroke-width:1.0;"/><polygon fill="#A80036" points="482,55.241,478,61.241,482,67.241,486,61.241,482,55.241" style="stroke:#A80036;stroke-width:1.0;"/><text fill="#000000" font-family="sans-serif" font-size="13" lengthAdjust="spacing" textLength="78" x="483" y="98.0669">Stratified By</text><!--MD5=[0e971a1fac3b906d907b197deb665581]
reverse link Group to apoint884836--><path d="M435.653,58.652 C421.542,66.938 406.051,76.208 392,85 C343.641,115.259 285.861,155.167 277.128,161.218 " fill="none" id="Group-backto-apoint884836" style="stroke:#A80036;stroke-width:1.0;"/><polygon fill="#FFFFFF" points="447.12,51.955,439.9216,51.5266,436.7576,58.0065,443.956,58.4349,447.12,51.955" style="stroke:#A80036;stroke-width:1.0;"/><text fill="#000000" font-family="sans-serif" font-size="13" lengthAdjust="spacing" textLength="80" x="393" y="98.0669">Has Member</text><!--MD5=[5e981bc2e87d083d1e5d66237324535c]
link apoint884836 to CountableEntity--><path d="M275.899,165.46 C275.23,175.125 271.391,230.5689 268.979,265.4101 " fill="none" id="apoint884836-to-CountableEntity" style="stroke:#A80036;stroke-width:1.0;"/><polygon fill="#A80036" points="268.605,270.8148,273.2173,262.1127,268.9505,265.8268,265.2364,261.5599,268.605,270.8148" style="stroke:#A80036;stroke-width:1.0;"/><!--MD5=[8857bf8375c2aecd27ed8c94c97f13ed]
link apoint884836 to Characteristic--><path d="M278.313,163 C292.569,163 369.679,163 424.806,163 " fill="none" id="apoint884836-Characteristic" style="stroke:#A80036;stroke-width:1.0;stroke-dasharray:7.0,7.0;"/><text fill="#000000" font-family="sans-serif" font-size="13" lengthAdjust="spacing" textLength="110" x="296.5" y="156.0669">Identifies Field Of</text><!--MD5=[819b3cd139d1f71ef67f98f0b91f4313]
reverse link CountableEntity to Field--><path codeLine="15" d="M342.662,295 C380.032,295 423.046,295 451.28,295 " fill="none" id="CountableEntity-backto-Field" style="stroke:#A80036;stroke-width:1.0;"/><polygon fill="#A80036" points="329.187,295,335.187,299,341.187,295,335.187,291,329.187,295" style="stroke:#A80036;stroke-width:1.0;"/><text fill="#000000" font-family="sans-serif" font-size="13" lengthAdjust="spacing" textLength="86" x="347.25" y="288.0669">Composed of</text><!--MD5=[9afd58de0630ccd5178d6be2709c73f0]
link Characteristic to Field--><path codeLine="16" d="M482,187.241 C482,209.24 482,242.3054 482,265.8018 " fill="none" id="Characteristic-to-Field" style="stroke:#A80036;stroke-width:1.0;"/><polygon fill="#A80036" points="482,270.9598,486,261.9598,482,265.9598,478,261.9598,482,270.9598" style="stroke:#A80036;stroke-width:1.0;"/><text fill="#000000" font-family="sans-serif" font-size="13" lengthAdjust="spacing" textLength="45" x="483" y="237.0669">Names</text><!--MD5=[0be1d48780af1c11c0148b2aee502167]
link MeasureReport to CountableEntity--><path codeLine="18" d="M79.5825,55.032 C95.1453,87.668 126.259,148.464 162,194 C183.509,221.4039 212.447,248.4021 234.496,267.4253 " fill="none" id="MeasureReport-to-CountableEntity" style="stroke:#A80036;stroke-width:1.0;stroke-dasharray:7.0,7.0;"/><polygon fill="#A80036" points="238.53,270.8828,234.3003,261.9884,234.7339,267.6287,229.0937,268.0622,238.53,270.8828" style="stroke:#A80036;stroke-width:1.0;"/><text fill="#000000" font-family="sans-serif" font-size="13" lengthAdjust="spacing" textLength="60" x="163" y="145.0669">Assesses</text><text fill="#000000" font-family="sans-serif" font-size="13" lengthAdjust="spacing" textLength="0" x="211" y="160.1997"/><text fill="#000000" font-family="sans-serif" font-size="13" lengthAdjust="spacing" textLength="0" x="211" y="175.3325"/><text fill="#000000" font-family="sans-serif" font-size="13" lengthAdjust="spacing" textLength="0" x="211" y="190.4653"/><!--MD5=[1c44d07856ca462d4b2d8ef7c7ee5ee7]
@startuml
class MeasureReport <<(R,Red)>>
class Measure <<(R,Red)>>
class Group <<(R,Red)>>
class Characteristic <<(E,Yellow)>>
class CountableEntity <<(P,Cyan)>>
class Field <<(E,Yellow)>>

MeasureReport o->  Measure : Is Defined By
Measure  o->  Group : Has Subject
Group *- - Characteristic : "Stratified By             "
Group o- ->  CountableEntity : "Has Member"

(Group, CountableEntity) .. Characteristic : Identifies Field Of

CountableEntity  *-   Field : Composed of
Characteristic - -> Field : Names

MeasureReport ..> CountableEntity : "Assesses        \n\n\n"
@enduml

PlantUML version 1.2021.4(Sun Apr 04 08:49:39 UTC 2021)
(GPL source distribution)
Java Runtime: Java(TM) SE Runtime Environment
JVM: Java HotSpot(TM) 64-Bit Server VM
Default Encoding: UTF-8
Language: en
Country: US
--></g></svg>