<?xml version="1.0" encoding="UTF-8" standalone="no"?><svg xmlns="http://www.w3.org/2000/svg" xmlns:xlink="http://www.w3.org/1999/xlink" contentScriptType="application/ecmascript" contentStyleType="text/css" height="336px" preserveAspectRatio="none" style="width:530px;height:336px;" version="1.1" viewBox="0 0 530 336" width="530px" zoomAndPan="magnify"><defs><filter height="300%" id="f3hkp53" width="300%" x="-1" y="-1"><feGaussianBlur result="blurOut" stdDeviation="2.0"/><feColorMatrix in="blurOut" result="blurOut2" type="matrix" values="0 0 0 0 0 0 0 0 0 0 0 0 0 0 0 0 0 0 .4 0"/><feOffset dx="4.0" dy="4.0" in="blurOut2" result="blurOut3"/><feBlend in="SourceGraphic" in2="blurOut3" mode="normal"/></filter></defs><g><!--class MeasureReport--><rect fill="#FEFECE" filter="url(#f3hkp53)" height="48" style="stroke: #A80036; stroke-width: 1.5;" width="117" x="6" y="8"/><ellipse cx="21" cy="24" fill="#FF0000" rx="11" ry="11" style="stroke: #A80036; stroke-width: 1.0;"/><path d="M19.8438,25.1563 L19.8438,27.2969 L20.4531,27.2969 Q21.0781,27.2969 21.3281,27.5313 Q21.5938,27.7656 21.5938,28.1563 Q21.5938,28.5313 21.3281,28.7656 Q21.0781,29 20.4531,29 L17.875,29 Q17.2656,29 17,28.7656 Q16.7344,28.5313 16.7344,28.1406 Q16.7344,27.7656 17,27.5313 Q17.2656,27.2969 17.875,27.2969 L18.1406,27.2969 L18.1406,20.6406 L17.875,20.6406 Q17.2656,20.6406 17,20.4063 Q16.7344,20.1719 16.7344,19.7813 Q16.7344,19.4063 17,19.1719 Q17.2656,18.9375 17.875,18.9375 L21.7344,18.9375 Q23.5313,18.9375 24.5156,19.8281 Q25.5156,20.7188 25.5156,22 Q25.5156,22.7969 25.0469,23.4531 Q24.5781,24.1094 23.6406,24.6094 Q24.1875,25.0781 24.7969,25.8281 Q25.1875,26.2969 25.8281,27.2969 Q26.4844,27.2969 26.6875,27.4375 Q27.0625,27.6875 27.0625,28.1563 Q27.0625,28.5313 26.7969,28.7656 Q26.5469,29 25.9375,29 L24.9531,29 Q22.8906,25.7969 21.5313,25.1563 L19.8438,25.1563 Z M19.8438,23.4531 L21.1719,23.4531 Q21.9063,23.4531 22.5,23.2344 Q23.2813,22.9375 23.5469,22.6094 Q23.8125,22.2656 23.8125,21.9375 Q23.8125,21.4688 23.2969,21.0625 Q22.7813,20.6406 21.7969,20.6406 L19.8438,20.6406 L19.8438,23.4531 Z "/><text fill="#000000" font-family="sans-serif" font-size="12" lengthAdjust="spacingAndGlyphs" textLength="85" x="35" y="28.9102">MeasureReport</text><line style="stroke: #A80036; stroke-width: 1.5;" x1="7" x2="122" y1="40" y2="40"/><line style="stroke: #A80036; stroke-width: 1.5;" x1="7" x2="122" y1="48" y2="48"/><!--class Measure--><rect fill="#FEFECE" filter="url(#f3hkp53)" height="48" style="stroke: #A80036; stroke-width: 1.5;" width="80" x="236.5" y="8"/><ellipse cx="251.5" cy="24" fill="#FF0000" rx="11" ry="11" style="stroke: #A80036; stroke-width: 1.0;"/><path d="M250.3438,25.1563 L250.3438,27.2969 L250.9531,27.2969 Q251.5781,27.2969 251.8281,27.5313 Q252.0938,27.7656 252.0938,28.1563 Q252.0938,28.5313 251.8281,28.7656 Q251.5781,29 250.9531,29 L248.375,29 Q247.7656,29 247.5,28.7656 Q247.2344,28.5313 247.2344,28.1406 Q247.2344,27.7656 247.5,27.5313 Q247.7656,27.2969 248.375,27.2969 L248.6406,27.2969 L248.6406,20.6406 L248.375,20.6406 Q247.7656,20.6406 247.5,20.4063 Q247.2344,20.1719 247.2344,19.7813 Q247.2344,19.4063 247.5,19.1719 Q247.7656,18.9375 248.375,18.9375 L252.2344,18.9375 Q254.0313,18.9375 255.0156,19.8281 Q256.0156,20.7188 256.0156,22 Q256.0156,22.7969 255.5469,23.4531 Q255.0781,24.1094 254.1406,24.6094 Q254.6875,25.0781 255.2969,25.8281 Q255.6875,26.2969 256.3281,27.2969 Q256.9844,27.2969 257.1875,27.4375 Q257.5625,27.6875 257.5625,28.1563 Q257.5625,28.5313 257.2969,28.7656 Q257.0469,29 256.4375,29 L255.4531,29 Q253.3906,25.7969 252.0313,25.1563 L250.3438,25.1563 Z M250.3438,23.4531 L251.6719,23.4531 Q252.4063,23.4531 253,23.2344 Q253.7813,22.9375 254.0469,22.6094 Q254.3125,22.2656 254.3125,21.9375 Q254.3125,21.4688 253.7969,21.0625 Q253.2813,20.6406 252.2969,20.6406 L250.3438,20.6406 L250.3438,23.4531 Z "/><text fill="#000000" font-family="sans-serif" font-size="12" lengthAdjust="spacingAndGlyphs" textLength="48" x="265.5" y="28.9102">Measure</text><line style="stroke: #A80036; stroke-width: 1.5;" x1="237.5" x2="315.5" y1="40" y2="40"/><line style="stroke: #A80036; stroke-width: 1.5;" x1="237.5" x2="315.5" y1="48" y2="48"/><!--class Group--><rect fill="#FEFECE" filter="url(#f3hkp53)" height="48" style="stroke: #A80036; stroke-width: 1.5;" width="66" x="424.5" y="8"/><ellipse cx="439.5" cy="24" fill="#FF0000" rx="11" ry="11" style="stroke: #A80036; stroke-width: 1.0;"/><path d="M438.3438,25.1563 L438.3438,27.2969 L438.9531,27.2969 Q439.5781,27.2969 439.8281,27.5313 Q440.0938,27.7656 440.0938,28.1563 Q440.0938,28.5313 439.8281,28.7656 Q439.5781,29 438.9531,29 L436.375,29 Q435.7656,29 435.5,28.7656 Q435.2344,28.5313 435.2344,28.1406 Q435.2344,27.7656 435.5,27.5313 Q435.7656,27.2969 436.375,27.2969 L436.6406,27.2969 L436.6406,20.6406 L436.375,20.6406 Q435.7656,20.6406 435.5,20.4063 Q435.2344,20.1719 435.2344,19.7813 Q435.2344,19.4063 435.5,19.1719 Q435.7656,18.9375 436.375,18.9375 L440.2344,18.9375 Q442.0313,18.9375 443.0156,19.8281 Q444.0156,20.7188 444.0156,22 Q444.0156,22.7969 443.5469,23.4531 Q443.0781,24.1094 442.1406,24.6094 Q442.6875,25.0781 443.2969,25.8281 Q443.6875,26.2969 444.3281,27.2969 Q444.9844,27.2969 445.1875,27.4375 Q445.5625,27.6875 445.5625,28.1563 Q445.5625,28.5313 445.2969,28.7656 Q445.0469,29 444.4375,29 L443.4531,29 Q441.3906,25.7969 440.0313,25.1563 L438.3438,25.1563 Z M438.3438,23.4531 L439.6719,23.4531 Q440.4063,23.4531 441,23.2344 Q441.7813,22.9375 442.0469,22.6094 Q442.3125,22.2656 442.3125,21.9375 Q442.3125,21.4688 441.7969,21.0625 Q441.2813,20.6406 440.2969,20.6406 L438.3438,20.6406 L438.3438,23.4531 Z "/><text fill="#000000" font-family="sans-serif" font-size="12" lengthAdjust="spacingAndGlyphs" textLength="34" x="453.5" y="28.9102">Group</text><line style="stroke: #A80036; stroke-width: 1.5;" x1="425.5" x2="489.5" y1="40" y2="40"/><line style="stroke: #A80036; stroke-width: 1.5;" x1="425.5" x2="489.5" y1="48" y2="48"/><!--class Characteristic--><rect fill="#FEFECE" filter="url(#f3hkp53)" height="48" style="stroke: #A80036; stroke-width: 1.5;" width="108" x="403.5" y="143.5"/><ellipse cx="418.5" cy="159.5" fill="#FFFF00" rx="11" ry="11" style="stroke: #A80036; stroke-width: 1.0;"/><path d="M417.3594,160.2969 L417.3594,162.7969 L421.6875,162.7969 L421.6875,161.875 Q421.6875,161.2656 421.9219,161 Q422.1719,160.7344 422.5469,160.7344 Q422.9219,160.7344 423.1563,161 Q423.3906,161.2656 423.3906,161.875 L423.3906,164.5 L415.3906,164.5 Q414.7656,164.5 414.5,164.2656 Q414.25,164.0313 414.25,163.6406 Q414.25,163.2656 414.5156,163.0313 Q414.7813,162.7969 415.3906,162.7969 L415.6563,162.7969 L415.6563,156.1406 L415.3906,156.1406 Q414.7656,156.1406 414.5,155.9063 Q414.25,155.6719 414.25,155.2813 Q414.25,154.9063 414.5,154.6719 Q414.7656,154.4375 415.3906,154.4375 L423.0156,154.4375 L423.0156,157.0313 Q423.0156,157.6406 422.7813,157.9063 Q422.5625,158.1563 422.1719,158.1563 Q421.7969,158.1563 421.5625,157.9063 Q421.3281,157.6406 421.3281,157.0313 L421.3281,156.1406 L417.3594,156.1406 L417.3594,158.5938 L418.8438,158.5938 Q418.8438,157.9375 418.9688,157.75 Q419.2344,157.3438 419.7031,157.3438 Q420.0781,157.3438 420.3125,157.6094 Q420.5469,157.8594 420.5469,158.4688 L420.5469,160.4375 Q420.5469,160.9844 420.4219,161.1719 Q420.1563,161.5625 419.7031,161.5625 Q419.2344,161.5625 418.9688,161.1563 Q418.8438,160.9688 418.8438,160.2969 L417.3594,160.2969 Z "/><text fill="#000000" font-family="sans-serif" font-size="12" lengthAdjust="spacingAndGlyphs" textLength="76" x="432.5" y="164.4102">Characteristic</text><line style="stroke: #A80036; stroke-width: 1.5;" x1="404.5" x2="510.5" y1="175.5" y2="175.5"/><line style="stroke: #A80036; stroke-width: 1.5;" x1="404.5" x2="510.5" y1="183.5" y2="183.5"/><!--class CountableEntity--><rect fill="#FEFECE" filter="url(#f3hkp53)" height="48" style="stroke: #A80036; stroke-width: 1.5;" width="118" x="197.5" y="279"/><ellipse cx="212.5" cy="295" fill="#00FFFF" rx="11" ry="11" style="stroke: #A80036; stroke-width: 1.0;"/><path d="M213.125,296.5469 L213.125,298.2969 L214.8281,298.2969 Q215.4531,298.2969 215.7031,298.5313 Q215.9688,298.7656 215.9688,299.1563 Q215.9688,299.5313 215.7031,299.7656 Q215.4531,300 214.8281,300 L211.1563,300 Q210.5313,300 210.2656,299.7656 Q210.0156,299.5313 210.0156,299.1406 Q210.0156,298.7656 210.2813,298.5313 Q210.5469,298.2969 211.1563,298.2969 L211.4219,298.2969 L211.4219,291.6406 L211.1563,291.6406 Q210.5313,291.6406 210.2656,291.4063 Q210.0156,291.1719 210.0156,290.7813 Q210.0156,290.4063 210.2656,290.1719 Q210.5313,289.9375 211.1563,289.9375 L215.0625,289.9375 Q216.7969,289.9375 217.7969,290.8906 Q218.8125,291.8281 218.8125,293.1719 Q218.8125,293.9219 218.4688,294.5938 Q218.2188,295.0781 217.6094,295.5781 Q217.0156,296.0625 216.375,296.3125 Q215.75,296.5469 214.7344,296.5469 L213.125,296.5469 Z M213.125,294.8438 L214.6875,294.8438 Q215.8125,294.8438 216.4531,294.3438 Q217.1094,293.8438 217.1094,293.1406 Q217.1094,292.5313 216.5781,292.0938 Q216.0625,291.6406 215.0781,291.6406 L213.125,291.6406 L213.125,294.8438 Z "/><text fill="#000000" font-family="sans-serif" font-size="12" lengthAdjust="spacingAndGlyphs" textLength="86" x="226.5" y="299.9102">CountableEntity</text><line style="stroke: #A80036; stroke-width: 1.5;" x1="198.5" x2="314.5" y1="311" y2="311"/><line style="stroke: #A80036; stroke-width: 1.5;" x1="198.5" x2="314.5" y1="319" y2="319"/><!--class Field--><rect fill="#FEFECE" filter="url(#f3hkp53)" height="48" style="stroke: #A80036; stroke-width: 1.5;" width="59" x="428" y="279"/><ellipse cx="443" cy="295" fill="#FFFF00" rx="11" ry="11" style="stroke: #A80036; stroke-width: 1.0;"/><path d="M441.8594,295.7969 L441.8594,298.2969 L446.1875,298.2969 L446.1875,297.375 Q446.1875,296.7656 446.4219,296.5 Q446.6719,296.2344 447.0469,296.2344 Q447.4219,296.2344 447.6563,296.5 Q447.8906,296.7656 447.8906,297.375 L447.8906,300 L439.8906,300 Q439.2656,300 439,299.7656 Q438.75,299.5313 438.75,299.1406 Q438.75,298.7656 439.0156,298.5313 Q439.2813,298.2969 439.8906,298.2969 L440.1563,298.2969 L440.1563,291.6406 L439.8906,291.6406 Q439.2656,291.6406 439,291.4063 Q438.75,291.1719 438.75,290.7813 Q438.75,290.4063 439,290.1719 Q439.2656,289.9375 439.8906,289.9375 L447.5156,289.9375 L447.5156,292.5313 Q447.5156,293.1406 447.2813,293.4063 Q447.0625,293.6563 446.6719,293.6563 Q446.2969,293.6563 446.0625,293.4063 Q445.8281,293.1406 445.8281,292.5313 L445.8281,291.6406 L441.8594,291.6406 L441.8594,294.0938 L443.3438,294.0938 Q443.3438,293.4375 443.4688,293.25 Q443.7344,292.8438 444.2031,292.8438 Q444.5781,292.8438 444.8125,293.1094 Q445.0469,293.3594 445.0469,293.9688 L445.0469,295.9375 Q445.0469,296.4844 444.9219,296.6719 Q444.6563,297.0625 444.2031,297.0625 Q443.7344,297.0625 443.4688,296.6563 Q443.3438,296.4688 443.3438,295.7969 L441.8594,295.7969 Z "/><text fill="#000000" font-family="sans-serif" font-size="12" lengthAdjust="spacingAndGlyphs" textLength="27" x="457" y="299.9102">Field</text><line style="stroke: #A80036; stroke-width: 1.5;" x1="429" x2="486" y1="311" y2="311"/><line style="stroke: #A80036; stroke-width: 1.5;" x1="429" x2="486" y1="319" y2="319"/><ellipse cx="264.5" cy="167.5" fill="#000000" rx="2" ry="2" style="stroke: none; stroke-width: 1.0;"/><path d="M136.279,32 C164.743,32 196.896,32 223.226,32 " fill="none" style="stroke: #A80036; stroke-width: 1.0;"/><polygon fill="#A80036" points="236.413,32,227.413,28,231.413,32,227.413,36,236.413,32" style="stroke: #A80036; stroke-width: 1.0;"/><line style="stroke: #A80036; stroke-width: 1.0;" x1="231.413" x2="223.413" y1="32" y2="32"/><polygon fill="#FFFFFF" points="123.272,32,129.272,36,135.272,32,129.272,28,123.272,32" style="stroke: #A80036; stroke-width: 1.0;"/><text fill="#000000" font-family="sans-serif" font-size="13" lengthAdjust="spacingAndGlyphs" textLength="77" x="141.25" y="25.4951">Is Defined By</text><path d="M329.766,32 C355.629,32 386.406,32 411.269,32 " fill="none" style="stroke: #A80036; stroke-width: 1.0;"/><polygon fill="#A80036" points="424.404,32,415.404,28,419.404,32,415.404,36,424.404,32" style="stroke: #A80036; stroke-width: 1.0;"/><line style="stroke: #A80036; stroke-width: 1.0;" x1="419.404" x2="411.404" y1="32" y2="32"/><polygon fill="#FFFFFF" points="316.67,32,322.67,36,328.67,32,322.67,28,316.67,32" style="stroke: #A80036; stroke-width: 1.0;"/><text fill="#000000" font-family="sans-serif" font-size="13" lengthAdjust="spacingAndGlyphs" textLength="71" x="335" y="25.4951">Has Subject</text><path d="M457.5,69.555 C457.5,93.001 457.5,122.745 457.5,143.065 " fill="none" style="stroke: #A80036; stroke-width: 1.0;"/><polygon fill="#A80036" points="457.5,56.254,453.5,62.254,457.5,68.254,461.5,62.254,457.5,56.254" style="stroke: #A80036; stroke-width: 1.0;"/><text fill="#000000" font-family="sans-serif" font-size="13" lengthAdjust="spacingAndGlyphs" textLength="71" x="458.5" y="100.4951">Stratified By</text><path d="M413.387,59.986 C400.41,68.151 386.273,77.271 373.5,86 C327.662,117.325 273.704,159.308 265.553,165.676 " fill="none" style="stroke: #A80036; stroke-width: 1.0;"/><polygon fill="#FFFFFF" points="424.428,53.09,417.2201,52.8755,414.2498,59.4464,421.4577,59.6609,424.428,53.09" style="stroke: #A80036; stroke-width: 1.0;"/><text fill="#000000" font-family="sans-serif" font-size="13" lengthAdjust="spacingAndGlyphs" textLength="74" x="374.5" y="100.4951">Has Member</text><path d="M264.41,169.999 C263.81,180.02 260.338,237.9606 258.198,273.6667 " fill="none" style="stroke: #A80036; stroke-width: 1.0;"/><polygon fill="#A80036" points="257.892,278.7651,262.4234,270.0206,258.1912,273.7741,254.4377,269.5419,257.892,278.7651" style="stroke: #A80036; stroke-width: 1.0;"/><path d="M266.667,167.5 C279.961,167.5 351.596,167.5 403.193,167.5 " fill="none" style="stroke: #A80036; stroke-width: 1.0; stroke-dasharray: 7.0,7.0;"/><text fill="#000000" font-family="sans-serif" font-size="13" lengthAdjust="spacingAndGlyphs" textLength="100" x="285" y="160.9951">Identifies Field Of</text><path d="M329.036,303 C363.201,303 402.051,303 427.997,303 " fill="none" style="stroke: #A80036; stroke-width: 1.0;"/><polygon fill="#A80036" points="315.719,303,321.719,307,327.719,303,321.719,299,315.719,303" style="stroke: #A80036; stroke-width: 1.0;"/><text fill="#000000" font-family="sans-serif" font-size="13" lengthAdjust="spacingAndGlyphs" textLength="76" x="333.75" y="296.4951">Composed of</text><path d="M457.5,191.754 C457.5,214.49 457.5,249.152 457.5,273.5273 " fill="none" style="stroke: #A80036; stroke-width: 1.0;"/><polygon fill="#A80036" points="457.5,278.5646,461.5,269.5646,457.5,273.5646,453.5,269.5646,457.5,278.5646" style="stroke: #A80036; stroke-width: 1.0;"/><text fill="#000000" font-family="sans-serif" font-size="13" lengthAdjust="spacingAndGlyphs" textLength="41" x="458.5" y="245.4951">Names</text><path d="M73.7883,56.071 C87.9433,89.745 117.046,153.508 152.5,201 C173.336,228.9108 202.036,256.1601 224.009,275.307 " fill="none" style="stroke: #A80036; stroke-width: 1.0; stroke-dasharray: 7.0,7.0;"/><polygon fill="#A80036" points="228.03,278.7862,223.841,269.8726,224.2488,275.5147,218.6067,275.9225,228.03,278.7862" style="stroke: #A80036; stroke-width: 1.0;"/><text fill="#000000" font-family="sans-serif" font-size="13" lengthAdjust="spacingAndGlyphs" textLength="58" x="153.5" y="148.4951">Assesses</text><text fill="#000000" font-family="sans-serif" font-size="13" lengthAdjust="spacingAndGlyphs" textLength="0" x="200.5" y="164.8467"/><text fill="#000000" font-family="sans-serif" font-size="13" lengthAdjust="spacingAndGlyphs" textLength="0" x="200.5" y="181.1982"/><text fill="#000000" font-family="sans-serif" font-size="13" lengthAdjust="spacingAndGlyphs" textLength="0" x="200.5" y="197.5498"/></g></svg>