<?xml version="1.0" encoding="UTF-8" standalone="no"?><svg xmlns="http://www.w3.org/2000/svg" xmlns:xlink="http://www.w3.org/1999/xlink" contentScriptType="application/ecmascript" contentStyleType="text/css" height="442px" preserveAspectRatio="none" style="width:405px;height:442px;" version="1.1" viewBox="0 0 405 442" width="405px" zoomAndPan="magnify"><defs><filter height="300%" id="f2fxlv5" width="300%" x="-1" y="-1"><feGaussianBlur result="blurOut" stdDeviation="2.0"/><feColorMatrix in="blurOut" result="blurOut2" type="matrix" values="0 0 0 0 0 0 0 0 0 0 0 0 0 0 0 0 0 0 .4 0"/><feOffset dx="4.0" dy="4.0" in="blurOut2" result="blurOut3"/><feBlend in="SourceGraphic" in2="blurOut3" mode="normal"/></filter></defs><g><!--cluster MeasureIntermediary--><rect fill="#FFFFFF" filter="url(#f2fxlv5)" height="224" style="stroke: #000000; stroke-width: 2.0;" width="176" x="222" y="211"/><text fill="#000000" font-family="sans-serif" font-size="14" font-weight="bold" lengthAdjust="spacingAndGlyphs" textLength="85" x="267.5" y="227.5332">FHIR Server</text><!--cluster MeasureIntermediary2--><rect fill="#FFFFFF" filter="url(#f2fxlv5)" height="277" style="stroke: #000000; stroke-width: 2.0;" width="176" x="22" y="24"/><text fill="#000000" font-family="sans-serif" font-size="14" font-weight="bold" lengthAdjust="spacingAndGlyphs" textLength="40" x="90" y="40.5332">Slicer</text><!--entity MeasureSource1--><rect fill="#FEFECE" filter="url(#f2fxlv5)" height="37.6094" style="stroke: #A80036; stroke-width: 1.5;" width="124" x="243" y="247"/><text fill="#000000" font-family="sans-serif" font-size="14" lengthAdjust="spacingAndGlyphs" textLength="104" x="253" y="271.5332">Measure Source</text><!--entity MeasureConsumer1--><rect fill="#FEFECE" filter="url(#f2fxlv5)" height="37.6094" style="stroke: #A80036; stroke-width: 1.5;" width="144" x="238" y="381"/><text fill="#000000" font-family="sans-serif" font-size="14" lengthAdjust="spacingAndGlyphs" textLength="124" x="248" y="405.5332">Measure Consumer</text><!--entity MeasureConsumer2--><rect fill="#FEFECE" filter="url(#f2fxlv5)" height="37.6094" style="stroke: #A80036; stroke-width: 1.5;" width="144" x="38" y="60"/><text fill="#000000" font-family="sans-serif" font-size="14" lengthAdjust="spacingAndGlyphs" textLength="124" x="48" y="84.5332">Measure Consumer</text><!--entity MeasureSource2--><rect fill="#FEFECE" filter="url(#f2fxlv5)" height="37.6094" style="stroke: #A80036; stroke-width: 1.5;" width="124" x="53" y="247"/><text fill="#000000" font-family="sans-serif" font-size="14" lengthAdjust="spacingAndGlyphs" textLength="104" x="63" y="271.5332">Measure Source</text><path d="M305.685,285.077 C306.637,310.214 308.351,355.4719 309.307,380.7175 " fill="none" style="stroke: #A80036; stroke-width: 2.0;"/><path d="M110.489,98.075 C111.4,131.785 113.357,204.208 114.368,241.598 " fill="none" style="stroke: #A80036; stroke-width: 2.0;"/><polygon fill="#A80036" points="114.509,246.851,118.2659,237.7468,114.3747,241.8528,110.2687,237.9617,114.509,246.851" style="stroke: #A80036; stroke-width: 1.0;"/><text fill="#000000" font-family="sans-serif" font-size="13" lengthAdjust="spacingAndGlyphs" textLength="57" x="121" y="142.4951">Transform</text><text fill="#000000" font-family="sans-serif" font-size="13" lengthAdjust="spacingAndGlyphs" textLength="25" x="137" y="158.8467">from</text><text fill="#000000" font-family="sans-serif" font-size="13" lengthAdjust="spacingAndGlyphs" textLength="65" x="119" y="175.1982">Measure to</text><text fill="#000000" font-family="sans-serif" font-size="13" lengthAdjust="spacingAndGlyphs" textLength="35" x="132" y="191.5498">Group</text><path d="M147.834,98.125 C162.708,106.18 179.434,116.459 193,128 C233.647,162.578 270.7,213.308 290.321,242.35 " fill="none" style="stroke: #A80036; stroke-width: 1.0;"/><polygon fill="#A80036" points="293.318,246.82,291.6262,237.1175,290.5326,242.6677,284.9825,241.5741,293.318,246.82" style="stroke: #A80036; stroke-width: 1.0;"/><text fill="#000000" font-family="sans-serif" font-size="13" lengthAdjust="spacingAndGlyphs" textLength="47" x="272" y="158.9951">Pull API</text><text fill="#000000" font-family="sans-serif" font-size="13" lengthAdjust="spacingAndGlyphs" textLength="58" x="266.5" y="175.3467">(Measure)</text><path d="M132.102,285.061 C150.039,303.303 179.651,331.499 209,351 C224.889,361.5574 243.461,371.082 260.315,378.8113 " fill="none" style="stroke: #A80036; stroke-width: 1.0;"/><polygon fill="#A80036" points="265.019,380.9431,258.4731,373.5844,260.465,378.8789,255.1704,380.8708,265.019,380.9431" style="stroke: #A80036; stroke-width: 1.0;"/><text fill="#000000" font-family="sans-serif" font-size="13" lengthAdjust="spacingAndGlyphs" textLength="55" x="226" y="331.4951">Push API</text><text fill="#000000" font-family="sans-serif" font-size="13" lengthAdjust="spacingAndGlyphs" textLength="43" x="232" y="347.8467">(Group)</text></g></svg>