<?xml version="1.0" encoding="UTF-8" standalone="no"?><svg xmlns="http://www.w3.org/2000/svg" xmlns:xlink="http://www.w3.org/1999/xlink" contentScriptType="application/ecmascript" contentStyleType="text/css" height="147px" preserveAspectRatio="none" style="width:329px;height:147px;" version="1.1" viewBox="0 0 329 147" width="329px" zoomAndPan="magnify"><defs><filter height="300%" id="f1vzb27" width="300%" x="-1" y="-1"><feGaussianBlur result="blurOut" stdDeviation="2.0"/><feColorMatrix in="blurOut" result="blurOut2" type="matrix" values="0 0 0 0 0 0 0 0 0 0 0 0 0 0 0 0 0 0 .4 0"/><feOffset dx="4.0" dy="4.0" in="blurOut2" result="blurOut3"/><feBlend in="SourceGraphic" in2="blurOut3" mode="normal"/></filter></defs><g><!--entity AvailabilitySource--><rect fill="#FEFECE" filter="url(#f1vzb27)" height="37.6094" style="stroke: #A80036; stroke-width: 1.5;" width="135" x="6" y="8"/><text fill="#000000" font-family="sans-serif" font-size="14" lengthAdjust="spacingAndGlyphs" textLength="115" x="16" y="32.5332">Availability Source</text><!--entity AvailabilityCollector--><rect fill="#FEFECE" filter="url(#f1vzb27)" height="37.6094" style="stroke: #A80036; stroke-width: 1.5;" width="146" x="176.5" y="8"/><text fill="#000000" font-family="sans-serif" font-size="14" lengthAdjust="spacingAndGlyphs" textLength="126" x="186.5" y="32.5332">Availability Collector</text><ellipse cx="161.4176" cy="123.4835" fill="#FEFECE" filter="url(#f1vzb27)" rx="75.4176" ry="17.4835" style="stroke: #A80036; stroke-width: 1.5;"/><text fill="#000000" font-family="sans-serif" font-size="14" lengthAdjust="spacingAndGlyphs" textLength="115" x="103.9176" y="128.7882">Update Availability</text><path d="M90.4673,46.2206 C105.3852,62.2404 127.072,85.5289 142.553,102.1535 " fill="none" style="stroke: #A80036; stroke-width: 1.0;"/><polygon fill="#A80036" points="146.347,106.228,143.1402,96.9158,142.9393,102.5691,137.286,102.3682,146.347,106.228" style="stroke: #A80036; stroke-width: 1.0;"/><path d="M232.533,46.2206 C217.615,62.2404 195.928,85.5289 180.447,102.1535 " fill="none" style="stroke: #A80036; stroke-width: 1.0;"/><polygon fill="#A80036" points="176.653,106.228,185.714,102.3682,180.0607,102.5691,179.8598,96.9158,176.653,106.228" style="stroke: #A80036; stroke-width: 1.0;"/></g></svg>