<?xml version="1.0" encoding="UTF-8" standalone="no"?><svg xmlns="http://www.w3.org/2000/svg" xmlns:xlink="http://www.w3.org/1999/xlink" contentScriptType="application/ecmascript" contentStyleType="text/css" height="155px" preserveAspectRatio="none" style="width:442px;height:155px;" version="1.1" viewBox="0 0 442 155" width="442px" zoomAndPan="magnify"><defs><filter height="300%" id="fcjvfwi" width="300%" x="-1" y="-1"><feGaussianBlur result="blurOut" stdDeviation="2.0"/><feColorMatrix in="blurOut" result="blurOut2" type="matrix" values="0 0 0 0 0 0 0 0 0 0 0 0 0 0 0 0 0 0 .4 0"/><feOffset dx="4.0" dy="4.0" in="blurOut2" result="blurOut3"/><feBlend in="SourceGraphic" in2="blurOut3" mode="normal"/></filter></defs><g><!--entity MeasureDefinitionSource--><rect fill="#FEFECE" filter="url(#fcjvfwi)" height="37.6094" style="stroke: #A80036; stroke-width: 1.5;" width="187" x="6" y="8"/><text fill="#000000" font-family="sans-serif" font-size="14" lengthAdjust="spacingAndGlyphs" textLength="167" x="16" y="32.5332">Measure Definition Source</text><!--entity MeasureDefinitionConsumer--><rect fill="#FEFECE" filter="url(#fcjvfwi)" height="37.6094" style="stroke: #A80036; stroke-width: 1.5;" width="207" x="228" y="8"/><text fill="#000000" font-family="sans-serif" font-size="14" lengthAdjust="spacingAndGlyphs" textLength="187" x="238" y="32.5332">Measure Definition Consumer</text><ellipse cx="215.2514" cy="127.3503" fill="#FEFECE" filter="url(#fcjvfwi)" rx="94.7514" ry="21.3503" style="stroke: #A80036; stroke-width: 1.5;"/><text fill="#000000" font-family="sans-serif" font-size="14" lengthAdjust="spacingAndGlyphs" textLength="161" x="134.7514" y="132.655">Query Measure Definition</text><path d="M120.776,46.066 C139.662,62.1034 167.374,85.6342 187.949,103.1057 " fill="none" style="stroke: #A80036; stroke-width: 1.0;"/><polygon fill="#A80036" points="191.965,106.5151,187.6948,97.6401,188.1541,103.2783,182.5159,103.7375,191.965,106.5151" style="stroke: #A80036; stroke-width: 1.0;"/><path d="M310.224,46.066 C291.338,62.1034 263.626,85.6342 243.051,103.1057 " fill="none" style="stroke: #A80036; stroke-width: 1.0;"/><polygon fill="#A80036" points="239.035,106.5151,248.4841,103.7375,242.8459,103.2783,243.3052,97.6401,239.035,106.5151" style="stroke: #A80036; stroke-width: 1.0;"/></g></svg>