<?xml version="1.0" encoding="UTF-8" standalone="no"?><svg xmlns="http://www.w3.org/2000/svg" xmlns:xlink="http://www.w3.org/1999/xlink" contentScriptType="application/ecmascript" contentStyleType="text/css" height="147px" preserveAspectRatio="none" style="width:316px;height:147px;" version="1.1" viewBox="0 0 316 147" width="316px" zoomAndPan="magnify"><defs><filter height="300%" id="fias8gz" width="300%" x="-1" y="-1"><feGaussianBlur result="blurOut" stdDeviation="2.0"/><feColorMatrix in="blurOut" result="blurOut2" type="matrix" values="0 0 0 0 0 0 0 0 0 0 0 0 0 0 0 0 0 0 .4 0"/><feOffset dx="4.0" dy="4.0" in="blurOut2" result="blurOut3"/><feBlend in="SourceGraphic" in2="blurOut3" mode="normal"/></filter></defs><g><!--entity MeasureSource--><rect fill="#FEFECE" filter="url(#fias8gz)" height="37.6094" style="stroke: #A80036; stroke-width: 1.5;" width="124" x="6" y="8"/><text fill="#000000" font-family="sans-serif" font-size="14" lengthAdjust="spacingAndGlyphs" textLength="104" x="16" y="32.5332">Measure Source</text><!--entity MeasureConsumer--><rect fill="#FEFECE" filter="url(#fias8gz)" height="37.6094" style="stroke: #A80036; stroke-width: 1.5;" width="144" x="165" y="8"/><text fill="#000000" font-family="sans-serif" font-size="14" lengthAdjust="spacingAndGlyphs" textLength="124" x="175" y="32.5332">Measure Consumer</text><ellipse cx="152.2325" cy="123.2465" fill="#FEFECE" filter="url(#fias8gz)" rx="74.2325" ry="17.2465" style="stroke: #A80036; stroke-width: 1.5;"/><text fill="#000000" font-family="sans-serif" font-size="14" lengthAdjust="spacingAndGlyphs" textLength="112" x="96.2325" y="128.5512">Produce Measure</text><path d="M84.196,46.1241 C98.5238,62.1576 119.393,85.5108 134.187,102.0666 " fill="none" style="stroke: #A80036; stroke-width: 1.0;"/><polygon fill="#A80036" points="137.81,106.1206,134.7961,96.7442,134.4785,102.3921,128.8306,102.0746,137.81,106.1206" style="stroke: #A80036; stroke-width: 1.0;"/><path d="M220.611,46.1241 C206.113,62.1576 184.996,85.5108 170.025,102.0666 " fill="none" style="stroke: #A80036; stroke-width: 1.0;"/><polygon fill="#A80036" points="166.359,106.1206,175.3623,102.128,169.7126,102.412,169.4286,96.7623,166.359,106.1206" style="stroke: #A80036; stroke-width: 1.0;"/></g></svg>