<?xml version="1.0" encoding="UTF-8" standalone="no"?><svg xmlns="http://www.w3.org/2000/svg" xmlns:xlink="http://www.w3.org/1999/xlink" contentScriptType="application/ecmascript" contentStyleType="text/css" height="145px" preserveAspectRatio="none" style="width:316px;height:145px;" version="1.1" viewBox="0 0 316 145" width="316px" zoomAndPan="magnify"><defs><filter height="300%" id="fgi66rq" width="300%" x="-1" y="-1"><feGaussianBlur result="blurOut" stdDeviation="2.0"/><feColorMatrix in="blurOut" result="blurOut2" type="matrix" values="0 0 0 0 0 0 0 0 0 0 0 0 0 0 0 0 0 0 .4 0"/><feOffset dx="4.0" dy="4.0" in="blurOut2" result="blurOut3"/><feBlend in="SourceGraphic" in2="blurOut3" mode="normal"/></filter></defs><g><!--entity MeasureSource--><rect fill="#FEFECE" filter="url(#fgi66rq)" height="37.6094" style="stroke: #A80036; stroke-width: 1.5;" width="124" x="6" y="8"/><text fill="#000000" font-family="sans-serif" font-size="14" lengthAdjust="spacingAndGlyphs" textLength="104" x="16" y="32.5332">Measure Source</text><!--entity MeasureConsumer--><rect fill="#FEFECE" filter="url(#fgi66rq)" height="37.6094" style="stroke: #A80036; stroke-width: 1.5;" width="144" x="165" y="8"/><text fill="#000000" font-family="sans-serif" font-size="14" lengthAdjust="spacingAndGlyphs" textLength="124" x="175" y="32.5332">Measure Consumer</text><ellipse cx="151.8716" cy="122.1743" fill="#FEFECE" filter="url(#fgi66rq)" rx="68.8716" ry="16.1743" style="stroke: #A80036; stroke-width: 1.5;"/><text fill="#000000" font-family="sans-serif" font-size="14" lengthAdjust="spacingAndGlyphs" textLength="98" x="102.8716" y="127.479">Query Measure</text><path d="M84.5957,46.3738 C99.1413,62.4778 120.198,85.7911 134.894,102.061 " fill="none" style="stroke: #A80036; stroke-width: 1.0;"/><polygon fill="#A80036" points="138.485,106.037,135.4202,96.6771,135.1333,102.3267,129.4837,102.0398,138.485,106.037" style="stroke: #A80036; stroke-width: 1.0;"/><path d="M220.207,46.3738 C205.488,62.4778 184.18,85.7911 169.31,102.061 " fill="none" style="stroke: #A80036; stroke-width: 1.0;"/><polygon fill="#A80036" points="165.676,106.037,174.7,102.0915,169.0489,102.346,168.7944,96.6949,165.676,106.037" style="stroke: #A80036; stroke-width: 1.0;"/></g></svg>