<?xml version="1.0" encoding="UTF-8" standalone="no"?><svg xmlns="http://www.w3.org/2000/svg" xmlns:xlink="http://www.w3.org/1999/xlink" contentScriptType="application/ecmascript" contentStyleType="text/css" height="148px" preserveAspectRatio="none" style="width:626px;height:148px;" version="1.1" viewBox="0 0 626 148" width="626px" zoomAndPan="magnify"><defs><filter height="300%" id="f44q50s" width="300%" x="-1" y="-1"><feGaussianBlur result="blurOut" stdDeviation="2.0"/><feColorMatrix in="blurOut" result="blurOut2" type="matrix" values="0 0 0 0 0 0 0 0 0 0 0 0 0 0 0 0 0 0 .4 0"/><feOffset dx="4.0" dy="4.0" in="blurOut2" result="blurOut3"/><feBlend in="SourceGraphic" in2="blurOut3" mode="normal"/></filter></defs><g><!--entity MeasureSource--><rect fill="#FEFECE" filter="url(#f44q50s)" height="37.6094" style="stroke: #A80036; stroke-width: 1.5;" width="124" x="6" y="8"/><text fill="#000000" font-family="sans-serif" font-size="14" lengthAdjust="spacingAndGlyphs" textLength="104" x="16" y="32.5332">Measure Source</text><!--entity MeasureConsumer--><rect fill="#FEFECE" filter="url(#f44q50s)" height="37.6094" style="stroke: #A80036; stroke-width: 1.5;" width="144" x="165" y="8"/><text fill="#000000" font-family="sans-serif" font-size="14" lengthAdjust="spacingAndGlyphs" textLength="124" x="175" y="32.5332">Measure Consumer</text><!--entity MeasureComputer--><rect fill="#FEFECE" filter="url(#f44q50s)" height="37.6094" style="stroke: #A80036; stroke-width: 1.5;" width="141" x="344.5" y="8"/><text fill="#000000" font-family="sans-serif" font-size="14" lengthAdjust="spacingAndGlyphs" textLength="121" x="354.5" y="32.5332">Measure Computer</text><!--entity DataSource--><rect fill="#FEFECE" filter="url(#f44q50s)" height="37.6094" style="stroke: #A80036; stroke-width: 1.5;" width="99" x="520.5" y="8"/><text fill="#000000" font-family="sans-serif" font-size="14" lengthAdjust="spacingAndGlyphs" textLength="79" x="530.5" y="32.5332">Data Source</text><ellipse cx="325.8153" cy="123.5631" fill="#FEFECE" filter="url(#f44q50s)" rx="75.8153" ry="17.5631" style="stroke: #A80036; stroke-width: 1.5;"/><text fill="#000000" font-family="sans-serif" font-size="14" lengthAdjust="spacingAndGlyphs" textLength="116" x="267.8153" y="128.8677">Compute Measure</text><path d="M117.44,46.1087 C165.156,63.5864 236.7,89.7914 282.359,106.5154 " fill="none" style="stroke: #A80036; stroke-width: 1.0;"/><polygon fill="#A80036" points="287.245,108.3049,280.1702,101.4531,282.5501,106.5849,277.4183,108.9649,287.245,108.3049" style="stroke: #A80036; stroke-width: 1.0;"/><path d="M254.16,46.2206 C269.375,62.3761 291.553,85.9241 307.234,102.5747 " fill="none" style="stroke: #A80036; stroke-width: 1.0;"/><polygon fill="#A80036" points="310.675,106.228,307.4167,96.9337,307.2471,102.5881,301.5927,102.4185,310.675,106.228" style="stroke: #A80036; stroke-width: 1.0;"/><path d="M397.84,46.2206 C382.625,62.3761 360.447,85.9241 344.766,102.5747 " fill="none" style="stroke: #A80036; stroke-width: 1.0;"/><polygon fill="#A80036" points="341.325,106.228,350.4073,102.4185,344.7529,102.5881,344.5833,96.9337,341.325,106.228" style="stroke: #A80036; stroke-width: 1.0;"/><path d="M523.243,46.1087 C478.34,63.4994 411.127,89.5308 367.919,106.265 " fill="none" style="stroke: #A80036; stroke-width: 1.0;"/><polygon fill="#A80036" points="363.033,108.1573,372.8703,108.6344,367.6951,106.3504,369.9792,101.1751,363.033,108.1573" style="stroke: #A80036; stroke-width: 1.0;"/></g></svg>