<?xml version="1.0" encoding="UTF-8" standalone="no"?><svg xmlns="http://www.w3.org/2000/svg" xmlns:xlink="http://www.w3.org/1999/xlink" contentScriptType="application/ecmascript" contentStyleType="text/css" height="148px" preserveAspectRatio="none" style="width:492px;height:148px;" version="1.1" viewBox="0 0 492 148" width="492px" zoomAndPan="magnify"><defs><filter height="300%" id="f4wv6tc" width="300%" x="-1" y="-1"><feGaussianBlur result="blurOut" stdDeviation="2.0"/><feColorMatrix in="blurOut" result="blurOut2" type="matrix" values="0 0 0 0 0 0 0 0 0 0 0 0 0 0 0 0 0 0 .4 0"/><feOffset dx="4.0" dy="4.0" in="blurOut2" result="blurOut3"/><feBlend in="SourceGraphic" in2="blurOut3" mode="normal"/></filter></defs><g><!--entity MeasureSource--><rect fill="#FEFECE" filter="url(#f4wv6tc)" height="37.6094" style="stroke: #A80036; stroke-width: 1.5;" width="124" x="6" y="8"/><text fill="#000000" font-family="sans-serif" font-size="14" lengthAdjust="spacingAndGlyphs" textLength="104" x="16" y="32.5332">Measure Source</text><!--entity MeasureConsumer--><rect fill="#FEFECE" filter="url(#f4wv6tc)" height="37.6094" style="stroke: #A80036; stroke-width: 1.5;" width="144" x="165" y="8"/><text fill="#000000" font-family="sans-serif" font-size="14" lengthAdjust="spacingAndGlyphs" textLength="124" x="175" y="32.5332">Measure Consumer</text><!--entity MeasureComputer--><rect fill="#FEFECE" filter="url(#f4wv6tc)" height="37.6094" style="stroke: #A80036; stroke-width: 1.5;" width="141" x="344.5" y="8"/><text fill="#000000" font-family="sans-serif" font-size="14" lengthAdjust="spacingAndGlyphs" textLength="121" x="354.5" y="32.5332">Measure Computer</text><ellipse cx="236.8153" cy="123.5631" fill="#FEFECE" filter="url(#f4wv6tc)" rx="75.8153" ry="17.5631" style="stroke: #A80036; stroke-width: 1.5;"/><text fill="#000000" font-family="sans-serif" font-size="14" lengthAdjust="spacingAndGlyphs" textLength="116" x="178.8153" y="128.8677">Compute Measure</text><path d="M100.5849,46.2206 C130.63,63.021 174.972,87.8158 204.872,104.5347 " fill="none" style="stroke: #A80036; stroke-width: 1.0;"/><polygon fill="#A80036" points="209.542,107.1461,203.6385,99.2627,205.1778,104.7061,199.7344,106.2454,209.542,107.1461" style="stroke: #A80036; stroke-width: 1.0;"/><path d="M237,46.2206 C237,61.7367 237,84.0717 237,100.5661 " fill="none" style="stroke: #A80036; stroke-width: 1.0;"/><polygon fill="#A80036" points="237,105.9177,241,96.9177,237,100.9177,233,96.9177,237,105.9177" style="stroke: #A80036; stroke-width: 1.0;"/><path d="M380.68,46.2206 C348.904,63.0901 301.946,88.02 270.451,104.7407 " fill="none" style="stroke: #A80036; stroke-width: 1.0;"/><polygon fill="#A80036" points="265.921,107.1461,275.7459,106.4594,270.3374,104.8018,271.995,99.3932,265.921,107.1461" style="stroke: #A80036; stroke-width: 1.0;"/></g></svg>