<?xml version="1.0" encoding="UTF-8" standalone="no"?><svg xmlns="http://www.w3.org/2000/svg" xmlns:xlink="http://www.w3.org/1999/xlink" contentScriptType="application/ecmascript" contentStyleType="text/css" height="274px" preserveAspectRatio="none" style="width:1176px;height:274px;" version="1.1" viewBox="0 0 1176 274" width="1176px" zoomAndPan="magnify"><defs><filter height="300%" id="fpltupp" width="300%" x="-1" y="-1"><feGaussianBlur result="blurOut" stdDeviation="2.0"/><feColorMatrix in="blurOut" result="blurOut2" type="matrix" values="0 0 0 0 0 0 0 0 0 0 0 0 0 0 0 0 0 0 .4 0"/><feOffset dx="4.0" dy="4.0" in="blurOut2" result="blurOut3"/><feBlend in="SourceGraphic" in2="blurOut3" mode="normal"/></filter></defs><g><rect fill="#FFFFFF" filter="url(#fpltupp)" height="14.3516" style="stroke: #A80036; stroke-width: 1.0;" width="10" x="80.5" y="119.6094"/><rect fill="#FFFFFF" filter="url(#fpltupp)" height="14.3516" style="stroke: #A80036; stroke-width: 1.0;" width="10" x="705.5" y="119.6094"/><rect fill="#FFFFFF" filter="url(#fpltupp)" height="30.3516" style="stroke: #A80036; stroke-width: 1.0;" width="10" x="837" y="163.9609"/><rect fill="#FFFFFF" filter="url(#fpltupp)" height="30.3516" style="stroke: #A80036; stroke-width: 1.0;" width="10" x="837" y="224.6641"/><rect fill="#FFFFFF" filter="url(#fpltupp)" height="30.3516" style="stroke: #A80036; stroke-width: 1.0;" width="10" x="1095" y="163.9609"/><rect fill="#FFFFFF" filter="url(#fpltupp)" height="30.3516" style="stroke: #A80036; stroke-width: 1.0;" width="10" x="1095" y="224.6641"/><line style="stroke: #A80036; stroke-width: 1.0; stroke-dasharray: 5.0,5.0;" x1="85" x2="85" y1="87.6094" y2="273.3672"/><line style="stroke: #A80036; stroke-width: 1.0; stroke-dasharray: 5.0,5.0;" x1="710.5" x2="710.5" y1="87.6094" y2="273.3672"/><line style="stroke: #A80036; stroke-width: 1.0; stroke-dasharray: 5.0,5.0;" x1="841.5" x2="841.5" y1="87.6094" y2="273.3672"/><line style="stroke: #A80036; stroke-width: 1.0; stroke-dasharray: 5.0,5.0;" x1="1100" x2="1100" y1="87.6094" y2="273.3672"/><rect fill="#FEFECE" filter="url(#fpltupp)" height="31.6094" style="stroke: #A80036; stroke-width: 1.5;" width="151" x="8" y="51"/><text fill="#000000" font-family="sans-serif" font-size="14" lengthAdjust="spacingAndGlyphs" textLength="137" x="15" y="72.5332">Measure Intermediary</text><rect fill="#FEFECE" filter="url(#fpltupp)" height="31.6094" style="stroke: #A80036; stroke-width: 1.5;" width="118" x="649.5" y="51"/><text fill="#000000" font-family="sans-serif" font-size="14" lengthAdjust="spacingAndGlyphs" textLength="104" x="656.5" y="72.5332">Measure Source</text><text fill="#000000" font-family="sans-serif" font-size="14" lengthAdjust="spacingAndGlyphs" textLength="115" x="781.5" y="84.5332">Public Health User</text><ellipse cx="842" cy="13" fill="#FEFECE" filter="url(#fpltupp)" rx="8" ry="8" style="stroke: #A80036; stroke-width: 2.0;"/><path d="M842,21 L842,48 M829,29 L855,29 M842,48 L829,63 M842,48 L855,63 " fill="#FEFECE" filter="url(#fpltupp)" style="stroke: #A80036; stroke-width: 2.0;"/><rect fill="#FEFECE" filter="url(#fpltupp)" height="31.6094" style="stroke: #A80036; stroke-width: 1.5;" width="138" x="1029" y="51"/><text fill="#000000" font-family="sans-serif" font-size="14" lengthAdjust="spacingAndGlyphs" textLength="124" x="1036" y="72.5332">Measure Consumer</text><rect fill="#FFFFFF" filter="url(#fpltupp)" height="14.3516" style="stroke: #A80036; stroke-width: 1.0;" width="10" x="80.5" y="119.6094"/><rect fill="#FFFFFF" filter="url(#fpltupp)" height="14.3516" style="stroke: #A80036; stroke-width: 1.0;" width="10" x="705.5" y="119.6094"/><rect fill="#FFFFFF" filter="url(#fpltupp)" height="30.3516" style="stroke: #A80036; stroke-width: 1.0;" width="10" x="837" y="163.9609"/><rect fill="#FFFFFF" filter="url(#fpltupp)" height="30.3516" style="stroke: #A80036; stroke-width: 1.0;" width="10" x="837" y="224.6641"/><rect fill="#FFFFFF" filter="url(#fpltupp)" height="30.3516" style="stroke: #A80036; stroke-width: 1.0;" width="10" x="1095" y="163.9609"/><rect fill="#FFFFFF" filter="url(#fpltupp)" height="30.3516" style="stroke: #A80036; stroke-width: 1.0;" width="10" x="1095" y="224.6641"/><polygon fill="#A80036" points="693.5,115.6094,703.5,119.6094,693.5,123.6094,697.5,119.6094" style="stroke: #A80036; stroke-width: 1.0;"/><line style="stroke: #A80036; stroke-width: 1.0;" x1="90.5" x2="699.5" y1="119.6094" y2="119.6094"/><text fill="#000000" font-family="sans-serif" font-size="13" lengthAdjust="spacingAndGlyphs" textLength="601" x="97.5" y="115.1045">1. Measure Consumer component of a Measure Intermediary gathers data from one or Measure Sources</text><polygon fill="#A80036" points="96.5,129.9609,86.5,133.9609,96.5,137.9609,92.5,133.9609" style="stroke: #A80036; stroke-width: 1.0;"/><line style="stroke: #A80036; stroke-width: 1.0; stroke-dasharray: 2.0,2.0;" x1="90.5" x2="709.5" y1="133.9609" y2="133.9609"/><polygon fill="#A80036" points="1083,159.9609,1093,163.9609,1083,167.9609,1087,163.9609" style="stroke: #A80036; stroke-width: 1.0;"/><line style="stroke: #A80036; stroke-width: 1.0;" x1="847" x2="1089" y1="163.9609" y2="163.9609"/><text fill="#000000" font-family="sans-serif" font-size="13" lengthAdjust="spacingAndGlyphs" textLength="136" x="854" y="159.4561">2. User Initiates Search</text><polygon fill="#A80036" points="853,190.3125,843,194.3125,853,198.3125,849,194.3125" style="stroke: #A80036; stroke-width: 1.0;"/><line style="stroke: #A80036; stroke-width: 1.0; stroke-dasharray: 2.0,2.0;" x1="847" x2="1099" y1="194.3125" y2="194.3125"/><text fill="#000000" font-family="sans-serif" font-size="13" lengthAdjust="spacingAndGlyphs" textLength="106" x="859" y="189.8076">3. Display Results</text><polygon fill="#A80036" points="1083,220.6641,1093,224.6641,1083,228.6641,1087,224.6641" style="stroke: #A80036; stroke-width: 1.0;"/><line style="stroke: #A80036; stroke-width: 1.0;" x1="847" x2="1089" y1="224.6641" y2="224.6641"/><text fill="#000000" font-family="sans-serif" font-size="13" lengthAdjust="spacingAndGlyphs" textLength="234" x="854" y="220.1592">4. User refines Focus or Form of Display</text><polygon fill="#A80036" points="853,251.0156,843,255.0156,853,259.0156,849,255.0156" style="stroke: #A80036; stroke-width: 1.0;"/><line style="stroke: #A80036; stroke-width: 1.0; stroke-dasharray: 2.0,2.0;" x1="847" x2="1099" y1="255.0156" y2="255.0156"/><text fill="#000000" font-family="sans-serif" font-size="13" lengthAdjust="spacingAndGlyphs" textLength="153" x="859" y="250.5107">5. Display Refined Results</text></g></svg>