<?xml version="1.0" encoding="UTF-8" standalone="no"?><svg xmlns="http://www.w3.org/2000/svg" xmlns:xlink="http://www.w3.org/1999/xlink" contentScriptType="application/ecmascript" contentStyleType="text/css" height="257px" preserveAspectRatio="none" style="width:982px;height:257px;" version="1.1" viewBox="0 0 982 257" width="982px" zoomAndPan="magnify"><defs><filter height="300%" id="fw63bv0" width="300%" x="-1" y="-1"><feGaussianBlur result="blurOut" stdDeviation="2.0"/><feColorMatrix in="blurOut" result="blurOut2" type="matrix" values="0 0 0 0 0 0 0 0 0 0 0 0 0 0 0 0 0 0 .4 0"/><feOffset dx="4.0" dy="4.0" in="blurOut2" result="blurOut3"/><feBlend in="SourceGraphic" in2="blurOut3" mode="normal"/></filter></defs><g><rect fill="#FFFFFF" filter="url(#fw63bv0)" height="14.3516" style="stroke: #A80036; stroke-width: 1.0;" width="10" x="105.5" y="119.6094"/><rect fill="#FFFFFF" filter="url(#fw63bv0)" height="14.3516" style="stroke: #A80036; stroke-width: 1.0;" width="10" x="354.5" y="119.6094"/><rect fill="#FFFFFF" filter="url(#fw63bv0)" height="65.7031" style="stroke: #A80036; stroke-width: 1.0;" width="10" x="531.5" y="171.9609"/><rect fill="#FFFFFF" filter="url(#fw63bv0)" height="65.7031" style="stroke: #A80036; stroke-width: 1.0;" width="10" x="531.5" y="171.9609"/><rect fill="#FFFFFF" filter="url(#fw63bv0)" height="30.3516" style="stroke: #A80036; stroke-width: 1.0;" width="10" x="916.5" y="207.3125"/><line style="stroke: #A80036; stroke-width: 1.0; stroke-dasharray: 5.0,5.0;" x1="110" x2="110" y1="87.6094" y2="256.0156"/><line style="stroke: #A80036; stroke-width: 1.0; stroke-dasharray: 5.0,5.0;" x1="359" x2="359" y1="87.6094" y2="256.0156"/><line style="stroke: #A80036; stroke-width: 1.0; stroke-dasharray: 5.0,5.0;" x1="531" x2="531" y1="87.6094" y2="256.0156"/><line style="stroke: #A80036; stroke-width: 1.0; stroke-dasharray: 5.0,5.0;" x1="676" x2="676" y1="87.6094" y2="256.0156"/><line style="stroke: #A80036; stroke-width: 1.0; stroke-dasharray: 5.0,5.0;" x1="921.5" x2="921.5" y1="87.6094" y2="256.0156"/><rect fill="#FEFECE" filter="url(#fw63bv0)" height="31.6094" style="stroke: #A80036; stroke-width: 1.5;" width="201" x="8" y="51"/><text fill="#000000" font-family="sans-serif" font-size="14" lengthAdjust="spacingAndGlyphs" textLength="187" x="15" y="72.5332">Measure Definition Consumer</text><rect fill="#FEFECE" filter="url(#fw63bv0)" height="31.6094" style="stroke: #A80036; stroke-width: 1.5;" width="181" x="267" y="51"/><text fill="#000000" font-family="sans-serif" font-size="14" lengthAdjust="spacingAndGlyphs" textLength="167" x="274" y="72.5332">Measure Definition Source</text><rect fill="#FEFECE" filter="url(#fw63bv0)" height="31.6094" style="stroke: #A80036; stroke-width: 1.5;" width="135" x="462" y="51"/><text fill="#000000" font-family="sans-serif" font-size="14" lengthAdjust="spacingAndGlyphs" textLength="121" x="469" y="72.5332">Measure Computer</text><text fill="#000000" font-family="sans-serif" font-size="14" lengthAdjust="spacingAndGlyphs" textLength="125" x="611" y="84.5332">MeaasureComputer</text><ellipse cx="676.5" cy="13" fill="#FEFECE" filter="url(#fw63bv0)" rx="8" ry="8" style="stroke: #A80036; stroke-width: 2.0;"/><path d="M676.5,21 L676.5,48 M663.5,29 L689.5,29 M676.5,48 L663.5,63 M676.5,48 L689.5,63 " fill="#FEFECE" filter="url(#fw63bv0)" style="stroke: #A80036; stroke-width: 2.0;"/><text fill="#000000" font-family="sans-serif" font-size="14" lengthAdjust="spacingAndGlyphs" textLength="126" x="855.5" y="84.5332">EHR or FHIR Server</text><ellipse cx="921.5" cy="13" fill="#FEFECE" filter="url(#fw63bv0)" rx="8" ry="8" style="stroke: #A80036; stroke-width: 2.0;"/><path d="M921.5,21 L921.5,48 M908.5,29 L934.5,29 M921.5,48 L908.5,63 M921.5,48 L934.5,63 " fill="#FEFECE" filter="url(#fw63bv0)" style="stroke: #A80036; stroke-width: 2.0;"/><rect fill="#FFFFFF" filter="url(#fw63bv0)" height="14.3516" style="stroke: #A80036; stroke-width: 1.0;" width="10" x="105.5" y="119.6094"/><rect fill="#FFFFFF" filter="url(#fw63bv0)" height="14.3516" style="stroke: #A80036; stroke-width: 1.0;" width="10" x="354.5" y="119.6094"/><rect fill="#FFFFFF" filter="url(#fw63bv0)" height="65.7031" style="stroke: #A80036; stroke-width: 1.0;" width="10" x="531.5" y="171.9609"/><rect fill="#FFFFFF" filter="url(#fw63bv0)" height="65.7031" style="stroke: #A80036; stroke-width: 1.0;" width="10" x="531.5" y="171.9609"/><rect fill="#FFFFFF" filter="url(#fw63bv0)" height="30.3516" style="stroke: #A80036; stroke-width: 1.0;" width="10" x="916.5" y="207.3125"/><polygon fill="#A80036" points="342.5,115.6094,352.5,119.6094,342.5,123.6094,346.5,119.6094" style="stroke: #A80036; stroke-width: 1.0;"/><line style="stroke: #A80036; stroke-width: 1.0;" x1="115.5" x2="348.5" y1="119.6094" y2="119.6094"/><text fill="#000000" font-family="sans-serif" font-size="13" lengthAdjust="spacingAndGlyphs" textLength="225" x="122.5" y="115.1045">1. Query for New or Updated Measures</text><polygon fill="#A80036" points="121.5,129.9609,111.5,133.9609,121.5,137.9609,117.5,133.9609" style="stroke: #A80036; stroke-width: 1.0;"/><line style="stroke: #A80036; stroke-width: 1.0; stroke-dasharray: 2.0,2.0;" x1="115.5" x2="358.5" y1="133.9609" y2="133.9609"/><line style="stroke: #A80036; stroke-width: 1.0;" x1="531.5" x2="578.5" y1="159.3125" y2="159.3125"/><line style="stroke: #A80036; stroke-width: 1.0;" x1="578.5" x2="578.5" y1="159.3125" y2="172.3125"/><line style="stroke: #A80036; stroke-width: 1.0;" x1="537.5" x2="578.5" y1="172.3125" y2="172.3125"/><polygon fill="#A80036" points="547.5,168.3125,537.5,172.3125,547.5,176.3125,543.5,172.3125" style="stroke: #A80036; stroke-width: 1.0;"/><text fill="#000000" font-family="sans-serif" font-size="13" lengthAdjust="spacingAndGlyphs" textLength="121" x="543.5" y="154.4561">2. Compute Measure</text><polygon fill="#A80036" points="904.5,203.3125,914.5,207.3125,904.5,211.3125,908.5,207.3125" style="stroke: #A80036; stroke-width: 1.0;"/><line style="stroke: #A80036; stroke-width: 1.0;" x1="676.5" x2="910.5" y1="207.3125" y2="207.3125"/><text fill="#000000" font-family="sans-serif" font-size="13" lengthAdjust="spacingAndGlyphs" textLength="85" x="683.5" y="202.8076">3. Gather Data</text><polygon fill="#A80036" points="687.5,233.6641,677.5,237.6641,687.5,241.6641,683.5,237.6641" style="stroke: #A80036; stroke-width: 1.0;"/><line style="stroke: #A80036; stroke-width: 1.0; stroke-dasharray: 2.0,2.0;" x1="681.5" x2="920.5" y1="237.6641" y2="237.6641"/><text fill="#000000" font-family="sans-serif" font-size="13" lengthAdjust="spacingAndGlyphs" textLength="216" x="693.5" y="233.1592">4. Returns Matching FHIR Resources</text></g></svg>